M48
; DRILL file {KiCad (5.1.4)-1} date 12/04/19 00:10:36
; FORMAT={-:-/ absolute / inch / decimal}
; #@! TF.CreationDate,2019-12-04T00:10:36+01:00
; #@! TF.GenerationSoftware,Kicad,Pcbnew,(5.1.4)-1
; #@! TF.FileFunction,Plated,1,2,PTH
FMAT,2
INCH
T1C0.0157
T2C0.0394
T3C0.0472
%
G90
G05
T1
X0.275Y1.1
X0.425Y1.825
X0.45Y1.25
X0.45Y1.05
X0.45Y0.95
X0.45Y0.85
X0.45Y0.75
X0.45Y0.65
X0.45Y0.55
X0.45Y0.45
X0.55Y1.4
X0.575Y1.05
X0.575Y0.95
X0.575Y0.85
X0.575Y0.75
X0.575Y0.65
X0.575Y0.55
X0.575Y0.45
X0.7Y1.05
X0.7Y0.95
X0.7Y0.85
X0.7Y0.75
X0.7Y0.65
X0.7Y0.55
X0.7Y0.45
X0.75Y1.625
X0.8Y1.6
X0.825Y1.05
X0.825Y0.95
X0.825Y0.85
X0.825Y0.75
X0.825Y0.65
X0.825Y0.55
X0.825Y0.45
X0.9Y1.5705
X0.95Y1.525
X0.95Y1.05
X0.95Y0.95
X0.95Y0.85
X0.95Y0.75
X0.95Y0.65
X0.95Y0.55
X0.95Y0.45
X1.0Y1.475
X1.05Y1.425
X1.075Y1.05
X1.075Y0.95
X1.075Y0.85
X1.075Y0.75
X1.075Y0.65
X1.075Y0.55
X1.075Y0.45
X1.125Y1.5705
X1.125Y1.525
X1.125Y1.475
X1.125Y1.425
X1.175Y1.9705
X1.2Y2.15
X1.2Y1.05
X1.2Y0.95
X1.2Y0.85
X1.2Y0.75
X1.2Y0.65
X1.2Y0.55
X1.2Y0.45
X1.25Y1.5
X1.275Y2.0
X1.325Y1.05
X1.325Y0.95
X1.325Y0.85
X1.325Y0.75
X1.325Y0.65
X1.325Y0.55
X1.325Y0.45
X1.425Y1.55
X1.45Y1.05
X1.45Y0.95
X1.45Y0.85
X1.45Y0.75
X1.45Y0.65
X1.45Y0.55
X1.45Y0.45
X1.575Y1.05
X1.575Y0.95
X1.575Y0.85
X1.575Y0.75
X1.575Y0.65
X1.575Y0.55
X1.575Y0.45
X1.65Y1.55
X1.7Y1.05
X1.7Y0.95
X1.7Y0.85
X1.7Y0.75
X1.7Y0.65
X1.7Y0.55
X1.7Y0.45
X1.725Y1.5045
X1.75Y1.825
X1.825Y1.65
X1.825Y1.6
X1.825Y1.5
X1.825Y1.05
X1.825Y0.95
X1.825Y0.85
X1.825Y0.75
X1.825Y0.65
X1.825Y0.55
X1.825Y0.45
X1.85Y1.95
X1.95Y2.05
X1.95Y1.05
X1.95Y0.95
X1.95Y0.85
X1.95Y0.75
X1.95Y0.65
X1.95Y0.55
X1.95Y0.45
X2.075Y1.05
X2.075Y0.95
X2.075Y0.85
X2.075Y0.75
X2.075Y0.65
X2.075Y0.55
X2.075Y0.45
X2.1Y1.65
X2.2Y1.05
X2.2Y0.95
X2.2Y0.85
X2.2Y0.75
X2.2Y0.65
X2.2Y0.55
X2.2Y0.45
X2.325Y2.125
X2.325Y1.05
X2.325Y0.95
X2.325Y0.85
X2.325Y0.75
X2.325Y0.65
X2.325Y0.55
X2.325Y0.45
T2
X2.55Y1.75
X2.55Y1.65
X2.55Y1.55
X2.55Y1.45
X2.55Y1.35
X2.55Y1.25
X0.9Y2.35
X0.9Y2.25
X2.55Y0.85
X2.55Y0.75
T3
X2.5Y2.225
X2.5Y2.05
T0
M30
