G04 #@! TF.GenerationSoftware,KiCad,Pcbnew,(5.1.4)-1*
G04 #@! TF.CreationDate,2019-12-04T00:10:16+01:00*
G04 #@! TF.ProjectId,plan_b,706c616e-5f62-42e6-9b69-6361645f7063,rev?*
G04 #@! TF.SameCoordinates,PX7274898PY791ddc0*
G04 #@! TF.FileFunction,Soldermask,Bot*
G04 #@! TF.FilePolarity,Negative*
%FSLAX46Y46*%
G04 Gerber Fmt 4.6, Leading zero omitted, Abs format (unit mm)*
G04 Created by KiCad (PCBNEW (5.1.4)-1) date 2019-12-04 00:10:16*
%MOMM*%
%LPD*%
G04 APERTURE LIST*
%ADD10C,0.100000*%
G04 APERTURE END LIST*
D10*
G36*
X64880442Y19944482D02*
G01*
X64946627Y19937963D01*
X65116466Y19886443D01*
X65272991Y19802778D01*
X65308729Y19773448D01*
X65410186Y19690186D01*
X65493448Y19588729D01*
X65522778Y19552991D01*
X65606443Y19396466D01*
X65657963Y19226627D01*
X65675359Y19050000D01*
X65657963Y18873373D01*
X65606443Y18703534D01*
X65522778Y18547009D01*
X65493448Y18511271D01*
X65410186Y18409814D01*
X65308729Y18326552D01*
X65272991Y18297222D01*
X65116466Y18213557D01*
X64946627Y18162037D01*
X64880442Y18155518D01*
X64814260Y18149000D01*
X64725740Y18149000D01*
X64659558Y18155518D01*
X64593373Y18162037D01*
X64423534Y18213557D01*
X64267009Y18297222D01*
X64231271Y18326552D01*
X64129814Y18409814D01*
X64046552Y18511271D01*
X64017222Y18547009D01*
X63933557Y18703534D01*
X63882037Y18873373D01*
X63864641Y19050000D01*
X63882037Y19226627D01*
X63933557Y19396466D01*
X64017222Y19552991D01*
X64046552Y19588729D01*
X64129814Y19690186D01*
X64231271Y19773448D01*
X64267009Y19802778D01*
X64423534Y19886443D01*
X64593373Y19937963D01*
X64659558Y19944482D01*
X64725740Y19951000D01*
X64814260Y19951000D01*
X64880442Y19944482D01*
X64880442Y19944482D01*
G37*
G36*
X65671000Y20689000D02*
G01*
X63869000Y20689000D01*
X63869000Y22491000D01*
X65671000Y22491000D01*
X65671000Y20689000D01*
X65671000Y20689000D01*
G37*
G36*
X65671000Y30849000D02*
G01*
X63869000Y30849000D01*
X63869000Y32651000D01*
X65671000Y32651000D01*
X65671000Y30849000D01*
X65671000Y30849000D01*
G37*
G36*
X64880442Y35184482D02*
G01*
X64946627Y35177963D01*
X65116466Y35126443D01*
X65272991Y35042778D01*
X65308729Y35013448D01*
X65410186Y34930186D01*
X65493448Y34828729D01*
X65522778Y34792991D01*
X65606443Y34636466D01*
X65657963Y34466627D01*
X65675359Y34290000D01*
X65657963Y34113373D01*
X65606443Y33943534D01*
X65522778Y33787009D01*
X65493448Y33751271D01*
X65410186Y33649814D01*
X65308729Y33566552D01*
X65272991Y33537222D01*
X65116466Y33453557D01*
X64946627Y33402037D01*
X64880442Y33395518D01*
X64814260Y33389000D01*
X64725740Y33389000D01*
X64659557Y33395519D01*
X64593373Y33402037D01*
X64423534Y33453557D01*
X64267009Y33537222D01*
X64231271Y33566552D01*
X64129814Y33649814D01*
X64046552Y33751271D01*
X64017222Y33787009D01*
X63933557Y33943534D01*
X63882037Y34113373D01*
X63864641Y34290000D01*
X63882037Y34466627D01*
X63933557Y34636466D01*
X64017222Y34792991D01*
X64046552Y34828729D01*
X64129814Y34930186D01*
X64231271Y35013448D01*
X64267009Y35042778D01*
X64423534Y35126443D01*
X64593373Y35177963D01*
X64659558Y35184482D01*
X64725740Y35191000D01*
X64814260Y35191000D01*
X64880442Y35184482D01*
X64880442Y35184482D01*
G37*
G36*
X64880443Y37724481D02*
G01*
X64946627Y37717963D01*
X65116466Y37666443D01*
X65272991Y37582778D01*
X65308729Y37553448D01*
X65410186Y37470186D01*
X65493448Y37368729D01*
X65522778Y37332991D01*
X65606443Y37176466D01*
X65657963Y37006627D01*
X65675359Y36830000D01*
X65657963Y36653373D01*
X65606443Y36483534D01*
X65522778Y36327009D01*
X65493448Y36291271D01*
X65410186Y36189814D01*
X65308729Y36106552D01*
X65272991Y36077222D01*
X65116466Y35993557D01*
X64946627Y35942037D01*
X64880442Y35935518D01*
X64814260Y35929000D01*
X64725740Y35929000D01*
X64659558Y35935518D01*
X64593373Y35942037D01*
X64423534Y35993557D01*
X64267009Y36077222D01*
X64231271Y36106552D01*
X64129814Y36189814D01*
X64046552Y36291271D01*
X64017222Y36327009D01*
X63933557Y36483534D01*
X63882037Y36653373D01*
X63864641Y36830000D01*
X63882037Y37006627D01*
X63933557Y37176466D01*
X64017222Y37332991D01*
X64046552Y37368729D01*
X64129814Y37470186D01*
X64231271Y37553448D01*
X64267009Y37582778D01*
X64423534Y37666443D01*
X64593373Y37717963D01*
X64659557Y37724481D01*
X64725740Y37731000D01*
X64814260Y37731000D01*
X64880443Y37724481D01*
X64880443Y37724481D01*
G37*
G36*
X64880442Y40264482D02*
G01*
X64946627Y40257963D01*
X65116466Y40206443D01*
X65272991Y40122778D01*
X65308729Y40093448D01*
X65410186Y40010186D01*
X65493448Y39908729D01*
X65522778Y39872991D01*
X65606443Y39716466D01*
X65657963Y39546627D01*
X65675359Y39370000D01*
X65657963Y39193373D01*
X65606443Y39023534D01*
X65522778Y38867009D01*
X65493448Y38831271D01*
X65410186Y38729814D01*
X65308729Y38646552D01*
X65272991Y38617222D01*
X65116466Y38533557D01*
X64946627Y38482037D01*
X64880442Y38475518D01*
X64814260Y38469000D01*
X64725740Y38469000D01*
X64659558Y38475518D01*
X64593373Y38482037D01*
X64423534Y38533557D01*
X64267009Y38617222D01*
X64231271Y38646552D01*
X64129814Y38729814D01*
X64046552Y38831271D01*
X64017222Y38867009D01*
X63933557Y39023534D01*
X63882037Y39193373D01*
X63864641Y39370000D01*
X63882037Y39546627D01*
X63933557Y39716466D01*
X64017222Y39872991D01*
X64046552Y39908729D01*
X64129814Y40010186D01*
X64231271Y40093448D01*
X64267009Y40122778D01*
X64423534Y40206443D01*
X64593373Y40257963D01*
X64659558Y40264482D01*
X64725740Y40271000D01*
X64814260Y40271000D01*
X64880442Y40264482D01*
X64880442Y40264482D01*
G37*
G36*
X64880442Y42804482D02*
G01*
X64946627Y42797963D01*
X65116466Y42746443D01*
X65272991Y42662778D01*
X65308729Y42633448D01*
X65410186Y42550186D01*
X65493448Y42448729D01*
X65522778Y42412991D01*
X65606443Y42256466D01*
X65657963Y42086627D01*
X65675359Y41910000D01*
X65657963Y41733373D01*
X65606443Y41563534D01*
X65522778Y41407009D01*
X65493448Y41371271D01*
X65410186Y41269814D01*
X65308729Y41186552D01*
X65272991Y41157222D01*
X65116466Y41073557D01*
X64946627Y41022037D01*
X64880442Y41015518D01*
X64814260Y41009000D01*
X64725740Y41009000D01*
X64659558Y41015518D01*
X64593373Y41022037D01*
X64423534Y41073557D01*
X64267009Y41157222D01*
X64231271Y41186552D01*
X64129814Y41269814D01*
X64046552Y41371271D01*
X64017222Y41407009D01*
X63933557Y41563534D01*
X63882037Y41733373D01*
X63864641Y41910000D01*
X63882037Y42086627D01*
X63933557Y42256466D01*
X64017222Y42412991D01*
X64046552Y42448729D01*
X64129814Y42550186D01*
X64231271Y42633448D01*
X64267009Y42662778D01*
X64423534Y42746443D01*
X64593373Y42797963D01*
X64659558Y42804482D01*
X64725740Y42811000D01*
X64814260Y42811000D01*
X64880442Y42804482D01*
X64880442Y42804482D01*
G37*
G36*
X64880443Y45344481D02*
G01*
X64946627Y45337963D01*
X65116466Y45286443D01*
X65272991Y45202778D01*
X65308729Y45173448D01*
X65410186Y45090186D01*
X65493448Y44988729D01*
X65522778Y44952991D01*
X65606443Y44796466D01*
X65657963Y44626627D01*
X65675359Y44450000D01*
X65657963Y44273373D01*
X65606443Y44103534D01*
X65522778Y43947009D01*
X65493448Y43911271D01*
X65410186Y43809814D01*
X65308729Y43726552D01*
X65272991Y43697222D01*
X65116466Y43613557D01*
X64946627Y43562037D01*
X64880443Y43555519D01*
X64814260Y43549000D01*
X64725740Y43549000D01*
X64659557Y43555519D01*
X64593373Y43562037D01*
X64423534Y43613557D01*
X64267009Y43697222D01*
X64231271Y43726552D01*
X64129814Y43809814D01*
X64046552Y43911271D01*
X64017222Y43947009D01*
X63933557Y44103534D01*
X63882037Y44273373D01*
X63864641Y44450000D01*
X63882037Y44626627D01*
X63933557Y44796466D01*
X64017222Y44952991D01*
X64046552Y44988729D01*
X64129814Y45090186D01*
X64231271Y45173448D01*
X64267009Y45202778D01*
X64423534Y45286443D01*
X64593373Y45337963D01*
X64659557Y45344481D01*
X64725740Y45351000D01*
X64814260Y45351000D01*
X64880443Y45344481D01*
X64880443Y45344481D01*
G37*
G36*
X66051000Y50519000D02*
G01*
X61949000Y50519000D01*
X61949000Y53621000D01*
X66051000Y53621000D01*
X66051000Y50519000D01*
X66051000Y50519000D01*
G37*
G36*
X66051000Y54964000D02*
G01*
X61949000Y54964000D01*
X61949000Y58066000D01*
X66051000Y58066000D01*
X66051000Y54964000D01*
X66051000Y54964000D01*
G37*
G36*
X23761000Y56249000D02*
G01*
X21959000Y56249000D01*
X21959000Y58051000D01*
X23761000Y58051000D01*
X23761000Y56249000D01*
X23761000Y56249000D01*
G37*
G36*
X22970443Y60584481D02*
G01*
X23036627Y60577963D01*
X23206466Y60526443D01*
X23362991Y60442778D01*
X23398729Y60413448D01*
X23500186Y60330186D01*
X23583448Y60228729D01*
X23612778Y60192991D01*
X23696443Y60036466D01*
X23747963Y59866627D01*
X23765359Y59690000D01*
X23747963Y59513373D01*
X23696443Y59343534D01*
X23612778Y59187009D01*
X23583448Y59151271D01*
X23500186Y59049814D01*
X23398729Y58966552D01*
X23362991Y58937222D01*
X23206466Y58853557D01*
X23036627Y58802037D01*
X22970443Y58795519D01*
X22904260Y58789000D01*
X22815740Y58789000D01*
X22749557Y58795519D01*
X22683373Y58802037D01*
X22513534Y58853557D01*
X22357009Y58937222D01*
X22321271Y58966552D01*
X22219814Y59049814D01*
X22136552Y59151271D01*
X22107222Y59187009D01*
X22023557Y59343534D01*
X21972037Y59513373D01*
X21954641Y59690000D01*
X21972037Y59866627D01*
X22023557Y60036466D01*
X22107222Y60192991D01*
X22136552Y60228729D01*
X22219814Y60330186D01*
X22321271Y60413448D01*
X22357009Y60442778D01*
X22513534Y60526443D01*
X22683373Y60577963D01*
X22749557Y60584481D01*
X22815740Y60591000D01*
X22904260Y60591000D01*
X22970443Y60584481D01*
X22970443Y60584481D01*
G37*
M02*
