G04 #@! TF.GenerationSoftware,KiCad,Pcbnew,(5.1.4)-1*
G04 #@! TF.CreationDate,2019-12-04T00:10:16+01:00*
G04 #@! TF.ProjectId,plan_b,706c616e-5f62-42e6-9b69-6361645f7063,rev?*
G04 #@! TF.SameCoordinates,PX7274898PY791ddc0*
G04 #@! TF.FileFunction,Legend,Top*
G04 #@! TF.FilePolarity,Positive*
%FSLAX46Y46*%
G04 Gerber Fmt 4.6, Leading zero omitted, Abs format (unit mm)*
G04 Created by KiCad (PCBNEW (5.1.4)-1) date 2019-12-04 00:10:16*
%MOMM*%
%LPD*%
G04 APERTURE LIST*
%ADD10C,0.120000*%
%ADD11C,0.175000*%
%ADD12C,0.125000*%
%ADD13C,0.500000*%
%ADD14C,0.010000*%
%ADD15C,0.150000*%
%ADD16C,0.400000*%
G04 APERTURE END LIST*
D10*
X57150000Y47625000D02*
X57150000Y46990000D01*
X57785000Y47625000D02*
X57150000Y47625000D01*
X66040000Y47625000D02*
X66040000Y46990000D01*
X65405000Y47625000D02*
X66040000Y47625000D01*
D11*
X58228333Y47172620D02*
X58228333Y48172620D01*
X58495000Y48172620D01*
X58561666Y48125000D01*
X58595000Y48077381D01*
X58628333Y47982143D01*
X58628333Y47839286D01*
X58595000Y47744048D01*
X58561666Y47696429D01*
X58495000Y47648810D01*
X58228333Y47648810D01*
X59328333Y47172620D02*
X59095000Y47648810D01*
X58928333Y47172620D02*
X58928333Y48172620D01*
X59195000Y48172620D01*
X59261666Y48125000D01*
X59295000Y48077381D01*
X59328333Y47982143D01*
X59328333Y47839286D01*
X59295000Y47744048D01*
X59261666Y47696429D01*
X59195000Y47648810D01*
X58928333Y47648810D01*
X59761666Y48172620D02*
X59895000Y48172620D01*
X59961666Y48125000D01*
X60028333Y48029762D01*
X60061666Y47839286D01*
X60061666Y47505953D01*
X60028333Y47315477D01*
X59961666Y47220239D01*
X59895000Y47172620D01*
X59761666Y47172620D01*
X59695000Y47220239D01*
X59628333Y47315477D01*
X59595000Y47505953D01*
X59595000Y47839286D01*
X59628333Y48029762D01*
X59695000Y48125000D01*
X59761666Y48172620D01*
X60728333Y48125000D02*
X60661666Y48172620D01*
X60561666Y48172620D01*
X60461666Y48125000D01*
X60395000Y48029762D01*
X60361666Y47934524D01*
X60328333Y47744048D01*
X60328333Y47601191D01*
X60361666Y47410715D01*
X60395000Y47315477D01*
X60461666Y47220239D01*
X60561666Y47172620D01*
X60628333Y47172620D01*
X60728333Y47220239D01*
X60761666Y47267858D01*
X60761666Y47601191D01*
X60628333Y47601191D01*
X61461666Y47172620D02*
X61228333Y47648810D01*
X61061666Y47172620D02*
X61061666Y48172620D01*
X61328333Y48172620D01*
X61395000Y48125000D01*
X61428333Y48077381D01*
X61461666Y47982143D01*
X61461666Y47839286D01*
X61428333Y47744048D01*
X61395000Y47696429D01*
X61328333Y47648810D01*
X61061666Y47648810D01*
X61728333Y47458334D02*
X62061666Y47458334D01*
X61661666Y47172620D02*
X61895000Y48172620D01*
X62128333Y47172620D01*
X62361666Y47172620D02*
X62361666Y48172620D01*
X62595000Y47458334D01*
X62828333Y48172620D01*
X62828333Y47172620D01*
X63161666Y47172620D02*
X63161666Y48172620D01*
X63395000Y47458334D01*
X63628333Y48172620D01*
X63628333Y47172620D01*
X63961666Y47696429D02*
X64195000Y47696429D01*
X64295000Y47172620D02*
X63961666Y47172620D01*
X63961666Y48172620D01*
X64295000Y48172620D01*
X64995000Y47172620D02*
X64761666Y47648810D01*
X64595000Y47172620D02*
X64595000Y48172620D01*
X64861666Y48172620D01*
X64928333Y48125000D01*
X64961666Y48077381D01*
X64995000Y47982143D01*
X64995000Y47839286D01*
X64961666Y47744048D01*
X64928333Y47696429D01*
X64861666Y47648810D01*
X64595000Y47648810D01*
X34549250Y4659286D02*
X34815916Y4659286D01*
X34649250Y3992620D02*
X34649250Y4849762D01*
X34682583Y4945000D01*
X34749250Y4992620D01*
X34815916Y4992620D01*
X35049250Y3992620D02*
X35049250Y4659286D01*
X35049250Y4468810D02*
X35082583Y4564048D01*
X35115916Y4611667D01*
X35182583Y4659286D01*
X35249250Y4659286D01*
X35582583Y3992620D02*
X35515916Y4040239D01*
X35482583Y4087858D01*
X35449250Y4183096D01*
X35449250Y4468810D01*
X35482583Y4564048D01*
X35515916Y4611667D01*
X35582583Y4659286D01*
X35682583Y4659286D01*
X35749250Y4611667D01*
X35782583Y4564048D01*
X35815916Y4468810D01*
X35815916Y4183096D01*
X35782583Y4087858D01*
X35749250Y4040239D01*
X35682583Y3992620D01*
X35582583Y3992620D01*
X36115916Y3992620D02*
X36115916Y4659286D01*
X36115916Y4564048D02*
X36149250Y4611667D01*
X36215916Y4659286D01*
X36315916Y4659286D01*
X36382583Y4611667D01*
X36415916Y4516429D01*
X36415916Y3992620D01*
X36415916Y4516429D02*
X36449250Y4611667D01*
X36515916Y4659286D01*
X36615916Y4659286D01*
X36682583Y4611667D01*
X36715916Y4516429D01*
X36715916Y3992620D01*
X37782583Y4992620D02*
X37782583Y4278334D01*
X37749250Y4135477D01*
X37682583Y4040239D01*
X37582583Y3992620D01*
X37515916Y3992620D01*
X38215916Y3992620D02*
X38149250Y4040239D01*
X38115916Y4087858D01*
X38082583Y4183096D01*
X38082583Y4468810D01*
X38115916Y4564048D01*
X38149250Y4611667D01*
X38215916Y4659286D01*
X38315916Y4659286D01*
X38382583Y4611667D01*
X38415916Y4564048D01*
X38449250Y4468810D01*
X38449250Y4183096D01*
X38415916Y4087858D01*
X38382583Y4040239D01*
X38315916Y3992620D01*
X38215916Y3992620D01*
X38749250Y3992620D02*
X38749250Y4659286D01*
X38749250Y4468810D02*
X38782583Y4564048D01*
X38815916Y4611667D01*
X38882583Y4659286D01*
X38949250Y4659286D01*
X39482583Y3992620D02*
X39482583Y4992620D01*
X39482583Y4040239D02*
X39415916Y3992620D01*
X39282583Y3992620D01*
X39215916Y4040239D01*
X39182583Y4087858D01*
X39149250Y4183096D01*
X39149250Y4468810D01*
X39182583Y4564048D01*
X39215916Y4611667D01*
X39282583Y4659286D01*
X39415916Y4659286D01*
X39482583Y4611667D01*
X40115916Y3992620D02*
X40115916Y4516429D01*
X40082583Y4611667D01*
X40015916Y4659286D01*
X39882583Y4659286D01*
X39815916Y4611667D01*
X40115916Y4040239D02*
X40049250Y3992620D01*
X39882583Y3992620D01*
X39815916Y4040239D01*
X39782583Y4135477D01*
X39782583Y4230715D01*
X39815916Y4325953D01*
X39882583Y4373572D01*
X40049250Y4373572D01*
X40115916Y4421191D01*
X40449250Y4659286D02*
X40449250Y3992620D01*
X40449250Y4564048D02*
X40482583Y4611667D01*
X40549250Y4659286D01*
X40649250Y4659286D01*
X40715916Y4611667D01*
X40749250Y4516429D01*
X40749250Y3992620D01*
X42182583Y3992620D02*
X42149250Y3992620D01*
X42082583Y4040239D01*
X41982583Y4183096D01*
X41815916Y4468810D01*
X41749250Y4611667D01*
X41715916Y4754524D01*
X41715916Y4849762D01*
X41749250Y4945000D01*
X41815916Y4992620D01*
X41849250Y4992620D01*
X41915916Y4945000D01*
X41949250Y4849762D01*
X41949250Y4802143D01*
X41915916Y4706905D01*
X41882583Y4659286D01*
X41682583Y4468810D01*
X41649250Y4421191D01*
X41615916Y4325953D01*
X41615916Y4183096D01*
X41649250Y4087858D01*
X41682583Y4040239D01*
X41749250Y3992620D01*
X41849250Y3992620D01*
X41915916Y4040239D01*
X41949250Y4087858D01*
X42049250Y4278334D01*
X42082583Y4421191D01*
X42082583Y4516429D01*
X43349250Y3992620D02*
X43015916Y3992620D01*
X43015916Y4992620D01*
X43582583Y3992620D02*
X43582583Y4659286D01*
X43582583Y4992620D02*
X43549250Y4945000D01*
X43582583Y4897381D01*
X43615916Y4945000D01*
X43582583Y4992620D01*
X43582583Y4897381D01*
X43915916Y4659286D02*
X43915916Y3992620D01*
X43915916Y4564048D02*
X43949250Y4611667D01*
X44015916Y4659286D01*
X44115916Y4659286D01*
X44182583Y4611667D01*
X44215916Y4516429D01*
X44215916Y3992620D01*
X44849250Y3992620D02*
X44849250Y4992620D01*
X44849250Y4040239D02*
X44782583Y3992620D01*
X44649250Y3992620D01*
X44582583Y4040239D01*
X44549250Y4087858D01*
X44515916Y4183096D01*
X44515916Y4468810D01*
X44549250Y4564048D01*
X44582583Y4611667D01*
X44649250Y4659286D01*
X44782583Y4659286D01*
X44849250Y4611667D01*
X45149250Y4040239D02*
X45215916Y3992620D01*
X45349250Y3992620D01*
X45415916Y4040239D01*
X45449250Y4135477D01*
X45449250Y4183096D01*
X45415916Y4278334D01*
X45349250Y4325953D01*
X45249250Y4325953D01*
X45182583Y4373572D01*
X45149250Y4468810D01*
X45149250Y4516429D01*
X45182583Y4611667D01*
X45249250Y4659286D01*
X45349250Y4659286D01*
X45415916Y4611667D01*
X46049250Y3992620D02*
X46049250Y4516429D01*
X46015916Y4611667D01*
X45949250Y4659286D01*
X45815916Y4659286D01*
X45749250Y4611667D01*
X46049250Y4040239D02*
X45982583Y3992620D01*
X45815916Y3992620D01*
X45749250Y4040239D01*
X45715916Y4135477D01*
X45715916Y4230715D01*
X45749250Y4325953D01*
X45815916Y4373572D01*
X45982583Y4373572D01*
X46049250Y4421191D01*
X46315916Y4659286D02*
X46482583Y3992620D01*
X46649250Y4659286D02*
X46482583Y3992620D01*
X46415916Y3754524D01*
X46382583Y3706905D01*
X46315916Y3659286D01*
D10*
X32385000Y51435000D02*
X32385000Y50800000D01*
X34290000Y51435000D02*
X32385000Y51435000D01*
X43180000Y51435000D02*
X43180000Y50800000D01*
X41910000Y51435000D02*
X43180000Y51435000D01*
D11*
X35133333Y51935000D02*
X35066666Y51982620D01*
X34966666Y51982620D01*
X34866666Y51935000D01*
X34800000Y51839762D01*
X34766666Y51744524D01*
X34733333Y51554048D01*
X34733333Y51411191D01*
X34766666Y51220715D01*
X34800000Y51125477D01*
X34866666Y51030239D01*
X34966666Y50982620D01*
X35033333Y50982620D01*
X35133333Y51030239D01*
X35166666Y51077858D01*
X35166666Y51411191D01*
X35033333Y51411191D01*
X35466666Y50982620D02*
X35466666Y51982620D01*
X36033333Y51506429D02*
X35800000Y51506429D01*
X35800000Y50982620D02*
X35800000Y51982620D01*
X36133333Y51982620D01*
X36300000Y51982620D02*
X36700000Y51982620D01*
X36500000Y50982620D02*
X36500000Y51982620D01*
X37466666Y50982620D02*
X37466666Y51982620D01*
X37866666Y50982620D01*
X37866666Y51982620D01*
X38200000Y51982620D02*
X38200000Y51173096D01*
X38233333Y51077858D01*
X38266666Y51030239D01*
X38333333Y50982620D01*
X38466666Y50982620D01*
X38533333Y51030239D01*
X38566666Y51077858D01*
X38600000Y51173096D01*
X38600000Y51982620D01*
X38933333Y50982620D02*
X38933333Y51982620D01*
X39166666Y51268334D01*
X39400000Y51982620D01*
X39400000Y50982620D01*
X39966666Y51506429D02*
X40066666Y51458810D01*
X40100000Y51411191D01*
X40133333Y51315953D01*
X40133333Y51173096D01*
X40100000Y51077858D01*
X40066666Y51030239D01*
X40000000Y50982620D01*
X39733333Y50982620D01*
X39733333Y51982620D01*
X39966666Y51982620D01*
X40033333Y51935000D01*
X40066666Y51887381D01*
X40100000Y51792143D01*
X40100000Y51696905D01*
X40066666Y51601667D01*
X40033333Y51554048D01*
X39966666Y51506429D01*
X39733333Y51506429D01*
X40433333Y51506429D02*
X40666666Y51506429D01*
X40766666Y50982620D02*
X40433333Y50982620D01*
X40433333Y51982620D01*
X40766666Y51982620D01*
X41466666Y50982620D02*
X41233333Y51458810D01*
X41066666Y50982620D02*
X41066666Y51982620D01*
X41333333Y51982620D01*
X41400000Y51935000D01*
X41433333Y51887381D01*
X41466666Y51792143D01*
X41466666Y51649286D01*
X41433333Y51554048D01*
X41400000Y51506429D01*
X41333333Y51458810D01*
X41066666Y51458810D01*
D12*
X48815952Y47260834D02*
X48815952Y47960834D01*
X48935000Y47960834D01*
X49006428Y47927500D01*
X49054047Y47860834D01*
X49077857Y47794167D01*
X49101666Y47660834D01*
X49101666Y47560834D01*
X49077857Y47427500D01*
X49054047Y47360834D01*
X49006428Y47294167D01*
X48935000Y47260834D01*
X48815952Y47260834D01*
X49411190Y47960834D02*
X49506428Y47960834D01*
X49554047Y47927500D01*
X49601666Y47860834D01*
X49625476Y47727500D01*
X49625476Y47494167D01*
X49601666Y47360834D01*
X49554047Y47294167D01*
X49506428Y47260834D01*
X49411190Y47260834D01*
X49363571Y47294167D01*
X49315952Y47360834D01*
X49292142Y47494167D01*
X49292142Y47727500D01*
X49315952Y47860834D01*
X49363571Y47927500D01*
X49411190Y47960834D01*
X49839761Y47260834D02*
X49839761Y47960834D01*
X50125476Y47260834D01*
X50125476Y47960834D01*
X50387380Y47960834D02*
X50339761Y47827500D01*
X50530238Y47960834D02*
X50815952Y47960834D01*
X50673095Y47260834D02*
X50673095Y47960834D01*
X51649285Y47327500D02*
X51625476Y47294167D01*
X51554047Y47260834D01*
X51506428Y47260834D01*
X51435000Y47294167D01*
X51387380Y47360834D01*
X51363571Y47427500D01*
X51339761Y47560834D01*
X51339761Y47660834D01*
X51363571Y47794167D01*
X51387380Y47860834D01*
X51435000Y47927500D01*
X51506428Y47960834D01*
X51554047Y47960834D01*
X51625476Y47927500D01*
X51649285Y47894167D01*
X51863571Y47260834D02*
X51863571Y47960834D01*
X51863571Y47627500D02*
X52149285Y47627500D01*
X52149285Y47260834D02*
X52149285Y47960834D01*
X52363571Y47460834D02*
X52601666Y47460834D01*
X52315952Y47260834D02*
X52482619Y47960834D01*
X52649285Y47260834D01*
X52815952Y47260834D02*
X52815952Y47960834D01*
X53101666Y47260834D01*
X53101666Y47960834D01*
X53601666Y47927500D02*
X53554047Y47960834D01*
X53482619Y47960834D01*
X53411190Y47927500D01*
X53363571Y47860834D01*
X53339761Y47794167D01*
X53315952Y47660834D01*
X53315952Y47560834D01*
X53339761Y47427500D01*
X53363571Y47360834D01*
X53411190Y47294167D01*
X53482619Y47260834D01*
X53530238Y47260834D01*
X53601666Y47294167D01*
X53625476Y47327500D01*
X53625476Y47560834D01*
X53530238Y47560834D01*
X53839761Y47627500D02*
X54006428Y47627500D01*
X54077857Y47260834D02*
X53839761Y47260834D01*
X53839761Y47960834D01*
X54077857Y47960834D01*
X48446904Y46785834D02*
X48732619Y46785834D01*
X48589761Y46085834D02*
X48589761Y46785834D01*
X48899285Y46085834D02*
X48899285Y46785834D01*
X48899285Y46452500D02*
X49185000Y46452500D01*
X49185000Y46085834D02*
X49185000Y46785834D01*
X49423095Y46452500D02*
X49589761Y46452500D01*
X49661190Y46085834D02*
X49423095Y46085834D01*
X49423095Y46785834D01*
X49661190Y46785834D01*
X49851666Y46119167D02*
X49923095Y46085834D01*
X50042142Y46085834D01*
X50089761Y46119167D01*
X50113571Y46152500D01*
X50137380Y46219167D01*
X50137380Y46285834D01*
X50113571Y46352500D01*
X50089761Y46385834D01*
X50042142Y46419167D01*
X49946904Y46452500D01*
X49899285Y46485834D01*
X49875476Y46519167D01*
X49851666Y46585834D01*
X49851666Y46652500D01*
X49875476Y46719167D01*
X49899285Y46752500D01*
X49946904Y46785834D01*
X50065952Y46785834D01*
X50137380Y46752500D01*
X50351666Y46452500D02*
X50518333Y46452500D01*
X50589761Y46085834D02*
X50351666Y46085834D01*
X50351666Y46785834D01*
X50589761Y46785834D01*
X51327857Y46785834D02*
X51327857Y46285834D01*
X51304047Y46185834D01*
X51256428Y46119167D01*
X51185000Y46085834D01*
X51137380Y46085834D01*
X51565952Y46785834D02*
X51565952Y46219167D01*
X51589761Y46152500D01*
X51613571Y46119167D01*
X51661190Y46085834D01*
X51756428Y46085834D01*
X51804047Y46119167D01*
X51827857Y46152500D01*
X51851666Y46219167D01*
X51851666Y46785834D01*
X52089761Y46085834D02*
X52089761Y46785834D01*
X52256428Y46285834D01*
X52423095Y46785834D01*
X52423095Y46085834D01*
X52661190Y46085834D02*
X52661190Y46785834D01*
X52851666Y46785834D01*
X52899285Y46752500D01*
X52923095Y46719167D01*
X52946904Y46652500D01*
X52946904Y46552500D01*
X52923095Y46485834D01*
X52899285Y46452500D01*
X52851666Y46419167D01*
X52661190Y46419167D01*
X53161190Y46452500D02*
X53327857Y46452500D01*
X53399285Y46085834D02*
X53161190Y46085834D01*
X53161190Y46785834D01*
X53399285Y46785834D01*
X53899285Y46085834D02*
X53732619Y46419167D01*
X53613571Y46085834D02*
X53613571Y46785834D01*
X53804047Y46785834D01*
X53851666Y46752500D01*
X53875476Y46719167D01*
X53899285Y46652500D01*
X53899285Y46552500D01*
X53875476Y46485834D01*
X53851666Y46452500D01*
X53804047Y46419167D01*
X53613571Y46419167D01*
X54089761Y46119167D02*
X54161190Y46085834D01*
X54280238Y46085834D01*
X54327857Y46119167D01*
X54351666Y46152500D01*
X54375476Y46219167D01*
X54375476Y46285834D01*
X54351666Y46352500D01*
X54327857Y46385834D01*
X54280238Y46419167D01*
X54185000Y46452500D01*
X54137380Y46485834D01*
X54113571Y46519167D01*
X54089761Y46585834D01*
X54089761Y46652500D01*
X54113571Y46719167D01*
X54137380Y46752500D01*
X54185000Y46785834D01*
X54304047Y46785834D01*
X54375476Y46752500D01*
D11*
X67255416Y54189286D02*
X67255416Y53522620D01*
X67088750Y54570239D02*
X66922083Y53855953D01*
X67355416Y53855953D01*
X67655416Y53570239D02*
X67655416Y53522620D01*
X67622083Y53427381D01*
X67588750Y53379762D01*
X68288750Y54522620D02*
X67955416Y54522620D01*
X67922083Y54046429D01*
X67955416Y54094048D01*
X68022083Y54141667D01*
X68188750Y54141667D01*
X68255416Y54094048D01*
X68288750Y54046429D01*
X68322083Y53951191D01*
X68322083Y53713096D01*
X68288750Y53617858D01*
X68255416Y53570239D01*
X68188750Y53522620D01*
X68022083Y53522620D01*
X67955416Y53570239D01*
X67922083Y53617858D01*
X68522083Y54522620D02*
X68755416Y53522620D01*
X68988750Y54522620D01*
D13*
X67222190Y51927143D02*
X68746000Y51927143D01*
X67222190Y56372143D02*
X68746000Y56372143D01*
X67984095Y55610239D02*
X67984095Y57134048D01*
D10*
X67945000Y17780000D02*
X66675000Y17780000D01*
X67945000Y19050000D02*
X67945000Y17780000D01*
X67945000Y22860000D02*
X67945000Y21590000D01*
X66675000Y22860000D02*
X67945000Y22860000D01*
X69850000Y17145000D02*
X68580000Y19050000D01*
X69850000Y23495000D02*
X69850000Y17145000D01*
X68580000Y21590000D02*
X69850000Y23495000D01*
X68580000Y21590000D02*
X67310000Y21590000D01*
X68580000Y19050000D02*
X68580000Y21590000D01*
X67310000Y19050000D02*
X68580000Y19050000D01*
X67310000Y21590000D02*
X67310000Y19050000D01*
D11*
X66855416Y44997620D02*
X67088750Y43997620D01*
X67322083Y44997620D01*
X67955416Y44092858D02*
X67922083Y44045239D01*
X67822083Y43997620D01*
X67755416Y43997620D01*
X67655416Y44045239D01*
X67588750Y44140477D01*
X67555416Y44235715D01*
X67522083Y44426191D01*
X67522083Y44569048D01*
X67555416Y44759524D01*
X67588750Y44854762D01*
X67655416Y44950000D01*
X67755416Y44997620D01*
X67822083Y44997620D01*
X67922083Y44950000D01*
X67955416Y44902381D01*
X68655416Y44092858D02*
X68622083Y44045239D01*
X68522083Y43997620D01*
X68455416Y43997620D01*
X68355416Y44045239D01*
X68288750Y44140477D01*
X68255416Y44235715D01*
X68222083Y44426191D01*
X68222083Y44569048D01*
X68255416Y44759524D01*
X68288750Y44854762D01*
X68355416Y44950000D01*
X68455416Y44997620D01*
X68522083Y44997620D01*
X68622083Y44950000D01*
X68655416Y44902381D01*
X66788750Y42857500D02*
X67488750Y42857500D01*
X67355416Y41457620D02*
X67122083Y41933810D01*
X66955416Y41457620D02*
X66955416Y42457620D01*
X67222083Y42457620D01*
X67288750Y42410000D01*
X67322083Y42362381D01*
X67355416Y42267143D01*
X67355416Y42124286D01*
X67322083Y42029048D01*
X67288750Y41981429D01*
X67222083Y41933810D01*
X66955416Y41933810D01*
X67488750Y42857500D02*
X68155416Y42857500D01*
X67622083Y41505239D02*
X67722083Y41457620D01*
X67888750Y41457620D01*
X67955416Y41505239D01*
X67988750Y41552858D01*
X68022083Y41648096D01*
X68022083Y41743334D01*
X67988750Y41838572D01*
X67955416Y41886191D01*
X67888750Y41933810D01*
X67755416Y41981429D01*
X67688750Y42029048D01*
X67655416Y42076667D01*
X67622083Y42171905D01*
X67622083Y42267143D01*
X67655416Y42362381D01*
X67688750Y42410000D01*
X67755416Y42457620D01*
X67922083Y42457620D01*
X68022083Y42410000D01*
X68155416Y42857500D02*
X68688750Y42857500D01*
X68222083Y42457620D02*
X68622083Y42457620D01*
X68422083Y41457620D02*
X68422083Y42457620D01*
X66922083Y38965239D02*
X67022083Y38917620D01*
X67188750Y38917620D01*
X67255416Y38965239D01*
X67288750Y39012858D01*
X67322083Y39108096D01*
X67322083Y39203334D01*
X67288750Y39298572D01*
X67255416Y39346191D01*
X67188750Y39393810D01*
X67055416Y39441429D01*
X66988750Y39489048D01*
X66955416Y39536667D01*
X66922083Y39631905D01*
X66922083Y39727143D01*
X66955416Y39822381D01*
X66988750Y39870000D01*
X67055416Y39917620D01*
X67222083Y39917620D01*
X67322083Y39870000D01*
X68022083Y39012858D02*
X67988750Y38965239D01*
X67888750Y38917620D01*
X67822083Y38917620D01*
X67722083Y38965239D01*
X67655416Y39060477D01*
X67622083Y39155715D01*
X67588750Y39346191D01*
X67588750Y39489048D01*
X67622083Y39679524D01*
X67655416Y39774762D01*
X67722083Y39870000D01*
X67822083Y39917620D01*
X67888750Y39917620D01*
X67988750Y39870000D01*
X68022083Y39822381D01*
X68322083Y38917620D02*
X68322083Y39917620D01*
X68722083Y38917620D02*
X68422083Y39489048D01*
X68722083Y39917620D02*
X68322083Y39346191D01*
X66955416Y36377620D02*
X66955416Y37377620D01*
X67188750Y36663334D01*
X67422083Y37377620D01*
X67422083Y36377620D01*
X67755416Y36377620D02*
X67755416Y37377620D01*
X68055416Y36425239D02*
X68155416Y36377620D01*
X68322083Y36377620D01*
X68388750Y36425239D01*
X68422083Y36472858D01*
X68455416Y36568096D01*
X68455416Y36663334D01*
X68422083Y36758572D01*
X68388750Y36806191D01*
X68322083Y36853810D01*
X68188750Y36901429D01*
X68122083Y36949048D01*
X68088750Y36996667D01*
X68055416Y37091905D01*
X68055416Y37187143D01*
X68088750Y37282381D01*
X68122083Y37330000D01*
X68188750Y37377620D01*
X68355416Y37377620D01*
X68455416Y37330000D01*
X68888750Y37377620D02*
X69022083Y37377620D01*
X69088750Y37330000D01*
X69155416Y37234762D01*
X69188750Y37044286D01*
X69188750Y36710953D01*
X69155416Y36520477D01*
X69088750Y36425239D01*
X69022083Y36377620D01*
X68888750Y36377620D01*
X68822083Y36425239D01*
X68755416Y36520477D01*
X68722083Y36710953D01*
X68722083Y37044286D01*
X68755416Y37234762D01*
X68822083Y37330000D01*
X68888750Y37377620D01*
X66955416Y33837620D02*
X66955416Y34837620D01*
X67188750Y34123334D01*
X67422083Y34837620D01*
X67422083Y33837620D01*
X67888750Y34837620D02*
X68022083Y34837620D01*
X68088750Y34790000D01*
X68155416Y34694762D01*
X68188750Y34504286D01*
X68188750Y34170953D01*
X68155416Y33980477D01*
X68088750Y33885239D01*
X68022083Y33837620D01*
X67888750Y33837620D01*
X67822083Y33885239D01*
X67755416Y33980477D01*
X67722083Y34170953D01*
X67722083Y34504286D01*
X67755416Y34694762D01*
X67822083Y34790000D01*
X67888750Y34837620D01*
X68455416Y33885239D02*
X68555416Y33837620D01*
X68722083Y33837620D01*
X68788750Y33885239D01*
X68822083Y33932858D01*
X68855416Y34028096D01*
X68855416Y34123334D01*
X68822083Y34218572D01*
X68788750Y34266191D01*
X68722083Y34313810D01*
X68588750Y34361429D01*
X68522083Y34409048D01*
X68488750Y34456667D01*
X68455416Y34551905D01*
X68455416Y34647143D01*
X68488750Y34742381D01*
X68522083Y34790000D01*
X68588750Y34837620D01*
X68755416Y34837620D01*
X68855416Y34790000D01*
X69155416Y33837620D02*
X69155416Y34837620D01*
X67322083Y32250000D02*
X67255416Y32297620D01*
X67155416Y32297620D01*
X67055416Y32250000D01*
X66988750Y32154762D01*
X66955416Y32059524D01*
X66922083Y31869048D01*
X66922083Y31726191D01*
X66955416Y31535715D01*
X66988750Y31440477D01*
X67055416Y31345239D01*
X67155416Y31297620D01*
X67222083Y31297620D01*
X67322083Y31345239D01*
X67355416Y31392858D01*
X67355416Y31726191D01*
X67222083Y31726191D01*
X67655416Y31297620D02*
X67655416Y32297620D01*
X68055416Y31297620D01*
X68055416Y32297620D01*
X68388750Y31297620D02*
X68388750Y32297620D01*
X68555416Y32297620D01*
X68655416Y32250000D01*
X68722083Y32154762D01*
X68755416Y32059524D01*
X68788750Y31869048D01*
X68788750Y31726191D01*
X68755416Y31535715D01*
X68722083Y31440477D01*
X68655416Y31345239D01*
X68555416Y31297620D01*
X68388750Y31297620D01*
D10*
X10285000Y48732221D02*
X10285000Y49057779D01*
X11305000Y48732221D02*
X11305000Y49057779D01*
D14*
G36*
X63048607Y12205556D02*
G01*
X63087926Y12114598D01*
X63110826Y11954523D01*
X63118939Y11718392D01*
X63119000Y11691284D01*
X63119000Y11412817D01*
X63283898Y11573836D01*
X63396722Y11671930D01*
X63479827Y11711027D01*
X63537898Y11706575D01*
X63608970Y11655144D01*
X63627000Y11605869D01*
X63620984Y11563907D01*
X63597515Y11509788D01*
X63548459Y11430752D01*
X63465684Y11314038D01*
X63341057Y11146885D01*
X63298917Y11091107D01*
X63161333Y10909297D01*
X63161333Y9588992D01*
X64063925Y10491584D01*
X64083525Y10844375D01*
X64100429Y11062479D01*
X64125866Y11208778D01*
X64164976Y11296069D01*
X64222893Y11337145D01*
X64284656Y11345333D01*
X64341907Y11339957D01*
X64373152Y11310752D01*
X64386232Y11238108D01*
X64388990Y11102411D01*
X64389000Y11084388D01*
X64389000Y10823443D01*
X64681217Y11105555D01*
X64814623Y11227740D01*
X64931942Y11323260D01*
X65016227Y11378880D01*
X65042379Y11387667D01*
X65119004Y11365892D01*
X65129554Y11299419D01*
X65073438Y11186530D01*
X64950066Y11025504D01*
X64897118Y10964467D01*
X64634280Y10668000D01*
X64868621Y10668000D01*
X65006536Y10663618D01*
X65083036Y10645109D01*
X65121154Y10604432D01*
X65132168Y10575976D01*
X65137267Y10494956D01*
X65087384Y10435782D01*
X64973726Y10393949D01*
X64787500Y10364952D01*
X64704850Y10357112D01*
X64539750Y10338999D01*
X64401530Y10316352D01*
X64317422Y10293736D01*
X64312398Y10291316D01*
X64258561Y10247373D01*
X64160203Y10153173D01*
X64029748Y10021115D01*
X63879622Y9863597D01*
X63824152Y9804121D01*
X63408294Y9355667D01*
X64625103Y9355667D01*
X64913900Y9612027D01*
X65068242Y9742722D01*
X65179991Y9820222D01*
X65263979Y9853550D01*
X65314070Y9855444D01*
X65411982Y9819020D01*
X65437344Y9744070D01*
X65390425Y9635257D01*
X65294583Y9520306D01*
X65133817Y9355667D01*
X65545904Y9355667D01*
X65743254Y9353216D01*
X65871179Y9344332D01*
X65944819Y9326720D01*
X65979315Y9298083D01*
X65983450Y9289321D01*
X65991560Y9226197D01*
X65952592Y9180764D01*
X65856092Y9148737D01*
X65691605Y9125830D01*
X65557765Y9114809D01*
X65188746Y9088767D01*
X65339206Y8934682D01*
X65441726Y8819831D01*
X65482894Y8740119D01*
X65467878Y8678305D01*
X65428198Y8637686D01*
X65366472Y8606975D01*
X65290305Y8616413D01*
X65186648Y8671815D01*
X65042447Y8778994D01*
X64960256Y8846163D01*
X64706500Y9057184D01*
X64029413Y9058259D01*
X63352325Y9059333D01*
X63800362Y8611297D01*
X64248399Y8163260D01*
X64604450Y8139995D01*
X64822984Y8121204D01*
X64969760Y8095162D01*
X65057662Y8056656D01*
X65099575Y8000476D01*
X65108667Y7936011D01*
X65103290Y7878760D01*
X65074085Y7847515D01*
X65001441Y7834435D01*
X64865744Y7831677D01*
X64847721Y7831667D01*
X64586776Y7831667D01*
X64868888Y7539450D01*
X64991073Y7406044D01*
X65086593Y7288725D01*
X65142213Y7204440D01*
X65151000Y7178288D01*
X65129068Y7101556D01*
X65062206Y7091208D01*
X64948815Y7147788D01*
X64787295Y7271841D01*
X64730093Y7321516D01*
X64435919Y7582320D01*
X64423043Y7362104D01*
X64402419Y7206079D01*
X64359702Y7116830D01*
X64333604Y7095194D01*
X64257753Y7077976D01*
X64198534Y7132379D01*
X64153975Y7262289D01*
X64122103Y7471593D01*
X64117233Y7521609D01*
X64098252Y7687459D01*
X64075248Y7826188D01*
X64052777Y7911028D01*
X64049884Y7917174D01*
X64005815Y7971033D01*
X63911737Y8068804D01*
X63780483Y8197660D01*
X63624886Y8344774D01*
X63586646Y8380175D01*
X63161333Y8772313D01*
X63161333Y7541007D01*
X63393631Y7252420D01*
X63523065Y7083224D01*
X63597233Y6961236D01*
X63620723Y6873782D01*
X63598122Y6808187D01*
X63566206Y6775579D01*
X63479440Y6750951D01*
X63370181Y6804349D01*
X63236254Y6936867D01*
X63229399Y6944961D01*
X63119000Y7076163D01*
X63119000Y6781873D01*
X63112764Y6535555D01*
X63092911Y6365540D01*
X63057721Y6264304D01*
X63005472Y6224323D01*
X62991237Y6223000D01*
X62913967Y6256165D01*
X62890696Y6289963D01*
X62878939Y6361304D01*
X62870009Y6492989D01*
X62865353Y6660707D01*
X62865000Y6721887D01*
X62865000Y7086850D01*
X62700360Y6926084D01*
X62566426Y6818127D01*
X62462604Y6782474D01*
X62393378Y6819370D01*
X62365115Y6907712D01*
X62372213Y6980432D01*
X62416076Y7068279D01*
X62506109Y7186533D01*
X62608532Y7303202D01*
X62865000Y7586204D01*
X62865000Y8812014D01*
X62402116Y8380789D01*
X62237845Y8225381D01*
X62096177Y8086873D01*
X61988685Y7976926D01*
X61926941Y7907204D01*
X61917183Y7892105D01*
X61902830Y7823902D01*
X61885352Y7697085D01*
X61868241Y7537448D01*
X61866239Y7515777D01*
X61836475Y7292049D01*
X61793978Y7148624D01*
X61736865Y7081838D01*
X61663257Y7088027D01*
X61650396Y7095194D01*
X61596464Y7161493D01*
X61567145Y7288105D01*
X61560996Y7360976D01*
X61548159Y7580065D01*
X61255364Y7319844D01*
X61092007Y7183865D01*
X60971866Y7103796D01*
X60900853Y7083527D01*
X60897784Y7084483D01*
X60845660Y7123263D01*
X60844085Y7186659D01*
X60896975Y7282848D01*
X61008249Y7420010D01*
X61113294Y7534540D01*
X61393589Y7831667D01*
X61134461Y7831667D01*
X60991904Y7833852D01*
X60914318Y7845690D01*
X60882026Y7875104D01*
X60875350Y7930018D01*
X60875333Y7936011D01*
X60889169Y8012229D01*
X60939207Y8065619D01*
X61038242Y8101318D01*
X61199069Y8124463D01*
X61376291Y8137142D01*
X61729083Y8156742D01*
X62180378Y8608038D01*
X62631674Y9059333D01*
X61311254Y9059333D01*
X61146210Y8932590D01*
X60952768Y8786384D01*
X60813092Y8687750D01*
X60715725Y8630276D01*
X60649210Y8607549D01*
X60602091Y8613156D01*
X60588435Y8620388D01*
X60522402Y8679609D01*
X60515778Y8748451D01*
X60571297Y8843129D01*
X60639512Y8923452D01*
X60789786Y9089787D01*
X60426359Y9112461D01*
X60214874Y9131240D01*
X60078313Y9158775D01*
X60007066Y9199058D01*
X59991526Y9256079D01*
X60000550Y9289321D01*
X60028063Y9321072D01*
X60091288Y9341147D01*
X60205423Y9351870D01*
X60385663Y9355566D01*
X60434431Y9355667D01*
X60842852Y9355667D01*
X60687220Y9527933D01*
X60581462Y9667794D01*
X60550678Y9769917D01*
X60594889Y9833757D01*
X60675351Y9855967D01*
X60751066Y9850019D01*
X60838386Y9808038D01*
X60954343Y9719969D01*
X61054155Y9632327D01*
X61186301Y9519339D01*
X61304708Y9429707D01*
X61388517Y9378906D01*
X61402666Y9373815D01*
X61476776Y9366571D01*
X61616065Y9362376D01*
X61801087Y9361513D01*
X62012399Y9364269D01*
X62028371Y9364621D01*
X62567575Y9376833D01*
X62113037Y9854105D01*
X61658500Y10331376D01*
X61341000Y10357651D01*
X61117716Y10380660D01*
X60967731Y10408973D01*
X60879680Y10446998D01*
X60842200Y10499139D01*
X60840648Y10551652D01*
X60859096Y10607164D01*
X60908550Y10639884D01*
X61010043Y10659406D01*
X61095741Y10668000D01*
X61337315Y10689167D01*
X61080880Y10975573D01*
X60938434Y11148188D01*
X60863846Y11272845D01*
X60856512Y11351404D01*
X60915829Y11385721D01*
X60947025Y11387667D01*
X61007997Y11359220D01*
X61110146Y11282876D01*
X61236345Y11172132D01*
X61308187Y11103052D01*
X61595000Y10818438D01*
X61595000Y11081886D01*
X61597103Y11225908D01*
X61608566Y11304803D01*
X61637122Y11338090D01*
X61690504Y11345295D01*
X61699344Y11345333D01*
X61775561Y11331498D01*
X61828951Y11281461D01*
X61864650Y11182429D01*
X61887795Y11021606D01*
X61900475Y10844364D01*
X61920076Y10491561D01*
X62865000Y9546637D01*
X62865000Y10867107D01*
X62609011Y11157086D01*
X62476617Y11314870D01*
X62398590Y11429482D01*
X62366554Y11514598D01*
X62365595Y11554587D01*
X62402209Y11650024D01*
X62477780Y11673648D01*
X62587012Y11625828D01*
X62700360Y11531250D01*
X62865000Y11370484D01*
X62865000Y11735446D01*
X62868202Y11951954D01*
X62880011Y12097019D01*
X62903731Y12183701D01*
X62942666Y12225059D01*
X62991237Y12234333D01*
X63048607Y12205556D01*
X63048607Y12205556D01*
G37*
X63048607Y12205556D02*
X63087926Y12114598D01*
X63110826Y11954523D01*
X63118939Y11718392D01*
X63119000Y11691284D01*
X63119000Y11412817D01*
X63283898Y11573836D01*
X63396722Y11671930D01*
X63479827Y11711027D01*
X63537898Y11706575D01*
X63608970Y11655144D01*
X63627000Y11605869D01*
X63620984Y11563907D01*
X63597515Y11509788D01*
X63548459Y11430752D01*
X63465684Y11314038D01*
X63341057Y11146885D01*
X63298917Y11091107D01*
X63161333Y10909297D01*
X63161333Y9588992D01*
X64063925Y10491584D01*
X64083525Y10844375D01*
X64100429Y11062479D01*
X64125866Y11208778D01*
X64164976Y11296069D01*
X64222893Y11337145D01*
X64284656Y11345333D01*
X64341907Y11339957D01*
X64373152Y11310752D01*
X64386232Y11238108D01*
X64388990Y11102411D01*
X64389000Y11084388D01*
X64389000Y10823443D01*
X64681217Y11105555D01*
X64814623Y11227740D01*
X64931942Y11323260D01*
X65016227Y11378880D01*
X65042379Y11387667D01*
X65119004Y11365892D01*
X65129554Y11299419D01*
X65073438Y11186530D01*
X64950066Y11025504D01*
X64897118Y10964467D01*
X64634280Y10668000D01*
X64868621Y10668000D01*
X65006536Y10663618D01*
X65083036Y10645109D01*
X65121154Y10604432D01*
X65132168Y10575976D01*
X65137267Y10494956D01*
X65087384Y10435782D01*
X64973726Y10393949D01*
X64787500Y10364952D01*
X64704850Y10357112D01*
X64539750Y10338999D01*
X64401530Y10316352D01*
X64317422Y10293736D01*
X64312398Y10291316D01*
X64258561Y10247373D01*
X64160203Y10153173D01*
X64029748Y10021115D01*
X63879622Y9863597D01*
X63824152Y9804121D01*
X63408294Y9355667D01*
X64625103Y9355667D01*
X64913900Y9612027D01*
X65068242Y9742722D01*
X65179991Y9820222D01*
X65263979Y9853550D01*
X65314070Y9855444D01*
X65411982Y9819020D01*
X65437344Y9744070D01*
X65390425Y9635257D01*
X65294583Y9520306D01*
X65133817Y9355667D01*
X65545904Y9355667D01*
X65743254Y9353216D01*
X65871179Y9344332D01*
X65944819Y9326720D01*
X65979315Y9298083D01*
X65983450Y9289321D01*
X65991560Y9226197D01*
X65952592Y9180764D01*
X65856092Y9148737D01*
X65691605Y9125830D01*
X65557765Y9114809D01*
X65188746Y9088767D01*
X65339206Y8934682D01*
X65441726Y8819831D01*
X65482894Y8740119D01*
X65467878Y8678305D01*
X65428198Y8637686D01*
X65366472Y8606975D01*
X65290305Y8616413D01*
X65186648Y8671815D01*
X65042447Y8778994D01*
X64960256Y8846163D01*
X64706500Y9057184D01*
X64029413Y9058259D01*
X63352325Y9059333D01*
X63800362Y8611297D01*
X64248399Y8163260D01*
X64604450Y8139995D01*
X64822984Y8121204D01*
X64969760Y8095162D01*
X65057662Y8056656D01*
X65099575Y8000476D01*
X65108667Y7936011D01*
X65103290Y7878760D01*
X65074085Y7847515D01*
X65001441Y7834435D01*
X64865744Y7831677D01*
X64847721Y7831667D01*
X64586776Y7831667D01*
X64868888Y7539450D01*
X64991073Y7406044D01*
X65086593Y7288725D01*
X65142213Y7204440D01*
X65151000Y7178288D01*
X65129068Y7101556D01*
X65062206Y7091208D01*
X64948815Y7147788D01*
X64787295Y7271841D01*
X64730093Y7321516D01*
X64435919Y7582320D01*
X64423043Y7362104D01*
X64402419Y7206079D01*
X64359702Y7116830D01*
X64333604Y7095194D01*
X64257753Y7077976D01*
X64198534Y7132379D01*
X64153975Y7262289D01*
X64122103Y7471593D01*
X64117233Y7521609D01*
X64098252Y7687459D01*
X64075248Y7826188D01*
X64052777Y7911028D01*
X64049884Y7917174D01*
X64005815Y7971033D01*
X63911737Y8068804D01*
X63780483Y8197660D01*
X63624886Y8344774D01*
X63586646Y8380175D01*
X63161333Y8772313D01*
X63161333Y7541007D01*
X63393631Y7252420D01*
X63523065Y7083224D01*
X63597233Y6961236D01*
X63620723Y6873782D01*
X63598122Y6808187D01*
X63566206Y6775579D01*
X63479440Y6750951D01*
X63370181Y6804349D01*
X63236254Y6936867D01*
X63229399Y6944961D01*
X63119000Y7076163D01*
X63119000Y6781873D01*
X63112764Y6535555D01*
X63092911Y6365540D01*
X63057721Y6264304D01*
X63005472Y6224323D01*
X62991237Y6223000D01*
X62913967Y6256165D01*
X62890696Y6289963D01*
X62878939Y6361304D01*
X62870009Y6492989D01*
X62865353Y6660707D01*
X62865000Y6721887D01*
X62865000Y7086850D01*
X62700360Y6926084D01*
X62566426Y6818127D01*
X62462604Y6782474D01*
X62393378Y6819370D01*
X62365115Y6907712D01*
X62372213Y6980432D01*
X62416076Y7068279D01*
X62506109Y7186533D01*
X62608532Y7303202D01*
X62865000Y7586204D01*
X62865000Y8812014D01*
X62402116Y8380789D01*
X62237845Y8225381D01*
X62096177Y8086873D01*
X61988685Y7976926D01*
X61926941Y7907204D01*
X61917183Y7892105D01*
X61902830Y7823902D01*
X61885352Y7697085D01*
X61868241Y7537448D01*
X61866239Y7515777D01*
X61836475Y7292049D01*
X61793978Y7148624D01*
X61736865Y7081838D01*
X61663257Y7088027D01*
X61650396Y7095194D01*
X61596464Y7161493D01*
X61567145Y7288105D01*
X61560996Y7360976D01*
X61548159Y7580065D01*
X61255364Y7319844D01*
X61092007Y7183865D01*
X60971866Y7103796D01*
X60900853Y7083527D01*
X60897784Y7084483D01*
X60845660Y7123263D01*
X60844085Y7186659D01*
X60896975Y7282848D01*
X61008249Y7420010D01*
X61113294Y7534540D01*
X61393589Y7831667D01*
X61134461Y7831667D01*
X60991904Y7833852D01*
X60914318Y7845690D01*
X60882026Y7875104D01*
X60875350Y7930018D01*
X60875333Y7936011D01*
X60889169Y8012229D01*
X60939207Y8065619D01*
X61038242Y8101318D01*
X61199069Y8124463D01*
X61376291Y8137142D01*
X61729083Y8156742D01*
X62180378Y8608038D01*
X62631674Y9059333D01*
X61311254Y9059333D01*
X61146210Y8932590D01*
X60952768Y8786384D01*
X60813092Y8687750D01*
X60715725Y8630276D01*
X60649210Y8607549D01*
X60602091Y8613156D01*
X60588435Y8620388D01*
X60522402Y8679609D01*
X60515778Y8748451D01*
X60571297Y8843129D01*
X60639512Y8923452D01*
X60789786Y9089787D01*
X60426359Y9112461D01*
X60214874Y9131240D01*
X60078313Y9158775D01*
X60007066Y9199058D01*
X59991526Y9256079D01*
X60000550Y9289321D01*
X60028063Y9321072D01*
X60091288Y9341147D01*
X60205423Y9351870D01*
X60385663Y9355566D01*
X60434431Y9355667D01*
X60842852Y9355667D01*
X60687220Y9527933D01*
X60581462Y9667794D01*
X60550678Y9769917D01*
X60594889Y9833757D01*
X60675351Y9855967D01*
X60751066Y9850019D01*
X60838386Y9808038D01*
X60954343Y9719969D01*
X61054155Y9632327D01*
X61186301Y9519339D01*
X61304708Y9429707D01*
X61388517Y9378906D01*
X61402666Y9373815D01*
X61476776Y9366571D01*
X61616065Y9362376D01*
X61801087Y9361513D01*
X62012399Y9364269D01*
X62028371Y9364621D01*
X62567575Y9376833D01*
X62113037Y9854105D01*
X61658500Y10331376D01*
X61341000Y10357651D01*
X61117716Y10380660D01*
X60967731Y10408973D01*
X60879680Y10446998D01*
X60842200Y10499139D01*
X60840648Y10551652D01*
X60859096Y10607164D01*
X60908550Y10639884D01*
X61010043Y10659406D01*
X61095741Y10668000D01*
X61337315Y10689167D01*
X61080880Y10975573D01*
X60938434Y11148188D01*
X60863846Y11272845D01*
X60856512Y11351404D01*
X60915829Y11385721D01*
X60947025Y11387667D01*
X61007997Y11359220D01*
X61110146Y11282876D01*
X61236345Y11172132D01*
X61308187Y11103052D01*
X61595000Y10818438D01*
X61595000Y11081886D01*
X61597103Y11225908D01*
X61608566Y11304803D01*
X61637122Y11338090D01*
X61690504Y11345295D01*
X61699344Y11345333D01*
X61775561Y11331498D01*
X61828951Y11281461D01*
X61864650Y11182429D01*
X61887795Y11021606D01*
X61900475Y10844364D01*
X61920076Y10491561D01*
X62865000Y9546637D01*
X62865000Y10867107D01*
X62609011Y11157086D01*
X62476617Y11314870D01*
X62398590Y11429482D01*
X62366554Y11514598D01*
X62365595Y11554587D01*
X62402209Y11650024D01*
X62477780Y11673648D01*
X62587012Y11625828D01*
X62700360Y11531250D01*
X62865000Y11370484D01*
X62865000Y11735446D01*
X62868202Y11951954D01*
X62880011Y12097019D01*
X62903731Y12183701D01*
X62942666Y12225059D01*
X62991237Y12234333D01*
X63048607Y12205556D01*
D15*
X40190000Y36380000D02*
X40415000Y36380000D01*
X40190000Y43630000D02*
X40515000Y43630000D01*
X47440000Y43630000D02*
X47115000Y43630000D01*
X47440000Y36380000D02*
X47115000Y36380000D01*
X40190000Y36380000D02*
X40190000Y36705000D01*
X47440000Y36380000D02*
X47440000Y36705000D01*
X47440000Y43630000D02*
X47440000Y43305000D01*
X40190000Y43630000D02*
X40190000Y43305000D01*
X40415000Y36380000D02*
X40415000Y34955000D01*
D14*
G36*
X38551809Y7813730D02*
G01*
X38592313Y7765744D01*
X38636611Y7686013D01*
X38632213Y7625227D01*
X38578519Y7543494D01*
X38488344Y7461993D01*
X38380873Y7416168D01*
X38286957Y7416471D01*
X38257165Y7434612D01*
X38231831Y7506098D01*
X38229766Y7619793D01*
X38249488Y7736935D01*
X38270822Y7792117D01*
X38347645Y7861748D01*
X38450525Y7868197D01*
X38551809Y7813730D01*
X38551809Y7813730D01*
G37*
X38551809Y7813730D02*
X38592313Y7765744D01*
X38636611Y7686013D01*
X38632213Y7625227D01*
X38578519Y7543494D01*
X38488344Y7461993D01*
X38380873Y7416168D01*
X38286957Y7416471D01*
X38257165Y7434612D01*
X38231831Y7506098D01*
X38229766Y7619793D01*
X38249488Y7736935D01*
X38270822Y7792117D01*
X38347645Y7861748D01*
X38450525Y7868197D01*
X38551809Y7813730D01*
G36*
X37002535Y9630005D02*
G01*
X37116183Y9573363D01*
X37167200Y9484182D01*
X37168666Y9463354D01*
X37134780Y9370702D01*
X37043533Y9326495D01*
X36910544Y9336253D01*
X36857341Y9353319D01*
X36630271Y9397613D01*
X36406092Y9359292D01*
X36189559Y9240387D01*
X35985431Y9042929D01*
X35914157Y8950586D01*
X35790993Y8758833D01*
X35651818Y8509204D01*
X35506220Y8222357D01*
X35363789Y7918948D01*
X35234111Y7619631D01*
X35126775Y7345064D01*
X35051369Y7115901D01*
X35036676Y7060201D01*
X35008614Y6944901D01*
X35159515Y7033935D01*
X35333778Y7105510D01*
X35509869Y7125469D01*
X35661498Y7092987D01*
X35725783Y7051713D01*
X35777743Y6986164D01*
X35804877Y6897894D01*
X35806263Y6775527D01*
X35780981Y6607689D01*
X35728111Y6383004D01*
X35648443Y6096000D01*
X35583482Y5859622D01*
X35539128Y5672095D01*
X35517530Y5543763D01*
X35520837Y5484970D01*
X35521366Y5484366D01*
X35575013Y5485335D01*
X35665852Y5548541D01*
X35699516Y5579616D01*
X35806299Y5675721D01*
X35868471Y5709922D01*
X35895435Y5685513D01*
X35898666Y5649398D01*
X35865390Y5520908D01*
X35781407Y5387721D01*
X35670481Y5285414D01*
X35646052Y5271217D01*
X35499585Y5220265D01*
X35356475Y5210646D01*
X35247593Y5243356D01*
X35229800Y5257800D01*
X35188279Y5355486D01*
X35183987Y5526095D01*
X35216626Y5766652D01*
X35285897Y6074184D01*
X35326718Y6225727D01*
X35392378Y6461191D01*
X35436592Y6628007D01*
X35460924Y6739005D01*
X35466937Y6807018D01*
X35456192Y6844877D01*
X35430254Y6865414D01*
X35405868Y6875598D01*
X35293747Y6875105D01*
X35174648Y6790329D01*
X35048634Y6621364D01*
X34915768Y6368301D01*
X34776114Y6031231D01*
X34722412Y5884333D01*
X34647241Y5680503D01*
X34575776Y5501151D01*
X34515430Y5363947D01*
X34473619Y5286564D01*
X34469295Y5281083D01*
X34383500Y5221015D01*
X34292384Y5207008D01*
X34224276Y5238003D01*
X34205333Y5290959D01*
X34217754Y5360124D01*
X34252399Y5496862D01*
X34305338Y5688220D01*
X34372643Y5921246D01*
X34450383Y6182988D01*
X34534631Y6460491D01*
X34621456Y6740803D01*
X34706930Y7010971D01*
X34787125Y7258042D01*
X34858109Y7469064D01*
X34911818Y7620000D01*
X35051415Y7975582D01*
X35185624Y8268002D01*
X35326390Y8516970D01*
X35485661Y8742197D01*
X35675383Y8963393D01*
X35812592Y9106198D01*
X35997195Y9287481D01*
X36140993Y9415922D01*
X36258476Y9502797D01*
X36364138Y9559377D01*
X36424791Y9582448D01*
X36642941Y9636773D01*
X36840155Y9651883D01*
X37002535Y9630005D01*
X37002535Y9630005D01*
G37*
X37002535Y9630005D02*
X37116183Y9573363D01*
X37167200Y9484182D01*
X37168666Y9463354D01*
X37134780Y9370702D01*
X37043533Y9326495D01*
X36910544Y9336253D01*
X36857341Y9353319D01*
X36630271Y9397613D01*
X36406092Y9359292D01*
X36189559Y9240387D01*
X35985431Y9042929D01*
X35914157Y8950586D01*
X35790993Y8758833D01*
X35651818Y8509204D01*
X35506220Y8222357D01*
X35363789Y7918948D01*
X35234111Y7619631D01*
X35126775Y7345064D01*
X35051369Y7115901D01*
X35036676Y7060201D01*
X35008614Y6944901D01*
X35159515Y7033935D01*
X35333778Y7105510D01*
X35509869Y7125469D01*
X35661498Y7092987D01*
X35725783Y7051713D01*
X35777743Y6986164D01*
X35804877Y6897894D01*
X35806263Y6775527D01*
X35780981Y6607689D01*
X35728111Y6383004D01*
X35648443Y6096000D01*
X35583482Y5859622D01*
X35539128Y5672095D01*
X35517530Y5543763D01*
X35520837Y5484970D01*
X35521366Y5484366D01*
X35575013Y5485335D01*
X35665852Y5548541D01*
X35699516Y5579616D01*
X35806299Y5675721D01*
X35868471Y5709922D01*
X35895435Y5685513D01*
X35898666Y5649398D01*
X35865390Y5520908D01*
X35781407Y5387721D01*
X35670481Y5285414D01*
X35646052Y5271217D01*
X35499585Y5220265D01*
X35356475Y5210646D01*
X35247593Y5243356D01*
X35229800Y5257800D01*
X35188279Y5355486D01*
X35183987Y5526095D01*
X35216626Y5766652D01*
X35285897Y6074184D01*
X35326718Y6225727D01*
X35392378Y6461191D01*
X35436592Y6628007D01*
X35460924Y6739005D01*
X35466937Y6807018D01*
X35456192Y6844877D01*
X35430254Y6865414D01*
X35405868Y6875598D01*
X35293747Y6875105D01*
X35174648Y6790329D01*
X35048634Y6621364D01*
X34915768Y6368301D01*
X34776114Y6031231D01*
X34722412Y5884333D01*
X34647241Y5680503D01*
X34575776Y5501151D01*
X34515430Y5363947D01*
X34473619Y5286564D01*
X34469295Y5281083D01*
X34383500Y5221015D01*
X34292384Y5207008D01*
X34224276Y5238003D01*
X34205333Y5290959D01*
X34217754Y5360124D01*
X34252399Y5496862D01*
X34305338Y5688220D01*
X34372643Y5921246D01*
X34450383Y6182988D01*
X34534631Y6460491D01*
X34621456Y6740803D01*
X34706930Y7010971D01*
X34787125Y7258042D01*
X34858109Y7469064D01*
X34911818Y7620000D01*
X35051415Y7975582D01*
X35185624Y8268002D01*
X35326390Y8516970D01*
X35485661Y8742197D01*
X35675383Y8963393D01*
X35812592Y9106198D01*
X35997195Y9287481D01*
X36140993Y9415922D01*
X36258476Y9502797D01*
X36364138Y9559377D01*
X36424791Y9582448D01*
X36642941Y9636773D01*
X36840155Y9651883D01*
X37002535Y9630005D01*
G36*
X46649115Y7146497D02*
G01*
X46803799Y7102416D01*
X46916567Y7019004D01*
X46963942Y6925916D01*
X46968363Y6779002D01*
X46917072Y6649012D01*
X46824889Y6557194D01*
X46706638Y6524795D01*
X46685413Y6526667D01*
X46625118Y6547246D01*
X46590849Y6602067D01*
X46570748Y6713611D01*
X46566666Y6751799D01*
X46535457Y6902775D01*
X46476435Y6975403D01*
X46384032Y6973031D01*
X46284912Y6921077D01*
X46210871Y6839247D01*
X46201161Y6728100D01*
X46257167Y6581288D01*
X46380272Y6392463D01*
X46408309Y6355289D01*
X46534551Y6187215D01*
X46616593Y6065450D01*
X46663875Y5970794D01*
X46685841Y5884051D01*
X46691934Y5786025D01*
X46692008Y5778500D01*
X46657048Y5581546D01*
X46559380Y5416475D01*
X46414842Y5288420D01*
X46239272Y5202514D01*
X46048509Y5163891D01*
X45858391Y5177683D01*
X45684756Y5249025D01*
X45543441Y5383048D01*
X45530429Y5402023D01*
X45455285Y5516707D01*
X45385186Y5423775D01*
X45261860Y5300779D01*
X45115129Y5213651D01*
X44965855Y5168890D01*
X44834900Y5172994D01*
X44748579Y5225460D01*
X44699241Y5312294D01*
X44667789Y5399684D01*
X44637453Y5513115D01*
X44507280Y5403581D01*
X44295835Y5265927D01*
X44088271Y5210696D01*
X43887777Y5238514D01*
X43818860Y5268504D01*
X43694366Y5376939D01*
X43623088Y5536945D01*
X43602699Y5736193D01*
X43616767Y5849130D01*
X43997174Y5849130D01*
X44001575Y5704200D01*
X44058298Y5598895D01*
X44064085Y5592915D01*
X44147712Y5523431D01*
X44224525Y5509691D01*
X44328856Y5548321D01*
X44359636Y5563888D01*
X44499427Y5675282D01*
X44630785Y5849778D01*
X44743237Y6065836D01*
X44826312Y6301914D01*
X44869535Y6536473D01*
X44873333Y6620437D01*
X44854230Y6799261D01*
X44801009Y6906392D01*
X44719805Y6944626D01*
X44616750Y6916759D01*
X44497979Y6825586D01*
X44369625Y6673901D01*
X44237821Y6464500D01*
X44149323Y6290500D01*
X44046091Y6041843D01*
X43997174Y5849130D01*
X43616767Y5849130D01*
X43630872Y5962353D01*
X43705280Y6203096D01*
X43823595Y6446090D01*
X43983491Y6679007D01*
X44112211Y6822769D01*
X44328686Y7007170D01*
X44529121Y7111320D01*
X44711701Y7134861D01*
X44874617Y7077434D01*
X44972215Y6993095D01*
X45049931Y6906806D01*
X45247382Y7032317D01*
X45364205Y7101269D01*
X45428819Y7123018D01*
X45456150Y7101948D01*
X45458198Y7094256D01*
X45450624Y7031903D01*
X45420405Y6906576D01*
X45372149Y6735460D01*
X45310463Y6535742D01*
X45298769Y6499558D01*
X45226534Y6261367D01*
X45166198Y6031292D01*
X45120317Y5822982D01*
X45091449Y5650081D01*
X45082149Y5526236D01*
X45094973Y5465094D01*
X45104213Y5461000D01*
X45148341Y5487140D01*
X45238490Y5556732D01*
X45357799Y5656533D01*
X45400688Y5693833D01*
X45528167Y5801062D01*
X45634804Y5882203D01*
X45702627Y5923862D01*
X45713135Y5926667D01*
X45785810Y5888964D01*
X45843560Y5794281D01*
X45874282Y5670258D01*
X45870891Y5566468D01*
X45865493Y5452335D01*
X45909820Y5392405D01*
X46013897Y5379902D01*
X46124433Y5395132D01*
X46261847Y5456085D01*
X46338156Y5566501D01*
X46342754Y5710255D01*
X46339772Y5722462D01*
X46301856Y5799750D01*
X46223606Y5919552D01*
X46119669Y6059993D01*
X46082209Y6107164D01*
X45931737Y6311739D01*
X45844910Y6481066D01*
X45817275Y6630204D01*
X45844378Y6774211D01*
X45868163Y6830847D01*
X45966193Y6960317D01*
X46111053Y7058158D01*
X46284992Y7122828D01*
X46470263Y7152787D01*
X46649115Y7146497D01*
X46649115Y7146497D01*
G37*
X46649115Y7146497D02*
X46803799Y7102416D01*
X46916567Y7019004D01*
X46963942Y6925916D01*
X46968363Y6779002D01*
X46917072Y6649012D01*
X46824889Y6557194D01*
X46706638Y6524795D01*
X46685413Y6526667D01*
X46625118Y6547246D01*
X46590849Y6602067D01*
X46570748Y6713611D01*
X46566666Y6751799D01*
X46535457Y6902775D01*
X46476435Y6975403D01*
X46384032Y6973031D01*
X46284912Y6921077D01*
X46210871Y6839247D01*
X46201161Y6728100D01*
X46257167Y6581288D01*
X46380272Y6392463D01*
X46408309Y6355289D01*
X46534551Y6187215D01*
X46616593Y6065450D01*
X46663875Y5970794D01*
X46685841Y5884051D01*
X46691934Y5786025D01*
X46692008Y5778500D01*
X46657048Y5581546D01*
X46559380Y5416475D01*
X46414842Y5288420D01*
X46239272Y5202514D01*
X46048509Y5163891D01*
X45858391Y5177683D01*
X45684756Y5249025D01*
X45543441Y5383048D01*
X45530429Y5402023D01*
X45455285Y5516707D01*
X45385186Y5423775D01*
X45261860Y5300779D01*
X45115129Y5213651D01*
X44965855Y5168890D01*
X44834900Y5172994D01*
X44748579Y5225460D01*
X44699241Y5312294D01*
X44667789Y5399684D01*
X44637453Y5513115D01*
X44507280Y5403581D01*
X44295835Y5265927D01*
X44088271Y5210696D01*
X43887777Y5238514D01*
X43818860Y5268504D01*
X43694366Y5376939D01*
X43623088Y5536945D01*
X43602699Y5736193D01*
X43616767Y5849130D01*
X43997174Y5849130D01*
X44001575Y5704200D01*
X44058298Y5598895D01*
X44064085Y5592915D01*
X44147712Y5523431D01*
X44224525Y5509691D01*
X44328856Y5548321D01*
X44359636Y5563888D01*
X44499427Y5675282D01*
X44630785Y5849778D01*
X44743237Y6065836D01*
X44826312Y6301914D01*
X44869535Y6536473D01*
X44873333Y6620437D01*
X44854230Y6799261D01*
X44801009Y6906392D01*
X44719805Y6944626D01*
X44616750Y6916759D01*
X44497979Y6825586D01*
X44369625Y6673901D01*
X44237821Y6464500D01*
X44149323Y6290500D01*
X44046091Y6041843D01*
X43997174Y5849130D01*
X43616767Y5849130D01*
X43630872Y5962353D01*
X43705280Y6203096D01*
X43823595Y6446090D01*
X43983491Y6679007D01*
X44112211Y6822769D01*
X44328686Y7007170D01*
X44529121Y7111320D01*
X44711701Y7134861D01*
X44874617Y7077434D01*
X44972215Y6993095D01*
X45049931Y6906806D01*
X45247382Y7032317D01*
X45364205Y7101269D01*
X45428819Y7123018D01*
X45456150Y7101948D01*
X45458198Y7094256D01*
X45450624Y7031903D01*
X45420405Y6906576D01*
X45372149Y6735460D01*
X45310463Y6535742D01*
X45298769Y6499558D01*
X45226534Y6261367D01*
X45166198Y6031292D01*
X45120317Y5822982D01*
X45091449Y5650081D01*
X45082149Y5526236D01*
X45094973Y5465094D01*
X45104213Y5461000D01*
X45148341Y5487140D01*
X45238490Y5556732D01*
X45357799Y5656533D01*
X45400688Y5693833D01*
X45528167Y5801062D01*
X45634804Y5882203D01*
X45702627Y5923862D01*
X45713135Y5926667D01*
X45785810Y5888964D01*
X45843560Y5794281D01*
X45874282Y5670258D01*
X45870891Y5566468D01*
X45865493Y5452335D01*
X45909820Y5392405D01*
X46013897Y5379902D01*
X46124433Y5395132D01*
X46261847Y5456085D01*
X46338156Y5566501D01*
X46342754Y5710255D01*
X46339772Y5722462D01*
X46301856Y5799750D01*
X46223606Y5919552D01*
X46119669Y6059993D01*
X46082209Y6107164D01*
X45931737Y6311739D01*
X45844910Y6481066D01*
X45817275Y6630204D01*
X45844378Y6774211D01*
X45868163Y6830847D01*
X45966193Y6960317D01*
X46111053Y7058158D01*
X46284992Y7122828D01*
X46470263Y7152787D01*
X46649115Y7146497D01*
G36*
X41177094Y8116143D02*
G01*
X41190333Y8101499D01*
X41175543Y8053208D01*
X41135761Y7944865D01*
X41077865Y7794852D01*
X41037063Y7691912D01*
X40962080Y7495674D01*
X40926696Y7362363D01*
X40936171Y7277515D01*
X40995761Y7226669D01*
X41110724Y7195362D01*
X41223992Y7177745D01*
X41443003Y7139830D01*
X41590344Y7094799D01*
X41679008Y7036564D01*
X41721984Y6959036D01*
X41725878Y6942525D01*
X41749751Y6823160D01*
X41941753Y6969719D01*
X42071022Y7058304D01*
X42176000Y7098988D01*
X42291456Y7104539D01*
X42306245Y7103556D01*
X42436214Y7079315D01*
X42524392Y7015397D01*
X42569829Y6955209D01*
X42660922Y6819585D01*
X42761711Y6928915D01*
X42919748Y7054989D01*
X43095659Y7122074D01*
X43268624Y7126089D01*
X43417823Y7062952D01*
X43423416Y7058646D01*
X43467318Y6974946D01*
X43470186Y6824015D01*
X43431765Y6604092D01*
X43351798Y6313416D01*
X43285833Y6110391D01*
X43216882Y5904141D01*
X43159052Y5725451D01*
X43117323Y5590152D01*
X43096675Y5514073D01*
X43095333Y5504910D01*
X43121947Y5463139D01*
X43188943Y5475814D01*
X43277048Y5537296D01*
X43307000Y5566833D01*
X43390046Y5639060D01*
X43458345Y5672405D01*
X43462545Y5672667D01*
X43514714Y5646905D01*
X43506267Y5576176D01*
X43441128Y5470319D01*
X43333736Y5349597D01*
X43167753Y5215886D01*
X43019077Y5163119D01*
X42889418Y5191636D01*
X42821713Y5247624D01*
X42760134Y5378657D01*
X42758664Y5569101D01*
X42817293Y5818754D01*
X42862696Y5948816D01*
X42974011Y6249581D01*
X43053766Y6480240D01*
X43104195Y6648318D01*
X43127532Y6761340D01*
X43126009Y6826829D01*
X43124578Y6831047D01*
X43087152Y6887351D01*
X43030799Y6887641D01*
X42943887Y6827906D01*
X42844991Y6734659D01*
X42740039Y6603602D01*
X42615924Y6405148D01*
X42479772Y6152382D01*
X42338710Y5858389D01*
X42223158Y5592808D01*
X42119803Y5385365D01*
X42014542Y5258524D01*
X41903799Y5208236D01*
X41882397Y5207000D01*
X41811977Y5215062D01*
X41791999Y5256037D01*
X41806207Y5344583D01*
X41830898Y5433648D01*
X41878150Y5583780D01*
X41941888Y5776370D01*
X42016037Y5992808D01*
X42042404Y6068137D01*
X42136611Y6342517D01*
X42200470Y6547562D01*
X42235412Y6692417D01*
X42242869Y6786223D01*
X42224272Y6838124D01*
X42181052Y6857263D01*
X42166037Y6858000D01*
X42056992Y6818457D01*
X41931949Y6705359D01*
X41796556Y6527009D01*
X41656456Y6291705D01*
X41517296Y6007749D01*
X41406763Y5741617D01*
X41338815Y5573588D01*
X41273050Y5425160D01*
X41221470Y5323095D01*
X41212566Y5308520D01*
X41133878Y5237683D01*
X41035862Y5207230D01*
X40949654Y5221732D01*
X40911662Y5264366D01*
X40917914Y5321890D01*
X40949335Y5444074D01*
X41001556Y5616230D01*
X41070207Y5823670D01*
X41122634Y5973449D01*
X41229022Y6273938D01*
X41307498Y6502987D01*
X41360352Y6668253D01*
X41389869Y6777396D01*
X41398339Y6838071D01*
X41388047Y6857939D01*
X41386858Y6858000D01*
X41336418Y6841379D01*
X41241600Y6800126D01*
X41213467Y6786913D01*
X41096765Y6744235D01*
X41036987Y6749861D01*
X41041113Y6799944D01*
X41084500Y6858000D01*
X41132866Y6928182D01*
X41136656Y6968122D01*
X41070795Y6982354D01*
X40968892Y6959060D01*
X40863822Y6909892D01*
X40788460Y6846504D01*
X40786689Y6844065D01*
X40740543Y6755309D01*
X40684128Y6611589D01*
X40622181Y6429681D01*
X40559436Y6226363D01*
X40500628Y6018412D01*
X40450495Y5822606D01*
X40413770Y5655722D01*
X40395190Y5534537D01*
X40399491Y5475828D01*
X40400251Y5474971D01*
X40444146Y5484238D01*
X40527994Y5534136D01*
X40567132Y5562558D01*
X40666388Y5630829D01*
X40741430Y5669441D01*
X40756449Y5672667D01*
X40787692Y5643926D01*
X40770250Y5569375D01*
X40711649Y5466522D01*
X40619411Y5352874D01*
X40618677Y5352094D01*
X40506272Y5253079D01*
X40397932Y5211639D01*
X40331108Y5207000D01*
X40198395Y5225725D01*
X40108396Y5286243D01*
X40060073Y5395069D01*
X40052388Y5558719D01*
X40084302Y5783708D01*
X40154776Y6076551D01*
X40178756Y6162742D01*
X40258016Y6469616D01*
X40301630Y6711450D01*
X40310890Y6899388D01*
X40287087Y7044573D01*
X40282534Y7058329D01*
X40272879Y7133455D01*
X40324509Y7179921D01*
X40359936Y7194805D01*
X40429249Y7241070D01*
X40501406Y7334804D01*
X40585661Y7489370D01*
X40633316Y7589520D01*
X40768040Y7842583D01*
X40901513Y8017252D01*
X41031707Y8111241D01*
X41111375Y8128000D01*
X41177094Y8116143D01*
X41177094Y8116143D01*
G37*
X41177094Y8116143D02*
X41190333Y8101499D01*
X41175543Y8053208D01*
X41135761Y7944865D01*
X41077865Y7794852D01*
X41037063Y7691912D01*
X40962080Y7495674D01*
X40926696Y7362363D01*
X40936171Y7277515D01*
X40995761Y7226669D01*
X41110724Y7195362D01*
X41223992Y7177745D01*
X41443003Y7139830D01*
X41590344Y7094799D01*
X41679008Y7036564D01*
X41721984Y6959036D01*
X41725878Y6942525D01*
X41749751Y6823160D01*
X41941753Y6969719D01*
X42071022Y7058304D01*
X42176000Y7098988D01*
X42291456Y7104539D01*
X42306245Y7103556D01*
X42436214Y7079315D01*
X42524392Y7015397D01*
X42569829Y6955209D01*
X42660922Y6819585D01*
X42761711Y6928915D01*
X42919748Y7054989D01*
X43095659Y7122074D01*
X43268624Y7126089D01*
X43417823Y7062952D01*
X43423416Y7058646D01*
X43467318Y6974946D01*
X43470186Y6824015D01*
X43431765Y6604092D01*
X43351798Y6313416D01*
X43285833Y6110391D01*
X43216882Y5904141D01*
X43159052Y5725451D01*
X43117323Y5590152D01*
X43096675Y5514073D01*
X43095333Y5504910D01*
X43121947Y5463139D01*
X43188943Y5475814D01*
X43277048Y5537296D01*
X43307000Y5566833D01*
X43390046Y5639060D01*
X43458345Y5672405D01*
X43462545Y5672667D01*
X43514714Y5646905D01*
X43506267Y5576176D01*
X43441128Y5470319D01*
X43333736Y5349597D01*
X43167753Y5215886D01*
X43019077Y5163119D01*
X42889418Y5191636D01*
X42821713Y5247624D01*
X42760134Y5378657D01*
X42758664Y5569101D01*
X42817293Y5818754D01*
X42862696Y5948816D01*
X42974011Y6249581D01*
X43053766Y6480240D01*
X43104195Y6648318D01*
X43127532Y6761340D01*
X43126009Y6826829D01*
X43124578Y6831047D01*
X43087152Y6887351D01*
X43030799Y6887641D01*
X42943887Y6827906D01*
X42844991Y6734659D01*
X42740039Y6603602D01*
X42615924Y6405148D01*
X42479772Y6152382D01*
X42338710Y5858389D01*
X42223158Y5592808D01*
X42119803Y5385365D01*
X42014542Y5258524D01*
X41903799Y5208236D01*
X41882397Y5207000D01*
X41811977Y5215062D01*
X41791999Y5256037D01*
X41806207Y5344583D01*
X41830898Y5433648D01*
X41878150Y5583780D01*
X41941888Y5776370D01*
X42016037Y5992808D01*
X42042404Y6068137D01*
X42136611Y6342517D01*
X42200470Y6547562D01*
X42235412Y6692417D01*
X42242869Y6786223D01*
X42224272Y6838124D01*
X42181052Y6857263D01*
X42166037Y6858000D01*
X42056992Y6818457D01*
X41931949Y6705359D01*
X41796556Y6527009D01*
X41656456Y6291705D01*
X41517296Y6007749D01*
X41406763Y5741617D01*
X41338815Y5573588D01*
X41273050Y5425160D01*
X41221470Y5323095D01*
X41212566Y5308520D01*
X41133878Y5237683D01*
X41035862Y5207230D01*
X40949654Y5221732D01*
X40911662Y5264366D01*
X40917914Y5321890D01*
X40949335Y5444074D01*
X41001556Y5616230D01*
X41070207Y5823670D01*
X41122634Y5973449D01*
X41229022Y6273938D01*
X41307498Y6502987D01*
X41360352Y6668253D01*
X41389869Y6777396D01*
X41398339Y6838071D01*
X41388047Y6857939D01*
X41386858Y6858000D01*
X41336418Y6841379D01*
X41241600Y6800126D01*
X41213467Y6786913D01*
X41096765Y6744235D01*
X41036987Y6749861D01*
X41041113Y6799944D01*
X41084500Y6858000D01*
X41132866Y6928182D01*
X41136656Y6968122D01*
X41070795Y6982354D01*
X40968892Y6959060D01*
X40863822Y6909892D01*
X40788460Y6846504D01*
X40786689Y6844065D01*
X40740543Y6755309D01*
X40684128Y6611589D01*
X40622181Y6429681D01*
X40559436Y6226363D01*
X40500628Y6018412D01*
X40450495Y5822606D01*
X40413770Y5655722D01*
X40395190Y5534537D01*
X40399491Y5475828D01*
X40400251Y5474971D01*
X40444146Y5484238D01*
X40527994Y5534136D01*
X40567132Y5562558D01*
X40666388Y5630829D01*
X40741430Y5669441D01*
X40756449Y5672667D01*
X40787692Y5643926D01*
X40770250Y5569375D01*
X40711649Y5466522D01*
X40619411Y5352874D01*
X40618677Y5352094D01*
X40506272Y5253079D01*
X40397932Y5211639D01*
X40331108Y5207000D01*
X40198395Y5225725D01*
X40108396Y5286243D01*
X40060073Y5395069D01*
X40052388Y5558719D01*
X40084302Y5783708D01*
X40154776Y6076551D01*
X40178756Y6162742D01*
X40258016Y6469616D01*
X40301630Y6711450D01*
X40310890Y6899388D01*
X40287087Y7044573D01*
X40282534Y7058329D01*
X40272879Y7133455D01*
X40324509Y7179921D01*
X40359936Y7194805D01*
X40429249Y7241070D01*
X40501406Y7334804D01*
X40585661Y7489370D01*
X40633316Y7589520D01*
X40768040Y7842583D01*
X40901513Y8017252D01*
X41031707Y8111241D01*
X41111375Y8128000D01*
X41177094Y8116143D01*
G36*
X39794236Y7124080D02*
G01*
X39934119Y7042971D01*
X40021175Y6925233D01*
X40045508Y6785330D01*
X39997218Y6637727D01*
X39981432Y6613420D01*
X39886369Y6531246D01*
X39782154Y6518357D01*
X39687258Y6564003D01*
X39620154Y6657435D01*
X39599312Y6787902D01*
X39604829Y6832584D01*
X39618690Y6933005D01*
X39599865Y6975602D01*
X39535142Y6984946D01*
X39522877Y6985000D01*
X39410379Y6955430D01*
X39325501Y6898168D01*
X39279326Y6841646D01*
X39259952Y6780645D01*
X39271932Y6703843D01*
X39319819Y6599918D01*
X39408166Y6457548D01*
X39541528Y6265411D01*
X39628819Y6143951D01*
X39744510Y5929561D01*
X39782121Y5722915D01*
X39743726Y5534032D01*
X39631402Y5372933D01*
X39447222Y5249637D01*
X39443208Y5247802D01*
X39187767Y5176762D01*
X38924222Y5188736D01*
X38846867Y5208194D01*
X38687853Y5280769D01*
X38598336Y5390802D01*
X38566271Y5554562D01*
X38565666Y5588000D01*
X38582409Y5749809D01*
X38635797Y5849627D01*
X38643083Y5856606D01*
X38727455Y5915580D01*
X38800060Y5910671D01*
X38887636Y5838364D01*
X38902776Y5822491D01*
X38966407Y5742672D01*
X38975407Y5672429D01*
X38945001Y5583981D01*
X38912469Y5487870D01*
X38923025Y5432452D01*
X38963785Y5395225D01*
X39067255Y5366525D01*
X39191695Y5394548D01*
X39306232Y5469081D01*
X39352209Y5523712D01*
X39386908Y5617325D01*
X39371810Y5728939D01*
X39302595Y5870989D01*
X39174940Y6055909D01*
X39160703Y6074729D01*
X39038236Y6242197D01*
X38961607Y6368311D01*
X38920726Y6475283D01*
X38905503Y6585324D01*
X38904333Y6639073D01*
X38943547Y6815164D01*
X39053404Y6962959D01*
X39222223Y7073951D01*
X39438326Y7139634D01*
X39611424Y7154097D01*
X39794236Y7124080D01*
X39794236Y7124080D01*
G37*
X39794236Y7124080D02*
X39934119Y7042971D01*
X40021175Y6925233D01*
X40045508Y6785330D01*
X39997218Y6637727D01*
X39981432Y6613420D01*
X39886369Y6531246D01*
X39782154Y6518357D01*
X39687258Y6564003D01*
X39620154Y6657435D01*
X39599312Y6787902D01*
X39604829Y6832584D01*
X39618690Y6933005D01*
X39599865Y6975602D01*
X39535142Y6984946D01*
X39522877Y6985000D01*
X39410379Y6955430D01*
X39325501Y6898168D01*
X39279326Y6841646D01*
X39259952Y6780645D01*
X39271932Y6703843D01*
X39319819Y6599918D01*
X39408166Y6457548D01*
X39541528Y6265411D01*
X39628819Y6143951D01*
X39744510Y5929561D01*
X39782121Y5722915D01*
X39743726Y5534032D01*
X39631402Y5372933D01*
X39447222Y5249637D01*
X39443208Y5247802D01*
X39187767Y5176762D01*
X38924222Y5188736D01*
X38846867Y5208194D01*
X38687853Y5280769D01*
X38598336Y5390802D01*
X38566271Y5554562D01*
X38565666Y5588000D01*
X38582409Y5749809D01*
X38635797Y5849627D01*
X38643083Y5856606D01*
X38727455Y5915580D01*
X38800060Y5910671D01*
X38887636Y5838364D01*
X38902776Y5822491D01*
X38966407Y5742672D01*
X38975407Y5672429D01*
X38945001Y5583981D01*
X38912469Y5487870D01*
X38923025Y5432452D01*
X38963785Y5395225D01*
X39067255Y5366525D01*
X39191695Y5394548D01*
X39306232Y5469081D01*
X39352209Y5523712D01*
X39386908Y5617325D01*
X39371810Y5728939D01*
X39302595Y5870989D01*
X39174940Y6055909D01*
X39160703Y6074729D01*
X39038236Y6242197D01*
X38961607Y6368311D01*
X38920726Y6475283D01*
X38905503Y6585324D01*
X38904333Y6639073D01*
X38943547Y6815164D01*
X39053404Y6962959D01*
X39222223Y7073951D01*
X39438326Y7139634D01*
X39611424Y7154097D01*
X39794236Y7124080D01*
G36*
X38243103Y7122581D02*
G01*
X38346120Y7090903D01*
X38362447Y7078047D01*
X38405190Y6977657D01*
X38405749Y6805377D01*
X38364312Y6562620D01*
X38281069Y6250799D01*
X38231314Y6092292D01*
X38166701Y5890461D01*
X38112991Y5715920D01*
X38075148Y5585308D01*
X38058134Y5515263D01*
X38057666Y5510208D01*
X38084072Y5464830D01*
X38162232Y5484811D01*
X38286737Y5566833D01*
X38417948Y5654085D01*
X38496772Y5680857D01*
X38522127Y5654024D01*
X38492928Y5580458D01*
X38408093Y5467034D01*
X38317714Y5370286D01*
X38151358Y5229316D01*
X38008270Y5166094D01*
X37881535Y5179263D01*
X37768712Y5262645D01*
X37703313Y5353256D01*
X37676666Y5431077D01*
X37689122Y5494943D01*
X37723377Y5622931D01*
X37774761Y5798740D01*
X37838603Y6006070D01*
X37867166Y6096000D01*
X37956285Y6383130D01*
X38015982Y6598809D01*
X38047533Y6750493D01*
X38052216Y6845634D01*
X38031309Y6891687D01*
X38004750Y6898833D01*
X37883023Y6858515D01*
X37754297Y6754595D01*
X37667475Y6646627D01*
X37563448Y6526324D01*
X37460043Y6485499D01*
X37344089Y6520095D01*
X37314751Y6537971D01*
X37227880Y6629901D01*
X37222205Y6741201D01*
X37276900Y6848581D01*
X37316284Y6921533D01*
X37303004Y6943980D01*
X37249120Y6919997D01*
X37166693Y6853658D01*
X37103853Y6790115D01*
X36939691Y6570746D01*
X36774224Y6270789D01*
X36609575Y5894255D01*
X36556328Y5755348D01*
X36464837Y5524658D01*
X36386001Y5365348D01*
X36312149Y5266607D01*
X36235612Y5217625D01*
X36167272Y5207000D01*
X36118668Y5212360D01*
X36087855Y5234897D01*
X36076296Y5284296D01*
X36085450Y5370243D01*
X36116780Y5502424D01*
X36171746Y5690523D01*
X36251810Y5944226D01*
X36301876Y6099218D01*
X36375760Y6333263D01*
X36437249Y6540143D01*
X36482599Y6706230D01*
X36508068Y6817892D01*
X36510940Y6860523D01*
X36465892Y6862584D01*
X36382527Y6819787D01*
X36347151Y6794669D01*
X36238547Y6717340D01*
X36179295Y6694286D01*
X36155582Y6723402D01*
X36152666Y6765029D01*
X36181495Y6838876D01*
X36254292Y6936661D01*
X36295245Y6979584D01*
X36400434Y7067949D01*
X36494588Y7103821D01*
X36602162Y7104305D01*
X36715118Y7085162D01*
X36775628Y7037269D01*
X36809337Y6958311D01*
X36852174Y6825788D01*
X36999116Y6948461D01*
X37192618Y7076963D01*
X37370499Y7124296D01*
X37537617Y7091444D01*
X37584657Y7067120D01*
X37682455Y7014760D01*
X37747150Y7006246D01*
X37816809Y7039563D01*
X37838674Y7053676D01*
X37956522Y7102439D01*
X38102284Y7125917D01*
X38243103Y7122581D01*
X38243103Y7122581D01*
G37*
X38243103Y7122581D02*
X38346120Y7090903D01*
X38362447Y7078047D01*
X38405190Y6977657D01*
X38405749Y6805377D01*
X38364312Y6562620D01*
X38281069Y6250799D01*
X38231314Y6092292D01*
X38166701Y5890461D01*
X38112991Y5715920D01*
X38075148Y5585308D01*
X38058134Y5515263D01*
X38057666Y5510208D01*
X38084072Y5464830D01*
X38162232Y5484811D01*
X38286737Y5566833D01*
X38417948Y5654085D01*
X38496772Y5680857D01*
X38522127Y5654024D01*
X38492928Y5580458D01*
X38408093Y5467034D01*
X38317714Y5370286D01*
X38151358Y5229316D01*
X38008270Y5166094D01*
X37881535Y5179263D01*
X37768712Y5262645D01*
X37703313Y5353256D01*
X37676666Y5431077D01*
X37689122Y5494943D01*
X37723377Y5622931D01*
X37774761Y5798740D01*
X37838603Y6006070D01*
X37867166Y6096000D01*
X37956285Y6383130D01*
X38015982Y6598809D01*
X38047533Y6750493D01*
X38052216Y6845634D01*
X38031309Y6891687D01*
X38004750Y6898833D01*
X37883023Y6858515D01*
X37754297Y6754595D01*
X37667475Y6646627D01*
X37563448Y6526324D01*
X37460043Y6485499D01*
X37344089Y6520095D01*
X37314751Y6537971D01*
X37227880Y6629901D01*
X37222205Y6741201D01*
X37276900Y6848581D01*
X37316284Y6921533D01*
X37303004Y6943980D01*
X37249120Y6919997D01*
X37166693Y6853658D01*
X37103853Y6790115D01*
X36939691Y6570746D01*
X36774224Y6270789D01*
X36609575Y5894255D01*
X36556328Y5755348D01*
X36464837Y5524658D01*
X36386001Y5365348D01*
X36312149Y5266607D01*
X36235612Y5217625D01*
X36167272Y5207000D01*
X36118668Y5212360D01*
X36087855Y5234897D01*
X36076296Y5284296D01*
X36085450Y5370243D01*
X36116780Y5502424D01*
X36171746Y5690523D01*
X36251810Y5944226D01*
X36301876Y6099218D01*
X36375760Y6333263D01*
X36437249Y6540143D01*
X36482599Y6706230D01*
X36508068Y6817892D01*
X36510940Y6860523D01*
X36465892Y6862584D01*
X36382527Y6819787D01*
X36347151Y6794669D01*
X36238547Y6717340D01*
X36179295Y6694286D01*
X36155582Y6723402D01*
X36152666Y6765029D01*
X36181495Y6838876D01*
X36254292Y6936661D01*
X36295245Y6979584D01*
X36400434Y7067949D01*
X36494588Y7103821D01*
X36602162Y7104305D01*
X36715118Y7085162D01*
X36775628Y7037269D01*
X36809337Y6958311D01*
X36852174Y6825788D01*
X36999116Y6948461D01*
X37192618Y7076963D01*
X37370499Y7124296D01*
X37537617Y7091444D01*
X37584657Y7067120D01*
X37682455Y7014760D01*
X37747150Y7006246D01*
X37816809Y7039563D01*
X37838674Y7053676D01*
X37956522Y7102439D01*
X38102284Y7125917D01*
X38243103Y7122581D01*
G36*
X24367840Y7100106D02*
G01*
X24509533Y6995031D01*
X24524675Y6975912D01*
X24575874Y6894557D01*
X24588061Y6819109D01*
X24565304Y6711214D01*
X24556091Y6679579D01*
X24466209Y6496828D01*
X24302357Y6310266D01*
X24061144Y6116623D01*
X23792179Y5943679D01*
X23638679Y5848304D01*
X23514484Y5763064D01*
X23436976Y5700305D01*
X23420498Y5679725D01*
X23431614Y5611909D01*
X23485213Y5536639D01*
X23558302Y5480069D01*
X23635621Y5475927D01*
X23706322Y5496870D01*
X23812610Y5550069D01*
X23946785Y5638543D01*
X24044185Y5714039D01*
X24186385Y5823449D01*
X24286070Y5879475D01*
X24336651Y5878861D01*
X24341666Y5861065D01*
X24310357Y5769583D01*
X24228370Y5647812D01*
X24113620Y5515098D01*
X23984019Y5390789D01*
X23857480Y5294232D01*
X23778536Y5252838D01*
X23605977Y5205620D01*
X23433838Y5186973D01*
X23338284Y5193901D01*
X23254972Y5235937D01*
X23153266Y5320532D01*
X23111523Y5364455D01*
X23037329Y5456369D01*
X22999514Y5536534D01*
X22988727Y5637895D01*
X22994538Y5776630D01*
X23044021Y6028743D01*
X23412258Y6028743D01*
X23429866Y5972666D01*
X23446103Y5969000D01*
X23496900Y5990522D01*
X23597391Y6047234D01*
X23726827Y6127354D01*
X23740679Y6136275D01*
X23930701Y6277849D01*
X24087222Y6430668D01*
X24202100Y6582542D01*
X24267192Y6721280D01*
X24274354Y6834692D01*
X24243767Y6889376D01*
X24147253Y6932714D01*
X24025364Y6908026D01*
X23889087Y6823745D01*
X23749409Y6688303D01*
X23617319Y6510134D01*
X23520604Y6334338D01*
X23442697Y6150244D01*
X23412258Y6028743D01*
X23044021Y6028743D01*
X23057142Y6095592D01*
X23203497Y6408963D01*
X23432783Y6715122D01*
X23513857Y6801500D01*
X23674432Y6953365D01*
X23808011Y7049973D01*
X23935481Y7105891D01*
X23960666Y7113099D01*
X24181077Y7140388D01*
X24367840Y7100106D01*
X24367840Y7100106D01*
G37*
X24367840Y7100106D02*
X24509533Y6995031D01*
X24524675Y6975912D01*
X24575874Y6894557D01*
X24588061Y6819109D01*
X24565304Y6711214D01*
X24556091Y6679579D01*
X24466209Y6496828D01*
X24302357Y6310266D01*
X24061144Y6116623D01*
X23792179Y5943679D01*
X23638679Y5848304D01*
X23514484Y5763064D01*
X23436976Y5700305D01*
X23420498Y5679725D01*
X23431614Y5611909D01*
X23485213Y5536639D01*
X23558302Y5480069D01*
X23635621Y5475927D01*
X23706322Y5496870D01*
X23812610Y5550069D01*
X23946785Y5638543D01*
X24044185Y5714039D01*
X24186385Y5823449D01*
X24286070Y5879475D01*
X24336651Y5878861D01*
X24341666Y5861065D01*
X24310357Y5769583D01*
X24228370Y5647812D01*
X24113620Y5515098D01*
X23984019Y5390789D01*
X23857480Y5294232D01*
X23778536Y5252838D01*
X23605977Y5205620D01*
X23433838Y5186973D01*
X23338284Y5193901D01*
X23254972Y5235937D01*
X23153266Y5320532D01*
X23111523Y5364455D01*
X23037329Y5456369D01*
X22999514Y5536534D01*
X22988727Y5637895D01*
X22994538Y5776630D01*
X23044021Y6028743D01*
X23412258Y6028743D01*
X23429866Y5972666D01*
X23446103Y5969000D01*
X23496900Y5990522D01*
X23597391Y6047234D01*
X23726827Y6127354D01*
X23740679Y6136275D01*
X23930701Y6277849D01*
X24087222Y6430668D01*
X24202100Y6582542D01*
X24267192Y6721280D01*
X24274354Y6834692D01*
X24243767Y6889376D01*
X24147253Y6932714D01*
X24025364Y6908026D01*
X23889087Y6823745D01*
X23749409Y6688303D01*
X23617319Y6510134D01*
X23520604Y6334338D01*
X23442697Y6150244D01*
X23412258Y6028743D01*
X23044021Y6028743D01*
X23057142Y6095592D01*
X23203497Y6408963D01*
X23432783Y6715122D01*
X23513857Y6801500D01*
X23674432Y6953365D01*
X23808011Y7049973D01*
X23935481Y7105891D01*
X23960666Y7113099D01*
X24181077Y7140388D01*
X24367840Y7100106D01*
G36*
X32566213Y10665445D02*
G01*
X32901797Y10584233D01*
X33189333Y10465958D01*
X33366503Y10370466D01*
X33472684Y10293753D01*
X33517472Y10228626D01*
X33519654Y10218305D01*
X33510605Y10136018D01*
X33449806Y10103917D01*
X33332707Y10122232D01*
X33154759Y10191198D01*
X33046088Y10242511D01*
X32759963Y10364335D01*
X32473034Y10444006D01*
X32161418Y10485842D01*
X31801229Y10494162D01*
X31674297Y10490547D01*
X31461101Y10480023D01*
X31304070Y10463512D01*
X31174706Y10434776D01*
X31044507Y10387579D01*
X30893489Y10319682D01*
X30593591Y10149731D01*
X30335094Y9944994D01*
X30132964Y9719180D01*
X30013388Y9513422D01*
X29941303Y9277740D01*
X29900182Y8986577D01*
X29897596Y8949468D01*
X29889634Y8764169D01*
X29896569Y8630777D01*
X29923093Y8517152D01*
X29973893Y8391150D01*
X29981501Y8374420D01*
X30152803Y8093852D01*
X30393917Y7836174D01*
X30690499Y7614960D01*
X30910600Y7495085D01*
X31099644Y7410528D01*
X31290579Y7332927D01*
X31449544Y7275846D01*
X31484844Y7265063D01*
X31588308Y7236475D01*
X31665933Y7226053D01*
X31729858Y7243333D01*
X31739857Y7252074D01*
X32215666Y7252074D01*
X32254567Y7211182D01*
X32367169Y7198375D01*
X32547323Y7213590D01*
X32788882Y7256763D01*
X32794982Y7258057D01*
X33233280Y7373716D01*
X33606921Y7523747D01*
X33931828Y7716544D01*
X34223926Y7960496D01*
X34326669Y8065183D01*
X34530162Y8318451D01*
X34652444Y8557992D01*
X34695074Y8787901D01*
X34671735Y8971934D01*
X34593945Y9131047D01*
X34468373Y9227504D01*
X34302468Y9262821D01*
X34103681Y9238512D01*
X33879460Y9156093D01*
X33637254Y9017080D01*
X33384513Y8822988D01*
X33228493Y8678333D01*
X33070918Y8511247D01*
X32903614Y8314976D01*
X32735874Y8102607D01*
X32576989Y7887225D01*
X32436251Y7681913D01*
X32322953Y7499758D01*
X32246387Y7353844D01*
X32215843Y7257255D01*
X32215666Y7252074D01*
X31739857Y7252074D01*
X31792223Y7297850D01*
X31865166Y7399138D01*
X31960826Y7556733D01*
X32049528Y7708612D01*
X32279765Y8052981D01*
X32555396Y8382104D01*
X32864381Y8686729D01*
X33194679Y8957606D01*
X33534249Y9185482D01*
X33871050Y9361105D01*
X34193042Y9475226D01*
X34397982Y9513037D01*
X34631566Y9506621D01*
X34814351Y9439235D01*
X34944888Y9318702D01*
X35021725Y9152851D01*
X35043413Y8949508D01*
X35008502Y8716498D01*
X34915541Y8461649D01*
X34763080Y8192786D01*
X34667284Y8059684D01*
X34387835Y7762603D01*
X34041167Y7502557D01*
X33638681Y7285164D01*
X33191780Y7116042D01*
X32711864Y7000808D01*
X32441044Y6962760D01*
X32277149Y6939410D01*
X32162884Y6900736D01*
X32089401Y6832931D01*
X32047853Y6722189D01*
X32029391Y6554702D01*
X32025166Y6316663D01*
X32025166Y6313806D01*
X32027748Y6098601D01*
X32037896Y5944363D01*
X32059217Y5827485D01*
X32095315Y5724360D01*
X32124943Y5660534D01*
X32221875Y5508805D01*
X32341607Y5381602D01*
X32378400Y5353472D01*
X32532080Y5249044D01*
X32571438Y5409161D01*
X32875541Y5409161D01*
X32880955Y5265568D01*
X32884487Y5253705D01*
X32935983Y5216962D01*
X33038521Y5227427D01*
X33175967Y5280774D01*
X33332184Y5372680D01*
X33334625Y5374356D01*
X33552743Y5558182D01*
X33732627Y5776125D01*
X33863562Y6010173D01*
X33934830Y6242316D01*
X33943248Y6397285D01*
X33906799Y6548235D01*
X33829045Y6629030D01*
X33716113Y6639646D01*
X33574128Y6580060D01*
X33409217Y6450250D01*
X33357954Y6399441D01*
X33220314Y6229866D01*
X33095221Y6026613D01*
X32990706Y5809120D01*
X32914802Y5596824D01*
X32875541Y5409161D01*
X32571438Y5409161D01*
X32605586Y5548077D01*
X32705935Y5860198D01*
X32842151Y6143266D01*
X33006300Y6390888D01*
X33190444Y6596671D01*
X33386649Y6754221D01*
X33586979Y6857143D01*
X33783498Y6899046D01*
X33968270Y6873534D01*
X34130582Y6776715D01*
X34214837Y6691129D01*
X34254246Y6608904D01*
X34263545Y6492503D01*
X34262531Y6440622D01*
X34219550Y6188854D01*
X34112879Y5920804D01*
X33954870Y5657421D01*
X33757875Y5419651D01*
X33557427Y5244851D01*
X33419069Y5160142D01*
X33247007Y5075301D01*
X33140532Y5031910D01*
X32980364Y4962189D01*
X32902131Y4899259D01*
X32893000Y4870949D01*
X32922573Y4767577D01*
X33000393Y4631719D01*
X33110108Y4485623D01*
X33235365Y4351537D01*
X33336814Y4267128D01*
X33467711Y4158851D01*
X33529370Y4074181D01*
X33524067Y4021756D01*
X33454075Y4010217D01*
X33321671Y4048201D01*
X33283451Y4064483D01*
X33096303Y4181811D01*
X32906759Y4359238D01*
X32735535Y4575410D01*
X32647221Y4720343D01*
X32560905Y4857182D01*
X32461227Y4952183D01*
X32315624Y5035462D01*
X32296485Y5044685D01*
X32055687Y5198223D01*
X31847430Y5405043D01*
X31692528Y5642250D01*
X31641578Y5765125D01*
X31607889Y5893360D01*
X31588689Y6042563D01*
X31582291Y6234271D01*
X31586377Y6470361D01*
X31601833Y6962868D01*
X31157333Y7111805D01*
X30947183Y7186875D01*
X30740630Y7268619D01*
X30567098Y7345028D01*
X30488148Y7384924D01*
X30200051Y7584268D01*
X29945471Y7837952D01*
X29746651Y8122642D01*
X29701259Y8210488D01*
X29637727Y8353271D01*
X29598640Y8473717D01*
X29578202Y8601779D01*
X29570622Y8767412D01*
X29569833Y8890000D01*
X29583789Y9169839D01*
X29632153Y9402863D01*
X29724667Y9610005D01*
X29871071Y9812200D01*
X30081110Y10030381D01*
X30115685Y10062962D01*
X30345737Y10261839D01*
X30566734Y10413602D01*
X30797017Y10525292D01*
X31054927Y10603948D01*
X31358806Y10656611D01*
X31726995Y10690323D01*
X31754648Y10692092D01*
X32189290Y10700537D01*
X32566213Y10665445D01*
X32566213Y10665445D01*
G37*
X32566213Y10665445D02*
X32901797Y10584233D01*
X33189333Y10465958D01*
X33366503Y10370466D01*
X33472684Y10293753D01*
X33517472Y10228626D01*
X33519654Y10218305D01*
X33510605Y10136018D01*
X33449806Y10103917D01*
X33332707Y10122232D01*
X33154759Y10191198D01*
X33046088Y10242511D01*
X32759963Y10364335D01*
X32473034Y10444006D01*
X32161418Y10485842D01*
X31801229Y10494162D01*
X31674297Y10490547D01*
X31461101Y10480023D01*
X31304070Y10463512D01*
X31174706Y10434776D01*
X31044507Y10387579D01*
X30893489Y10319682D01*
X30593591Y10149731D01*
X30335094Y9944994D01*
X30132964Y9719180D01*
X30013388Y9513422D01*
X29941303Y9277740D01*
X29900182Y8986577D01*
X29897596Y8949468D01*
X29889634Y8764169D01*
X29896569Y8630777D01*
X29923093Y8517152D01*
X29973893Y8391150D01*
X29981501Y8374420D01*
X30152803Y8093852D01*
X30393917Y7836174D01*
X30690499Y7614960D01*
X30910600Y7495085D01*
X31099644Y7410528D01*
X31290579Y7332927D01*
X31449544Y7275846D01*
X31484844Y7265063D01*
X31588308Y7236475D01*
X31665933Y7226053D01*
X31729858Y7243333D01*
X31739857Y7252074D01*
X32215666Y7252074D01*
X32254567Y7211182D01*
X32367169Y7198375D01*
X32547323Y7213590D01*
X32788882Y7256763D01*
X32794982Y7258057D01*
X33233280Y7373716D01*
X33606921Y7523747D01*
X33931828Y7716544D01*
X34223926Y7960496D01*
X34326669Y8065183D01*
X34530162Y8318451D01*
X34652444Y8557992D01*
X34695074Y8787901D01*
X34671735Y8971934D01*
X34593945Y9131047D01*
X34468373Y9227504D01*
X34302468Y9262821D01*
X34103681Y9238512D01*
X33879460Y9156093D01*
X33637254Y9017080D01*
X33384513Y8822988D01*
X33228493Y8678333D01*
X33070918Y8511247D01*
X32903614Y8314976D01*
X32735874Y8102607D01*
X32576989Y7887225D01*
X32436251Y7681913D01*
X32322953Y7499758D01*
X32246387Y7353844D01*
X32215843Y7257255D01*
X32215666Y7252074D01*
X31739857Y7252074D01*
X31792223Y7297850D01*
X31865166Y7399138D01*
X31960826Y7556733D01*
X32049528Y7708612D01*
X32279765Y8052981D01*
X32555396Y8382104D01*
X32864381Y8686729D01*
X33194679Y8957606D01*
X33534249Y9185482D01*
X33871050Y9361105D01*
X34193042Y9475226D01*
X34397982Y9513037D01*
X34631566Y9506621D01*
X34814351Y9439235D01*
X34944888Y9318702D01*
X35021725Y9152851D01*
X35043413Y8949508D01*
X35008502Y8716498D01*
X34915541Y8461649D01*
X34763080Y8192786D01*
X34667284Y8059684D01*
X34387835Y7762603D01*
X34041167Y7502557D01*
X33638681Y7285164D01*
X33191780Y7116042D01*
X32711864Y7000808D01*
X32441044Y6962760D01*
X32277149Y6939410D01*
X32162884Y6900736D01*
X32089401Y6832931D01*
X32047853Y6722189D01*
X32029391Y6554702D01*
X32025166Y6316663D01*
X32025166Y6313806D01*
X32027748Y6098601D01*
X32037896Y5944363D01*
X32059217Y5827485D01*
X32095315Y5724360D01*
X32124943Y5660534D01*
X32221875Y5508805D01*
X32341607Y5381602D01*
X32378400Y5353472D01*
X32532080Y5249044D01*
X32571438Y5409161D01*
X32875541Y5409161D01*
X32880955Y5265568D01*
X32884487Y5253705D01*
X32935983Y5216962D01*
X33038521Y5227427D01*
X33175967Y5280774D01*
X33332184Y5372680D01*
X33334625Y5374356D01*
X33552743Y5558182D01*
X33732627Y5776125D01*
X33863562Y6010173D01*
X33934830Y6242316D01*
X33943248Y6397285D01*
X33906799Y6548235D01*
X33829045Y6629030D01*
X33716113Y6639646D01*
X33574128Y6580060D01*
X33409217Y6450250D01*
X33357954Y6399441D01*
X33220314Y6229866D01*
X33095221Y6026613D01*
X32990706Y5809120D01*
X32914802Y5596824D01*
X32875541Y5409161D01*
X32571438Y5409161D01*
X32605586Y5548077D01*
X32705935Y5860198D01*
X32842151Y6143266D01*
X33006300Y6390888D01*
X33190444Y6596671D01*
X33386649Y6754221D01*
X33586979Y6857143D01*
X33783498Y6899046D01*
X33968270Y6873534D01*
X34130582Y6776715D01*
X34214837Y6691129D01*
X34254246Y6608904D01*
X34263545Y6492503D01*
X34262531Y6440622D01*
X34219550Y6188854D01*
X34112879Y5920804D01*
X33954870Y5657421D01*
X33757875Y5419651D01*
X33557427Y5244851D01*
X33419069Y5160142D01*
X33247007Y5075301D01*
X33140532Y5031910D01*
X32980364Y4962189D01*
X32902131Y4899259D01*
X32893000Y4870949D01*
X32922573Y4767577D01*
X33000393Y4631719D01*
X33110108Y4485623D01*
X33235365Y4351537D01*
X33336814Y4267128D01*
X33467711Y4158851D01*
X33529370Y4074181D01*
X33524067Y4021756D01*
X33454075Y4010217D01*
X33321671Y4048201D01*
X33283451Y4064483D01*
X33096303Y4181811D01*
X32906759Y4359238D01*
X32735535Y4575410D01*
X32647221Y4720343D01*
X32560905Y4857182D01*
X32461227Y4952183D01*
X32315624Y5035462D01*
X32296485Y5044685D01*
X32055687Y5198223D01*
X31847430Y5405043D01*
X31692528Y5642250D01*
X31641578Y5765125D01*
X31607889Y5893360D01*
X31588689Y6042563D01*
X31582291Y6234271D01*
X31586377Y6470361D01*
X31601833Y6962868D01*
X31157333Y7111805D01*
X30947183Y7186875D01*
X30740630Y7268619D01*
X30567098Y7345028D01*
X30488148Y7384924D01*
X30200051Y7584268D01*
X29945471Y7837952D01*
X29746651Y8122642D01*
X29701259Y8210488D01*
X29637727Y8353271D01*
X29598640Y8473717D01*
X29578202Y8601779D01*
X29570622Y8767412D01*
X29569833Y8890000D01*
X29583789Y9169839D01*
X29632153Y9402863D01*
X29724667Y9610005D01*
X29871071Y9812200D01*
X30081110Y10030381D01*
X30115685Y10062962D01*
X30345737Y10261839D01*
X30566734Y10413602D01*
X30797017Y10525292D01*
X31054927Y10603948D01*
X31358806Y10656611D01*
X31726995Y10690323D01*
X31754648Y10692092D01*
X32189290Y10700537D01*
X32566213Y10665445D01*
G36*
X28419285Y7127429D02*
G01*
X28466142Y7087810D01*
X28517789Y6988583D01*
X28528745Y6831685D01*
X28498547Y6612773D01*
X28426734Y6327504D01*
X28363333Y6122239D01*
X28299369Y5920387D01*
X28246470Y5743469D01*
X28209718Y5609216D01*
X28194194Y5535360D01*
X28194000Y5531375D01*
X28219397Y5470287D01*
X28287348Y5465272D01*
X28385490Y5507961D01*
X28501460Y5589984D01*
X28622894Y5702975D01*
X28737431Y5838564D01*
X28810622Y5948774D01*
X28878994Y6083340D01*
X28954393Y6258678D01*
X29014100Y6418793D01*
X29111807Y6681766D01*
X29205134Y6886133D01*
X29289835Y7023703D01*
X29359825Y7085612D01*
X29466632Y7113296D01*
X29527464Y7092221D01*
X29543575Y7016101D01*
X29516217Y6878646D01*
X29446644Y6673570D01*
X29443571Y6665388D01*
X29395151Y6528770D01*
X29329333Y6331870D01*
X29252899Y6095547D01*
X29172632Y5840657D01*
X29123222Y5680171D01*
X28954017Y5165709D01*
X28783163Y4730462D01*
X28607353Y4368995D01*
X28423277Y4075872D01*
X28227627Y3845659D01*
X28017094Y3672920D01*
X27841956Y3575288D01*
X27619428Y3498792D01*
X27374492Y3455258D01*
X27139977Y3448398D01*
X26966333Y3476232D01*
X26736371Y3582181D01*
X26561809Y3739156D01*
X26451954Y3935790D01*
X26416000Y4148667D01*
X26448903Y4362954D01*
X26553099Y4552976D01*
X26655637Y4664980D01*
X26791375Y4766622D01*
X26962293Y4856181D01*
X27146638Y4926556D01*
X27322654Y4970646D01*
X27468588Y4981350D01*
X27553840Y4958183D01*
X27593964Y4905754D01*
X27561713Y4860040D01*
X27469313Y4831115D01*
X27393428Y4826000D01*
X27196937Y4785498D01*
X27019287Y4671178D01*
X26875906Y4493821D01*
X26849916Y4446272D01*
X26770622Y4228695D01*
X26769764Y4040774D01*
X26848345Y3877927D01*
X27004960Y3737187D01*
X27205835Y3649652D01*
X27424599Y3638322D01*
X27649205Y3700205D01*
X27867605Y3832309D01*
X28035544Y3993153D01*
X28166904Y4171481D01*
X28306872Y4406736D01*
X28443057Y4673821D01*
X28563069Y4947643D01*
X28654516Y5203104D01*
X28682627Y5303692D01*
X28711902Y5421550D01*
X28510145Y5314275D01*
X28299441Y5230014D01*
X28114934Y5211766D01*
X27968239Y5260523D01*
X27958674Y5267210D01*
X27895582Y5363652D01*
X27879074Y5527073D01*
X27909248Y5758428D01*
X27986197Y6058671D01*
X28061662Y6292148D01*
X28143422Y6532981D01*
X28197750Y6703379D01*
X28226203Y6812456D01*
X28230337Y6869328D01*
X28211708Y6883108D01*
X28171875Y6862910D01*
X28157368Y6852580D01*
X27925652Y6686411D01*
X27748471Y6571516D01*
X27615753Y6504442D01*
X27517429Y6481741D01*
X27443427Y6499962D01*
X27383678Y6555653D01*
X27365611Y6581301D01*
X27322805Y6662668D01*
X27326471Y6734636D01*
X27361390Y6814135D01*
X27397033Y6907102D01*
X27386759Y6942999D01*
X27340070Y6928768D01*
X27266465Y6871350D01*
X27175444Y6777687D01*
X27076507Y6654721D01*
X27008508Y6556287D01*
X26912198Y6387147D01*
X26813124Y6181048D01*
X26732528Y5982227D01*
X26731656Y5979771D01*
X26623381Y5684321D01*
X26535413Y5466593D01*
X26465969Y5322577D01*
X26413271Y5248260D01*
X26403770Y5240880D01*
X26330688Y5216842D01*
X26235209Y5208488D01*
X26152912Y5216085D01*
X26119332Y5238750D01*
X26132289Y5286948D01*
X26168571Y5402331D01*
X26223970Y5572017D01*
X26294276Y5783128D01*
X26375280Y6022782D01*
X26382092Y6042790D01*
X26479332Y6333988D01*
X26547907Y6553682D01*
X26589773Y6709303D01*
X26606887Y6808282D01*
X26601204Y6858050D01*
X26597881Y6862385D01*
X26547559Y6877331D01*
X26478402Y6825511D01*
X26454487Y6799179D01*
X26379305Y6724593D01*
X26323241Y6689135D01*
X26319226Y6688667D01*
X26264126Y6663559D01*
X26176898Y6601357D01*
X26154279Y6582833D01*
X26015422Y6498981D01*
X25886466Y6481001D01*
X25789466Y6527800D01*
X25749754Y6615021D01*
X25740973Y6736876D01*
X25763123Y6849182D01*
X25789466Y6891867D01*
X25819370Y6935549D01*
X25793360Y6941886D01*
X25729230Y6915193D01*
X25644774Y6859785D01*
X25639173Y6855424D01*
X25535159Y6742628D01*
X25415654Y6560334D01*
X25287332Y6320761D01*
X25156867Y6036124D01*
X25058717Y5792805D01*
X24984734Y5608641D01*
X24913283Y5448037D01*
X24853934Y5331630D01*
X24824061Y5286763D01*
X24741453Y5229121D01*
X24649481Y5208034D01*
X24577315Y5225160D01*
X24553333Y5271364D01*
X24565923Y5331015D01*
X24600855Y5456750D01*
X24653875Y5634271D01*
X24720727Y5849281D01*
X24786166Y6053667D01*
X24861524Y6289511D01*
X24926715Y6500186D01*
X24977486Y6671393D01*
X25009580Y6788836D01*
X25019000Y6835970D01*
X24997356Y6893590D01*
X24938190Y6882262D01*
X24850147Y6804008D01*
X24841752Y6794500D01*
X24755911Y6718107D01*
X24682454Y6689290D01*
X24641182Y6713828D01*
X24638000Y6735048D01*
X24671123Y6826709D01*
X24755483Y6935005D01*
X24868566Y7034985D01*
X24957217Y7088811D01*
X25061373Y7132362D01*
X25130269Y7135579D01*
X25202732Y7099109D01*
X25212051Y7093055D01*
X25287436Y7019275D01*
X25315333Y6948746D01*
X25328606Y6867105D01*
X25373580Y6850843D01*
X25457989Y6900522D01*
X25533416Y6964594D01*
X25700494Y7076360D01*
X25868020Y7119790D01*
X26020639Y7095439D01*
X26142997Y7003864D01*
X26184005Y6941044D01*
X26245213Y6822681D01*
X26389873Y6967340D01*
X26540903Y7083294D01*
X26678291Y7117395D01*
X26799145Y7069669D01*
X26887717Y6963084D01*
X26975580Y6814169D01*
X27140412Y6963084D01*
X27277765Y7066506D01*
X27402098Y7109031D01*
X27449826Y7112000D01*
X27607608Y7099165D01*
X27710347Y7051482D01*
X27784998Y6955182D01*
X27795588Y6935404D01*
X27859713Y6811402D01*
X27979555Y6939693D01*
X28104868Y7046467D01*
X28243654Y7124190D01*
X28362804Y7154333D01*
X28363065Y7154334D01*
X28419285Y7127429D01*
X28419285Y7127429D01*
G37*
X28419285Y7127429D02*
X28466142Y7087810D01*
X28517789Y6988583D01*
X28528745Y6831685D01*
X28498547Y6612773D01*
X28426734Y6327504D01*
X28363333Y6122239D01*
X28299369Y5920387D01*
X28246470Y5743469D01*
X28209718Y5609216D01*
X28194194Y5535360D01*
X28194000Y5531375D01*
X28219397Y5470287D01*
X28287348Y5465272D01*
X28385490Y5507961D01*
X28501460Y5589984D01*
X28622894Y5702975D01*
X28737431Y5838564D01*
X28810622Y5948774D01*
X28878994Y6083340D01*
X28954393Y6258678D01*
X29014100Y6418793D01*
X29111807Y6681766D01*
X29205134Y6886133D01*
X29289835Y7023703D01*
X29359825Y7085612D01*
X29466632Y7113296D01*
X29527464Y7092221D01*
X29543575Y7016101D01*
X29516217Y6878646D01*
X29446644Y6673570D01*
X29443571Y6665388D01*
X29395151Y6528770D01*
X29329333Y6331870D01*
X29252899Y6095547D01*
X29172632Y5840657D01*
X29123222Y5680171D01*
X28954017Y5165709D01*
X28783163Y4730462D01*
X28607353Y4368995D01*
X28423277Y4075872D01*
X28227627Y3845659D01*
X28017094Y3672920D01*
X27841956Y3575288D01*
X27619428Y3498792D01*
X27374492Y3455258D01*
X27139977Y3448398D01*
X26966333Y3476232D01*
X26736371Y3582181D01*
X26561809Y3739156D01*
X26451954Y3935790D01*
X26416000Y4148667D01*
X26448903Y4362954D01*
X26553099Y4552976D01*
X26655637Y4664980D01*
X26791375Y4766622D01*
X26962293Y4856181D01*
X27146638Y4926556D01*
X27322654Y4970646D01*
X27468588Y4981350D01*
X27553840Y4958183D01*
X27593964Y4905754D01*
X27561713Y4860040D01*
X27469313Y4831115D01*
X27393428Y4826000D01*
X27196937Y4785498D01*
X27019287Y4671178D01*
X26875906Y4493821D01*
X26849916Y4446272D01*
X26770622Y4228695D01*
X26769764Y4040774D01*
X26848345Y3877927D01*
X27004960Y3737187D01*
X27205835Y3649652D01*
X27424599Y3638322D01*
X27649205Y3700205D01*
X27867605Y3832309D01*
X28035544Y3993153D01*
X28166904Y4171481D01*
X28306872Y4406736D01*
X28443057Y4673821D01*
X28563069Y4947643D01*
X28654516Y5203104D01*
X28682627Y5303692D01*
X28711902Y5421550D01*
X28510145Y5314275D01*
X28299441Y5230014D01*
X28114934Y5211766D01*
X27968239Y5260523D01*
X27958674Y5267210D01*
X27895582Y5363652D01*
X27879074Y5527073D01*
X27909248Y5758428D01*
X27986197Y6058671D01*
X28061662Y6292148D01*
X28143422Y6532981D01*
X28197750Y6703379D01*
X28226203Y6812456D01*
X28230337Y6869328D01*
X28211708Y6883108D01*
X28171875Y6862910D01*
X28157368Y6852580D01*
X27925652Y6686411D01*
X27748471Y6571516D01*
X27615753Y6504442D01*
X27517429Y6481741D01*
X27443427Y6499962D01*
X27383678Y6555653D01*
X27365611Y6581301D01*
X27322805Y6662668D01*
X27326471Y6734636D01*
X27361390Y6814135D01*
X27397033Y6907102D01*
X27386759Y6942999D01*
X27340070Y6928768D01*
X27266465Y6871350D01*
X27175444Y6777687D01*
X27076507Y6654721D01*
X27008508Y6556287D01*
X26912198Y6387147D01*
X26813124Y6181048D01*
X26732528Y5982227D01*
X26731656Y5979771D01*
X26623381Y5684321D01*
X26535413Y5466593D01*
X26465969Y5322577D01*
X26413271Y5248260D01*
X26403770Y5240880D01*
X26330688Y5216842D01*
X26235209Y5208488D01*
X26152912Y5216085D01*
X26119332Y5238750D01*
X26132289Y5286948D01*
X26168571Y5402331D01*
X26223970Y5572017D01*
X26294276Y5783128D01*
X26375280Y6022782D01*
X26382092Y6042790D01*
X26479332Y6333988D01*
X26547907Y6553682D01*
X26589773Y6709303D01*
X26606887Y6808282D01*
X26601204Y6858050D01*
X26597881Y6862385D01*
X26547559Y6877331D01*
X26478402Y6825511D01*
X26454487Y6799179D01*
X26379305Y6724593D01*
X26323241Y6689135D01*
X26319226Y6688667D01*
X26264126Y6663559D01*
X26176898Y6601357D01*
X26154279Y6582833D01*
X26015422Y6498981D01*
X25886466Y6481001D01*
X25789466Y6527800D01*
X25749754Y6615021D01*
X25740973Y6736876D01*
X25763123Y6849182D01*
X25789466Y6891867D01*
X25819370Y6935549D01*
X25793360Y6941886D01*
X25729230Y6915193D01*
X25644774Y6859785D01*
X25639173Y6855424D01*
X25535159Y6742628D01*
X25415654Y6560334D01*
X25287332Y6320761D01*
X25156867Y6036124D01*
X25058717Y5792805D01*
X24984734Y5608641D01*
X24913283Y5448037D01*
X24853934Y5331630D01*
X24824061Y5286763D01*
X24741453Y5229121D01*
X24649481Y5208034D01*
X24577315Y5225160D01*
X24553333Y5271364D01*
X24565923Y5331015D01*
X24600855Y5456750D01*
X24653875Y5634271D01*
X24720727Y5849281D01*
X24786166Y6053667D01*
X24861524Y6289511D01*
X24926715Y6500186D01*
X24977486Y6671393D01*
X25009580Y6788836D01*
X25019000Y6835970D01*
X24997356Y6893590D01*
X24938190Y6882262D01*
X24850147Y6804008D01*
X24841752Y6794500D01*
X24755911Y6718107D01*
X24682454Y6689290D01*
X24641182Y6713828D01*
X24638000Y6735048D01*
X24671123Y6826709D01*
X24755483Y6935005D01*
X24868566Y7034985D01*
X24957217Y7088811D01*
X25061373Y7132362D01*
X25130269Y7135579D01*
X25202732Y7099109D01*
X25212051Y7093055D01*
X25287436Y7019275D01*
X25315333Y6948746D01*
X25328606Y6867105D01*
X25373580Y6850843D01*
X25457989Y6900522D01*
X25533416Y6964594D01*
X25700494Y7076360D01*
X25868020Y7119790D01*
X26020639Y7095439D01*
X26142997Y7003864D01*
X26184005Y6941044D01*
X26245213Y6822681D01*
X26389873Y6967340D01*
X26540903Y7083294D01*
X26678291Y7117395D01*
X26799145Y7069669D01*
X26887717Y6963084D01*
X26975580Y6814169D01*
X27140412Y6963084D01*
X27277765Y7066506D01*
X27402098Y7109031D01*
X27449826Y7112000D01*
X27607608Y7099165D01*
X27710347Y7051482D01*
X27784998Y6955182D01*
X27795588Y6935404D01*
X27859713Y6811402D01*
X27979555Y6939693D01*
X28104868Y7046467D01*
X28243654Y7124190D01*
X28362804Y7154333D01*
X28363065Y7154334D01*
X28419285Y7127429D01*
G36*
X24937887Y9625797D02*
G01*
X25063217Y9564234D01*
X25131138Y9451423D01*
X25131614Y9449555D01*
X25127506Y9337782D01*
X25061204Y9264378D01*
X24948805Y9235474D01*
X24806405Y9257205D01*
X24720929Y9293065D01*
X24610089Y9332445D01*
X24500059Y9326830D01*
X24376834Y9270410D01*
X24226407Y9157376D01*
X24084112Y9028938D01*
X23779047Y8692624D01*
X23497875Y8287883D01*
X23245933Y7828897D01*
X23028561Y7329848D01*
X22851098Y6804918D01*
X22718883Y6268287D01*
X22637256Y5734139D01*
X22611554Y5216656D01*
X22613403Y5122333D01*
X22630562Y4821526D01*
X22665742Y4584486D01*
X22726495Y4390965D01*
X22820374Y4220715D01*
X22954932Y4053486D01*
X23048405Y3956072D01*
X23306415Y3741167D01*
X23588734Y3595696D01*
X23918324Y3507996D01*
X23936620Y3504891D01*
X24255115Y3489830D01*
X24566020Y3545216D01*
X24852640Y3664459D01*
X25098280Y3840966D01*
X25259877Y4027402D01*
X25417940Y4242565D01*
X25551145Y4389569D01*
X25656652Y4466803D01*
X25731620Y4472659D01*
X25773210Y4405528D01*
X25781000Y4322740D01*
X25747624Y4212245D01*
X25655941Y4070061D01*
X25518611Y3910669D01*
X25348297Y3748550D01*
X25157662Y3598184D01*
X25131239Y3579697D01*
X24850538Y3430492D01*
X24519688Y3326285D01*
X24162091Y3270143D01*
X23801151Y3265132D01*
X23460271Y3314317D01*
X23346833Y3345926D01*
X23022904Y3491111D01*
X22752518Y3699628D01*
X22537141Y3968058D01*
X22378237Y4292977D01*
X22277272Y4670963D01*
X22235711Y5098596D01*
X22255019Y5572451D01*
X22287200Y5820833D01*
X22353265Y6166809D01*
X22445193Y6543539D01*
X22554472Y6921300D01*
X22672588Y7270375D01*
X22776318Y7528515D01*
X22831123Y7657776D01*
X22850847Y7721347D01*
X22834068Y7717699D01*
X22779361Y7645301D01*
X22685304Y7502624D01*
X22550471Y7288139D01*
X22546249Y7281333D01*
X22365266Y6973690D01*
X22160946Y6597954D01*
X21939222Y6165478D01*
X21706028Y5687616D01*
X21635252Y5538235D01*
X21516780Y5302357D01*
X21417976Y5143364D01*
X21334413Y5056978D01*
X21261668Y5038918D01*
X21195315Y5084903D01*
X21182930Y5100713D01*
X21138759Y5209807D01*
X21108059Y5387740D01*
X21090482Y5619821D01*
X21085682Y5891358D01*
X21093311Y6187658D01*
X21113021Y6494030D01*
X21144466Y6795782D01*
X21187297Y7078221D01*
X21234977Y7302500D01*
X21224214Y7297426D01*
X21180549Y7227747D01*
X21110074Y7104010D01*
X21018883Y6936764D01*
X20962742Y6831259D01*
X20752864Y6444554D01*
X20566398Y6125731D01*
X20396035Y5863775D01*
X20234467Y5647672D01*
X20074385Y5466405D01*
X20022434Y5414111D01*
X19763465Y5192378D01*
X19505186Y5042343D01*
X19225694Y4954107D01*
X18926422Y4918782D01*
X18639309Y4917447D01*
X18412794Y4947911D01*
X18227005Y5015642D01*
X18062072Y5126112D01*
X18011157Y5170731D01*
X17870171Y5325183D01*
X17784296Y5488356D01*
X17745641Y5683317D01*
X17746314Y5933134D01*
X17746945Y5943044D01*
X17790316Y6229721D01*
X17885974Y6466871D01*
X18044855Y6678852D01*
X18104496Y6739267D01*
X18255749Y6861493D01*
X18424330Y6960477D01*
X18593786Y7031039D01*
X18747666Y7067997D01*
X18869514Y7066169D01*
X18942880Y7020373D01*
X18950231Y7005628D01*
X18948003Y6916287D01*
X18875685Y6850022D01*
X18746917Y6817359D01*
X18704047Y6815667D01*
X18495470Y6782609D01*
X18327255Y6689513D01*
X18225033Y6562699D01*
X18180799Y6439067D01*
X18141154Y6262691D01*
X18110324Y6063593D01*
X18092535Y5871792D01*
X18092014Y5717309D01*
X18098870Y5666426D01*
X18158621Y5529505D01*
X18268123Y5381285D01*
X18402817Y5251044D01*
X18503848Y5183671D01*
X18614212Y5149367D01*
X18771781Y5127309D01*
X18888540Y5122333D01*
X19141499Y5150268D01*
X19384196Y5238361D01*
X19629436Y5393043D01*
X19890025Y5620749D01*
X19899797Y5630333D01*
X20044851Y5785049D01*
X20185683Y5962211D01*
X20328519Y6171972D01*
X20479590Y6424480D01*
X20645122Y6729887D01*
X20831344Y7098344D01*
X20949289Y7340786D01*
X21075283Y7598648D01*
X21207695Y7862898D01*
X21334815Y8110609D01*
X21444931Y8318852D01*
X21499619Y8418247D01*
X21589336Y8578932D01*
X21661041Y8710273D01*
X21706028Y8796145D01*
X21717000Y8820959D01*
X21679283Y8836376D01*
X21583266Y8856494D01*
X21515916Y8867272D01*
X21397958Y8887582D01*
X21220391Y8922043D01*
X21006168Y8966042D01*
X20778243Y9014967D01*
X20750739Y9021022D01*
X20510236Y9072252D01*
X20334647Y9104153D01*
X20206913Y9118583D01*
X20109977Y9117402D01*
X20026779Y9102468D01*
X20019933Y9100662D01*
X19800533Y9000163D01*
X19613905Y8835170D01*
X19474361Y8623818D01*
X19396210Y8384240D01*
X19386026Y8297333D01*
X19377999Y8093113D01*
X19389258Y7944809D01*
X19428202Y7824372D01*
X19503231Y7703754D01*
X19600333Y7581719D01*
X19700690Y7455810D01*
X19775313Y7352058D01*
X19810782Y7289390D01*
X19812000Y7283188D01*
X19774666Y7254538D01*
X19682324Y7239611D01*
X19656576Y7239000D01*
X19500821Y7278359D01*
X19350226Y7385657D01*
X19219674Y7544727D01*
X19124046Y7739402D01*
X19092569Y7851695D01*
X19067699Y8165055D01*
X19122197Y8461226D01*
X19251134Y8730942D01*
X19449582Y8964937D01*
X19712616Y9153944D01*
X19812000Y9204517D01*
X19936615Y9258637D01*
X20045174Y9292205D01*
X20156557Y9305356D01*
X20289645Y9298224D01*
X20463319Y9270942D01*
X20696461Y9223644D01*
X20754635Y9211205D01*
X21070723Y9146126D01*
X21320664Y9102160D01*
X21519935Y9077920D01*
X21684011Y9072019D01*
X21828368Y9083073D01*
X21945965Y9104502D01*
X22094912Y9132457D01*
X22184609Y9133422D01*
X22235983Y9107617D01*
X22236045Y9107555D01*
X22264805Y9048436D01*
X22234021Y8984085D01*
X22005570Y8610860D01*
X21817072Y8177762D01*
X21677473Y7726670D01*
X21634935Y7543987D01*
X21591215Y7320950D01*
X21547982Y7070539D01*
X21506902Y6805739D01*
X21469644Y6539530D01*
X21437875Y6284896D01*
X21413262Y6054819D01*
X21397474Y5862282D01*
X21392178Y5720267D01*
X21399041Y5641757D01*
X21408196Y5630333D01*
X21437774Y5666328D01*
X21497314Y5765912D01*
X21579849Y5916490D01*
X21678409Y6105464D01*
X21753652Y6254750D01*
X22105636Y6924085D01*
X22462724Y7527682D01*
X22681466Y7852833D01*
X22902333Y7852833D01*
X22923500Y7831667D01*
X22944666Y7852833D01*
X22923500Y7874000D01*
X22902333Y7852833D01*
X22681466Y7852833D01*
X22822576Y8062586D01*
X23182854Y8525844D01*
X23541218Y8914499D01*
X23895329Y9225598D01*
X24242848Y9456185D01*
X24320500Y9496973D01*
X24556222Y9592769D01*
X24765454Y9635510D01*
X24937887Y9625797D01*
X24937887Y9625797D01*
G37*
X24937887Y9625797D02*
X25063217Y9564234D01*
X25131138Y9451423D01*
X25131614Y9449555D01*
X25127506Y9337782D01*
X25061204Y9264378D01*
X24948805Y9235474D01*
X24806405Y9257205D01*
X24720929Y9293065D01*
X24610089Y9332445D01*
X24500059Y9326830D01*
X24376834Y9270410D01*
X24226407Y9157376D01*
X24084112Y9028938D01*
X23779047Y8692624D01*
X23497875Y8287883D01*
X23245933Y7828897D01*
X23028561Y7329848D01*
X22851098Y6804918D01*
X22718883Y6268287D01*
X22637256Y5734139D01*
X22611554Y5216656D01*
X22613403Y5122333D01*
X22630562Y4821526D01*
X22665742Y4584486D01*
X22726495Y4390965D01*
X22820374Y4220715D01*
X22954932Y4053486D01*
X23048405Y3956072D01*
X23306415Y3741167D01*
X23588734Y3595696D01*
X23918324Y3507996D01*
X23936620Y3504891D01*
X24255115Y3489830D01*
X24566020Y3545216D01*
X24852640Y3664459D01*
X25098280Y3840966D01*
X25259877Y4027402D01*
X25417940Y4242565D01*
X25551145Y4389569D01*
X25656652Y4466803D01*
X25731620Y4472659D01*
X25773210Y4405528D01*
X25781000Y4322740D01*
X25747624Y4212245D01*
X25655941Y4070061D01*
X25518611Y3910669D01*
X25348297Y3748550D01*
X25157662Y3598184D01*
X25131239Y3579697D01*
X24850538Y3430492D01*
X24519688Y3326285D01*
X24162091Y3270143D01*
X23801151Y3265132D01*
X23460271Y3314317D01*
X23346833Y3345926D01*
X23022904Y3491111D01*
X22752518Y3699628D01*
X22537141Y3968058D01*
X22378237Y4292977D01*
X22277272Y4670963D01*
X22235711Y5098596D01*
X22255019Y5572451D01*
X22287200Y5820833D01*
X22353265Y6166809D01*
X22445193Y6543539D01*
X22554472Y6921300D01*
X22672588Y7270375D01*
X22776318Y7528515D01*
X22831123Y7657776D01*
X22850847Y7721347D01*
X22834068Y7717699D01*
X22779361Y7645301D01*
X22685304Y7502624D01*
X22550471Y7288139D01*
X22546249Y7281333D01*
X22365266Y6973690D01*
X22160946Y6597954D01*
X21939222Y6165478D01*
X21706028Y5687616D01*
X21635252Y5538235D01*
X21516780Y5302357D01*
X21417976Y5143364D01*
X21334413Y5056978D01*
X21261668Y5038918D01*
X21195315Y5084903D01*
X21182930Y5100713D01*
X21138759Y5209807D01*
X21108059Y5387740D01*
X21090482Y5619821D01*
X21085682Y5891358D01*
X21093311Y6187658D01*
X21113021Y6494030D01*
X21144466Y6795782D01*
X21187297Y7078221D01*
X21234977Y7302500D01*
X21224214Y7297426D01*
X21180549Y7227747D01*
X21110074Y7104010D01*
X21018883Y6936764D01*
X20962742Y6831259D01*
X20752864Y6444554D01*
X20566398Y6125731D01*
X20396035Y5863775D01*
X20234467Y5647672D01*
X20074385Y5466405D01*
X20022434Y5414111D01*
X19763465Y5192378D01*
X19505186Y5042343D01*
X19225694Y4954107D01*
X18926422Y4918782D01*
X18639309Y4917447D01*
X18412794Y4947911D01*
X18227005Y5015642D01*
X18062072Y5126112D01*
X18011157Y5170731D01*
X17870171Y5325183D01*
X17784296Y5488356D01*
X17745641Y5683317D01*
X17746314Y5933134D01*
X17746945Y5943044D01*
X17790316Y6229721D01*
X17885974Y6466871D01*
X18044855Y6678852D01*
X18104496Y6739267D01*
X18255749Y6861493D01*
X18424330Y6960477D01*
X18593786Y7031039D01*
X18747666Y7067997D01*
X18869514Y7066169D01*
X18942880Y7020373D01*
X18950231Y7005628D01*
X18948003Y6916287D01*
X18875685Y6850022D01*
X18746917Y6817359D01*
X18704047Y6815667D01*
X18495470Y6782609D01*
X18327255Y6689513D01*
X18225033Y6562699D01*
X18180799Y6439067D01*
X18141154Y6262691D01*
X18110324Y6063593D01*
X18092535Y5871792D01*
X18092014Y5717309D01*
X18098870Y5666426D01*
X18158621Y5529505D01*
X18268123Y5381285D01*
X18402817Y5251044D01*
X18503848Y5183671D01*
X18614212Y5149367D01*
X18771781Y5127309D01*
X18888540Y5122333D01*
X19141499Y5150268D01*
X19384196Y5238361D01*
X19629436Y5393043D01*
X19890025Y5620749D01*
X19899797Y5630333D01*
X20044851Y5785049D01*
X20185683Y5962211D01*
X20328519Y6171972D01*
X20479590Y6424480D01*
X20645122Y6729887D01*
X20831344Y7098344D01*
X20949289Y7340786D01*
X21075283Y7598648D01*
X21207695Y7862898D01*
X21334815Y8110609D01*
X21444931Y8318852D01*
X21499619Y8418247D01*
X21589336Y8578932D01*
X21661041Y8710273D01*
X21706028Y8796145D01*
X21717000Y8820959D01*
X21679283Y8836376D01*
X21583266Y8856494D01*
X21515916Y8867272D01*
X21397958Y8887582D01*
X21220391Y8922043D01*
X21006168Y8966042D01*
X20778243Y9014967D01*
X20750739Y9021022D01*
X20510236Y9072252D01*
X20334647Y9104153D01*
X20206913Y9118583D01*
X20109977Y9117402D01*
X20026779Y9102468D01*
X20019933Y9100662D01*
X19800533Y9000163D01*
X19613905Y8835170D01*
X19474361Y8623818D01*
X19396210Y8384240D01*
X19386026Y8297333D01*
X19377999Y8093113D01*
X19389258Y7944809D01*
X19428202Y7824372D01*
X19503231Y7703754D01*
X19600333Y7581719D01*
X19700690Y7455810D01*
X19775313Y7352058D01*
X19810782Y7289390D01*
X19812000Y7283188D01*
X19774666Y7254538D01*
X19682324Y7239611D01*
X19656576Y7239000D01*
X19500821Y7278359D01*
X19350226Y7385657D01*
X19219674Y7544727D01*
X19124046Y7739402D01*
X19092569Y7851695D01*
X19067699Y8165055D01*
X19122197Y8461226D01*
X19251134Y8730942D01*
X19449582Y8964937D01*
X19712616Y9153944D01*
X19812000Y9204517D01*
X19936615Y9258637D01*
X20045174Y9292205D01*
X20156557Y9305356D01*
X20289645Y9298224D01*
X20463319Y9270942D01*
X20696461Y9223644D01*
X20754635Y9211205D01*
X21070723Y9146126D01*
X21320664Y9102160D01*
X21519935Y9077920D01*
X21684011Y9072019D01*
X21828368Y9083073D01*
X21945965Y9104502D01*
X22094912Y9132457D01*
X22184609Y9133422D01*
X22235983Y9107617D01*
X22236045Y9107555D01*
X22264805Y9048436D01*
X22234021Y8984085D01*
X22005570Y8610860D01*
X21817072Y8177762D01*
X21677473Y7726670D01*
X21634935Y7543987D01*
X21591215Y7320950D01*
X21547982Y7070539D01*
X21506902Y6805739D01*
X21469644Y6539530D01*
X21437875Y6284896D01*
X21413262Y6054819D01*
X21397474Y5862282D01*
X21392178Y5720267D01*
X21399041Y5641757D01*
X21408196Y5630333D01*
X21437774Y5666328D01*
X21497314Y5765912D01*
X21579849Y5916490D01*
X21678409Y6105464D01*
X21753652Y6254750D01*
X22105636Y6924085D01*
X22462724Y7527682D01*
X22681466Y7852833D01*
X22902333Y7852833D01*
X22923500Y7831667D01*
X22944666Y7852833D01*
X22923500Y7874000D01*
X22902333Y7852833D01*
X22681466Y7852833D01*
X22822576Y8062586D01*
X23182854Y8525844D01*
X23541218Y8914499D01*
X23895329Y9225598D01*
X24242848Y9456185D01*
X24320500Y9496973D01*
X24556222Y9592769D01*
X24765454Y9635510D01*
X24937887Y9625797D01*
D10*
X45845000Y48732221D02*
X45845000Y49057779D01*
X46865000Y48732221D02*
X46865000Y49057779D01*
X13550000Y28675000D02*
X11265000Y28675000D01*
X13550000Y27205000D02*
X13550000Y28675000D01*
X11265000Y27205000D02*
X13550000Y27205000D01*
X13550000Y26135000D02*
X11265000Y26135000D01*
X13550000Y24665000D02*
X13550000Y26135000D01*
X11265000Y24665000D02*
X13550000Y24665000D01*
X11265000Y22125000D02*
X13550000Y22125000D01*
X13550000Y22125000D02*
X13550000Y23595000D01*
X13550000Y23595000D02*
X11265000Y23595000D01*
X13550000Y21055000D02*
X11265000Y21055000D01*
X13550000Y19585000D02*
X13550000Y21055000D01*
X11265000Y19585000D02*
X13550000Y19585000D01*
X11265000Y17045000D02*
X13550000Y17045000D01*
X13550000Y17045000D02*
X13550000Y18515000D01*
X13550000Y18515000D02*
X11265000Y18515000D01*
X13550000Y15975000D02*
X11265000Y15975000D01*
X13550000Y14505000D02*
X13550000Y15975000D01*
X11265000Y14505000D02*
X13550000Y14505000D01*
X11265000Y11965000D02*
X13550000Y11965000D01*
X13550000Y11965000D02*
X13550000Y13435000D01*
X13550000Y13435000D02*
X11265000Y13435000D01*
X16725000Y28675000D02*
X14440000Y28675000D01*
X16725000Y27205000D02*
X16725000Y28675000D01*
X14440000Y27205000D02*
X16725000Y27205000D01*
X14440000Y24665000D02*
X16725000Y24665000D01*
X16725000Y24665000D02*
X16725000Y26135000D01*
X16725000Y26135000D02*
X14440000Y26135000D01*
X16725000Y23595000D02*
X14440000Y23595000D01*
X16725000Y22125000D02*
X16725000Y23595000D01*
X14440000Y22125000D02*
X16725000Y22125000D01*
X14440000Y19585000D02*
X16725000Y19585000D01*
X16725000Y19585000D02*
X16725000Y21055000D01*
X16725000Y21055000D02*
X14440000Y21055000D01*
X16725000Y18515000D02*
X14440000Y18515000D01*
X16725000Y17045000D02*
X16725000Y18515000D01*
X14440000Y17045000D02*
X16725000Y17045000D01*
X14440000Y14505000D02*
X16725000Y14505000D01*
X16725000Y14505000D02*
X16725000Y15975000D01*
X16725000Y15975000D02*
X14440000Y15975000D01*
X16725000Y13435000D02*
X14440000Y13435000D01*
X16725000Y11965000D02*
X16725000Y13435000D01*
X14440000Y11965000D02*
X16725000Y11965000D01*
X17615000Y27205000D02*
X19900000Y27205000D01*
X19900000Y27205000D02*
X19900000Y28675000D01*
X19900000Y28675000D02*
X17615000Y28675000D01*
X19900000Y26135000D02*
X17615000Y26135000D01*
X19900000Y24665000D02*
X19900000Y26135000D01*
X17615000Y24665000D02*
X19900000Y24665000D01*
X17615000Y22125000D02*
X19900000Y22125000D01*
X19900000Y22125000D02*
X19900000Y23595000D01*
X19900000Y23595000D02*
X17615000Y23595000D01*
X19900000Y21055000D02*
X17615000Y21055000D01*
X19900000Y19585000D02*
X19900000Y21055000D01*
X17615000Y19585000D02*
X19900000Y19585000D01*
X17615000Y17045000D02*
X19900000Y17045000D01*
X19900000Y17045000D02*
X19900000Y18515000D01*
X19900000Y18515000D02*
X17615000Y18515000D01*
X19900000Y15975000D02*
X17615000Y15975000D01*
X19900000Y14505000D02*
X19900000Y15975000D01*
X17615000Y14505000D02*
X19900000Y14505000D01*
X17615000Y11965000D02*
X19900000Y11965000D01*
X19900000Y11965000D02*
X19900000Y13435000D01*
X19900000Y13435000D02*
X17615000Y13435000D01*
X23075000Y28675000D02*
X20790000Y28675000D01*
X23075000Y27205000D02*
X23075000Y28675000D01*
X20790000Y27205000D02*
X23075000Y27205000D01*
X20790000Y24665000D02*
X23075000Y24665000D01*
X23075000Y24665000D02*
X23075000Y26135000D01*
X23075000Y26135000D02*
X20790000Y26135000D01*
X23075000Y23595000D02*
X20790000Y23595000D01*
X23075000Y22125000D02*
X23075000Y23595000D01*
X20790000Y22125000D02*
X23075000Y22125000D01*
X20790000Y19585000D02*
X23075000Y19585000D01*
X23075000Y19585000D02*
X23075000Y21055000D01*
X23075000Y21055000D02*
X20790000Y21055000D01*
X23075000Y18515000D02*
X20790000Y18515000D01*
X23075000Y17045000D02*
X23075000Y18515000D01*
X20790000Y17045000D02*
X23075000Y17045000D01*
X20790000Y14505000D02*
X23075000Y14505000D01*
X23075000Y14505000D02*
X23075000Y15975000D01*
X23075000Y15975000D02*
X20790000Y15975000D01*
X23075000Y13435000D02*
X20790000Y13435000D01*
X23075000Y11965000D02*
X23075000Y13435000D01*
X20790000Y11965000D02*
X23075000Y11965000D01*
X23965000Y27205000D02*
X26250000Y27205000D01*
X26250000Y27205000D02*
X26250000Y28675000D01*
X26250000Y28675000D02*
X23965000Y28675000D01*
X26250000Y26135000D02*
X23965000Y26135000D01*
X26250000Y24665000D02*
X26250000Y26135000D01*
X23965000Y24665000D02*
X26250000Y24665000D01*
X23965000Y22125000D02*
X26250000Y22125000D01*
X26250000Y22125000D02*
X26250000Y23595000D01*
X26250000Y23595000D02*
X23965000Y23595000D01*
X23965000Y19585000D02*
X26250000Y19585000D01*
X26250000Y19585000D02*
X26250000Y21055000D01*
X26250000Y21055000D02*
X23965000Y21055000D01*
X26250000Y18515000D02*
X23965000Y18515000D01*
X26250000Y17045000D02*
X26250000Y18515000D01*
X23965000Y17045000D02*
X26250000Y17045000D01*
X23965000Y14505000D02*
X26250000Y14505000D01*
X26250000Y14505000D02*
X26250000Y15975000D01*
X26250000Y15975000D02*
X23965000Y15975000D01*
X26250000Y13435000D02*
X23965000Y13435000D01*
X26250000Y11965000D02*
X26250000Y13435000D01*
X23965000Y11965000D02*
X26250000Y11965000D01*
X27140000Y27205000D02*
X29425000Y27205000D01*
X29425000Y27205000D02*
X29425000Y28675000D01*
X29425000Y28675000D02*
X27140000Y28675000D01*
X29425000Y26135000D02*
X27140000Y26135000D01*
X29425000Y24665000D02*
X29425000Y26135000D01*
X27140000Y24665000D02*
X29425000Y24665000D01*
X27140000Y22125000D02*
X29425000Y22125000D01*
X29425000Y22125000D02*
X29425000Y23595000D01*
X29425000Y23595000D02*
X27140000Y23595000D01*
X29425000Y21055000D02*
X27140000Y21055000D01*
X29425000Y19585000D02*
X29425000Y21055000D01*
X27140000Y19585000D02*
X29425000Y19585000D01*
X27140000Y17045000D02*
X29425000Y17045000D01*
X29425000Y17045000D02*
X29425000Y18515000D01*
X29425000Y18515000D02*
X27140000Y18515000D01*
X27140000Y14505000D02*
X29425000Y14505000D01*
X29425000Y14505000D02*
X29425000Y15975000D01*
X29425000Y15975000D02*
X27140000Y15975000D01*
X27140000Y11965000D02*
X29425000Y11965000D01*
X29425000Y11965000D02*
X29425000Y13435000D01*
X29425000Y13435000D02*
X27140000Y13435000D01*
X32600000Y28675000D02*
X30315000Y28675000D01*
X32600000Y27205000D02*
X32600000Y28675000D01*
X30315000Y27205000D02*
X32600000Y27205000D01*
X30315000Y24665000D02*
X32600000Y24665000D01*
X32600000Y24665000D02*
X32600000Y26135000D01*
X32600000Y26135000D02*
X30315000Y26135000D01*
X32600000Y23595000D02*
X30315000Y23595000D01*
X32600000Y22125000D02*
X32600000Y23595000D01*
X30315000Y22125000D02*
X32600000Y22125000D01*
X30315000Y19585000D02*
X32600000Y19585000D01*
X32600000Y19585000D02*
X32600000Y21055000D01*
X32600000Y21055000D02*
X30315000Y21055000D01*
X32600000Y18515000D02*
X30315000Y18515000D01*
X32600000Y17045000D02*
X32600000Y18515000D01*
X30315000Y17045000D02*
X32600000Y17045000D01*
X30315000Y14505000D02*
X32600000Y14505000D01*
X32600000Y14505000D02*
X32600000Y15975000D01*
X32600000Y15975000D02*
X30315000Y15975000D01*
X32600000Y13435000D02*
X30315000Y13435000D01*
X32600000Y11965000D02*
X32600000Y13435000D01*
X30315000Y11965000D02*
X32600000Y11965000D01*
X33490000Y27205000D02*
X35775000Y27205000D01*
X35775000Y27205000D02*
X35775000Y28675000D01*
X35775000Y28675000D02*
X33490000Y28675000D01*
X35775000Y26135000D02*
X33490000Y26135000D01*
X35775000Y24665000D02*
X35775000Y26135000D01*
X33490000Y24665000D02*
X35775000Y24665000D01*
X33490000Y22125000D02*
X35775000Y22125000D01*
X35775000Y22125000D02*
X35775000Y23595000D01*
X35775000Y23595000D02*
X33490000Y23595000D01*
X35775000Y21055000D02*
X33490000Y21055000D01*
X35775000Y19585000D02*
X35775000Y21055000D01*
X33490000Y19585000D02*
X35775000Y19585000D01*
X33490000Y17045000D02*
X35775000Y17045000D01*
X35775000Y17045000D02*
X35775000Y18515000D01*
X35775000Y18515000D02*
X33490000Y18515000D01*
X35775000Y15975000D02*
X33490000Y15975000D01*
X35775000Y14505000D02*
X35775000Y15975000D01*
X33490000Y14505000D02*
X35775000Y14505000D01*
X33490000Y11965000D02*
X35775000Y11965000D01*
X35775000Y11965000D02*
X35775000Y13435000D01*
X35775000Y13435000D02*
X33490000Y13435000D01*
X38950000Y28675000D02*
X36665000Y28675000D01*
X38950000Y27205000D02*
X38950000Y28675000D01*
X36665000Y27205000D02*
X38950000Y27205000D01*
X38950000Y26135000D02*
X36665000Y26135000D01*
X38950000Y24665000D02*
X38950000Y26135000D01*
X36665000Y24665000D02*
X38950000Y24665000D01*
X38950000Y23595000D02*
X36665000Y23595000D01*
X38950000Y22125000D02*
X38950000Y23595000D01*
X36665000Y22125000D02*
X38950000Y22125000D01*
X36665000Y19585000D02*
X38950000Y19585000D01*
X38950000Y19585000D02*
X38950000Y21055000D01*
X38950000Y21055000D02*
X36665000Y21055000D01*
X38950000Y18515000D02*
X36665000Y18515000D01*
X38950000Y17045000D02*
X38950000Y18515000D01*
X36665000Y17045000D02*
X38950000Y17045000D01*
X36665000Y14505000D02*
X38950000Y14505000D01*
X38950000Y14505000D02*
X38950000Y15975000D01*
X38950000Y15975000D02*
X36665000Y15975000D01*
X36665000Y11965000D02*
X38950000Y11965000D01*
X38950000Y11965000D02*
X38950000Y13435000D01*
X38950000Y13435000D02*
X36665000Y13435000D01*
X42125000Y28675000D02*
X39840000Y28675000D01*
X42125000Y27205000D02*
X42125000Y28675000D01*
X39840000Y27205000D02*
X42125000Y27205000D01*
X39840000Y24665000D02*
X42125000Y24665000D01*
X42125000Y24665000D02*
X42125000Y26135000D01*
X42125000Y26135000D02*
X39840000Y26135000D01*
X39840000Y22125000D02*
X42125000Y22125000D01*
X42125000Y22125000D02*
X42125000Y23595000D01*
X42125000Y23595000D02*
X39840000Y23595000D01*
X42125000Y21055000D02*
X39840000Y21055000D01*
X42125000Y19585000D02*
X42125000Y21055000D01*
X39840000Y19585000D02*
X42125000Y19585000D01*
X39840000Y17045000D02*
X42125000Y17045000D01*
X42125000Y17045000D02*
X42125000Y18515000D01*
X42125000Y18515000D02*
X39840000Y18515000D01*
X42125000Y15975000D02*
X39840000Y15975000D01*
X42125000Y14505000D02*
X42125000Y15975000D01*
X39840000Y14505000D02*
X42125000Y14505000D01*
X39840000Y11965000D02*
X42125000Y11965000D01*
X42125000Y11965000D02*
X42125000Y13435000D01*
X42125000Y13435000D02*
X39840000Y13435000D01*
X45300000Y28675000D02*
X43015000Y28675000D01*
X45300000Y27205000D02*
X45300000Y28675000D01*
X43015000Y27205000D02*
X45300000Y27205000D01*
X43015000Y24665000D02*
X45300000Y24665000D01*
X45300000Y24665000D02*
X45300000Y26135000D01*
X45300000Y26135000D02*
X43015000Y26135000D01*
X45300000Y23595000D02*
X43015000Y23595000D01*
X45300000Y22125000D02*
X45300000Y23595000D01*
X43015000Y22125000D02*
X45300000Y22125000D01*
X43015000Y19585000D02*
X45300000Y19585000D01*
X45300000Y19585000D02*
X45300000Y21055000D01*
X45300000Y21055000D02*
X43015000Y21055000D01*
X45300000Y18515000D02*
X43015000Y18515000D01*
X45300000Y17045000D02*
X45300000Y18515000D01*
X43015000Y17045000D02*
X45300000Y17045000D01*
X45300000Y15975000D02*
X43015000Y15975000D01*
X45300000Y14505000D02*
X45300000Y15975000D01*
X43015000Y14505000D02*
X45300000Y14505000D01*
X43015000Y11965000D02*
X45300000Y11965000D01*
X45300000Y11965000D02*
X45300000Y13435000D01*
X45300000Y13435000D02*
X43015000Y13435000D01*
X48475000Y28675000D02*
X46190000Y28675000D01*
X48475000Y27205000D02*
X48475000Y28675000D01*
X46190000Y27205000D02*
X48475000Y27205000D01*
X46190000Y24665000D02*
X48475000Y24665000D01*
X48475000Y24665000D02*
X48475000Y26135000D01*
X48475000Y26135000D02*
X46190000Y26135000D01*
X48475000Y23595000D02*
X46190000Y23595000D01*
X48475000Y22125000D02*
X48475000Y23595000D01*
X46190000Y22125000D02*
X48475000Y22125000D01*
X46190000Y19585000D02*
X48475000Y19585000D01*
X48475000Y19585000D02*
X48475000Y21055000D01*
X48475000Y21055000D02*
X46190000Y21055000D01*
X48475000Y18515000D02*
X46190000Y18515000D01*
X48475000Y17045000D02*
X48475000Y18515000D01*
X46190000Y17045000D02*
X48475000Y17045000D01*
X46190000Y14505000D02*
X48475000Y14505000D01*
X48475000Y14505000D02*
X48475000Y15975000D01*
X48475000Y15975000D02*
X46190000Y15975000D01*
X48475000Y13435000D02*
X46190000Y13435000D01*
X48475000Y11965000D02*
X48475000Y13435000D01*
X46190000Y11965000D02*
X48475000Y11965000D01*
X49365000Y27205000D02*
X51650000Y27205000D01*
X51650000Y27205000D02*
X51650000Y28675000D01*
X51650000Y28675000D02*
X49365000Y28675000D01*
X51650000Y26135000D02*
X49365000Y26135000D01*
X51650000Y24665000D02*
X51650000Y26135000D01*
X49365000Y24665000D02*
X51650000Y24665000D01*
X49365000Y22125000D02*
X51650000Y22125000D01*
X51650000Y22125000D02*
X51650000Y23595000D01*
X51650000Y23595000D02*
X49365000Y23595000D01*
X49365000Y19585000D02*
X51650000Y19585000D01*
X51650000Y19585000D02*
X51650000Y21055000D01*
X51650000Y21055000D02*
X49365000Y21055000D01*
X49365000Y17045000D02*
X51650000Y17045000D01*
X51650000Y17045000D02*
X51650000Y18515000D01*
X51650000Y18515000D02*
X49365000Y18515000D01*
X51650000Y15975000D02*
X49365000Y15975000D01*
X51650000Y14505000D02*
X51650000Y15975000D01*
X49365000Y14505000D02*
X51650000Y14505000D01*
X49365000Y11965000D02*
X51650000Y11965000D01*
X51650000Y11965000D02*
X51650000Y13435000D01*
X51650000Y13435000D02*
X49365000Y13435000D01*
X54825000Y28675000D02*
X52540000Y28675000D01*
X54825000Y27205000D02*
X54825000Y28675000D01*
X52540000Y27205000D02*
X54825000Y27205000D01*
X52540000Y24665000D02*
X54825000Y24665000D01*
X54825000Y24665000D02*
X54825000Y26135000D01*
X54825000Y26135000D02*
X52540000Y26135000D01*
X54825000Y23595000D02*
X52540000Y23595000D01*
X54825000Y22125000D02*
X54825000Y23595000D01*
X52540000Y22125000D02*
X54825000Y22125000D01*
X52540000Y19585000D02*
X54825000Y19585000D01*
X54825000Y19585000D02*
X54825000Y21055000D01*
X54825000Y21055000D02*
X52540000Y21055000D01*
X54825000Y18515000D02*
X52540000Y18515000D01*
X54825000Y17045000D02*
X54825000Y18515000D01*
X52540000Y17045000D02*
X54825000Y17045000D01*
X52540000Y14505000D02*
X54825000Y14505000D01*
X54825000Y14505000D02*
X54825000Y15975000D01*
X54825000Y15975000D02*
X52540000Y15975000D01*
X54825000Y13435000D02*
X52540000Y13435000D01*
X54825000Y11965000D02*
X54825000Y13435000D01*
X52540000Y11965000D02*
X54825000Y11965000D01*
X55715000Y27205000D02*
X58000000Y27205000D01*
X58000000Y27205000D02*
X58000000Y28675000D01*
X58000000Y28675000D02*
X55715000Y28675000D01*
X58000000Y26135000D02*
X55715000Y26135000D01*
X58000000Y24665000D02*
X58000000Y26135000D01*
X55715000Y24665000D02*
X58000000Y24665000D01*
X58000000Y23595000D02*
X55715000Y23595000D01*
X58000000Y22125000D02*
X58000000Y23595000D01*
X55715000Y22125000D02*
X58000000Y22125000D01*
X58000000Y21055000D02*
X55715000Y21055000D01*
X58000000Y19585000D02*
X58000000Y21055000D01*
X55715000Y19585000D02*
X58000000Y19585000D01*
X55715000Y17045000D02*
X58000000Y17045000D01*
X58000000Y17045000D02*
X58000000Y18515000D01*
X58000000Y18515000D02*
X55715000Y18515000D01*
X58000000Y15975000D02*
X55715000Y15975000D01*
X58000000Y14505000D02*
X58000000Y15975000D01*
X55715000Y14505000D02*
X58000000Y14505000D01*
X55715000Y11965000D02*
X58000000Y11965000D01*
X58000000Y11965000D02*
X58000000Y13435000D01*
X58000000Y13435000D02*
X55715000Y13435000D01*
X61175000Y28675000D02*
X58890000Y28675000D01*
X61175000Y27205000D02*
X61175000Y28675000D01*
X58890000Y27205000D02*
X61175000Y27205000D01*
X58890000Y24665000D02*
X61175000Y24665000D01*
X61175000Y24665000D02*
X61175000Y26135000D01*
X61175000Y26135000D02*
X58890000Y26135000D01*
X61175000Y23595000D02*
X58890000Y23595000D01*
X61175000Y22125000D02*
X61175000Y23595000D01*
X58890000Y22125000D02*
X61175000Y22125000D01*
X58890000Y19585000D02*
X61175000Y19585000D01*
X61175000Y19585000D02*
X61175000Y21055000D01*
X61175000Y21055000D02*
X58890000Y21055000D01*
X61175000Y18515000D02*
X58890000Y18515000D01*
X61175000Y17045000D02*
X61175000Y18515000D01*
X58890000Y17045000D02*
X61175000Y17045000D01*
X58890000Y14505000D02*
X61175000Y14505000D01*
X61175000Y14505000D02*
X61175000Y15975000D01*
X61175000Y15975000D02*
X58890000Y15975000D01*
X61175000Y13435000D02*
X58890000Y13435000D01*
X61175000Y11965000D02*
X61175000Y13435000D01*
X58890000Y11965000D02*
X61175000Y11965000D01*
X41545000Y48195000D02*
X41545000Y49595000D01*
X42245000Y50295000D02*
X42845000Y50295000D01*
X43545000Y49595000D02*
X43545000Y48195000D01*
X42845000Y47495000D02*
X42245000Y47495000D01*
X42245000Y47495000D02*
G75*
G02X41545000Y48195000I0J700000D01*
G01*
X43545000Y48195000D02*
G75*
G02X42845000Y47495000I-700000J0D01*
G01*
X42845000Y50295000D02*
G75*
G02X43545000Y49595000I0J-700000D01*
G01*
X41545000Y49595000D02*
G75*
G02X42245000Y50295000I700000J0D01*
G01*
X38370000Y49595000D02*
G75*
G02X39070000Y50295000I700000J0D01*
G01*
X39670000Y50295000D02*
G75*
G02X40370000Y49595000I0J-700000D01*
G01*
X40370000Y48195000D02*
G75*
G02X39670000Y47495000I-700000J0D01*
G01*
X39070000Y47495000D02*
G75*
G02X38370000Y48195000I0J700000D01*
G01*
X39670000Y47495000D02*
X39070000Y47495000D01*
X40370000Y49595000D02*
X40370000Y48195000D01*
X39070000Y50295000D02*
X39670000Y50295000D01*
X38370000Y48195000D02*
X38370000Y49595000D01*
X35195000Y48195000D02*
X35195000Y49595000D01*
X35895000Y50295000D02*
X36495000Y50295000D01*
X37195000Y49595000D02*
X37195000Y48195000D01*
X36495000Y47495000D02*
X35895000Y47495000D01*
X35895000Y47495000D02*
G75*
G02X35195000Y48195000I0J700000D01*
G01*
X37195000Y48195000D02*
G75*
G02X36495000Y47495000I-700000J0D01*
G01*
X36495000Y50295000D02*
G75*
G02X37195000Y49595000I0J-700000D01*
G01*
X35195000Y49595000D02*
G75*
G02X35895000Y50295000I700000J0D01*
G01*
X32020000Y49595000D02*
G75*
G02X32720000Y50295000I700000J0D01*
G01*
X33320000Y50295000D02*
G75*
G02X34020000Y49595000I0J-700000D01*
G01*
X34020000Y48195000D02*
G75*
G02X33320000Y47495000I-700000J0D01*
G01*
X32720000Y47495000D02*
G75*
G02X32020000Y48195000I0J700000D01*
G01*
X33320000Y47495000D02*
X32720000Y47495000D01*
X34020000Y49595000D02*
X34020000Y48195000D01*
X32720000Y50295000D02*
X33320000Y50295000D01*
X32020000Y48195000D02*
X32020000Y49595000D01*
X21465000Y50475000D02*
X22925000Y50475000D01*
X21465000Y47315000D02*
X23625000Y47315000D01*
X21465000Y47315000D02*
X21465000Y48245000D01*
X21465000Y50475000D02*
X21465000Y49545000D01*
X13845000Y50475000D02*
X13845000Y49545000D01*
X13845000Y47315000D02*
X13845000Y48245000D01*
X13845000Y47315000D02*
X16005000Y47315000D01*
X13845000Y50475000D02*
X15305000Y50475000D01*
X34127221Y37340000D02*
X34452779Y37340000D01*
X34127221Y36320000D02*
X34452779Y36320000D01*
X28065000Y49057779D02*
X28065000Y48732221D01*
X29085000Y49057779D02*
X29085000Y48732221D01*
X25525000Y48732221D02*
X25525000Y49057779D01*
X26545000Y48732221D02*
X26545000Y49057779D01*
X18925000Y49057779D02*
X18925000Y48732221D01*
X17905000Y49057779D02*
X17905000Y48732221D01*
X24190000Y61020000D02*
X21530000Y61020000D01*
X24190000Y58420000D02*
X24190000Y61020000D01*
X21530000Y58420000D02*
X21530000Y61020000D01*
X24190000Y58420000D02*
X21530000Y58420000D01*
X24190000Y57150000D02*
X24190000Y55820000D01*
X24190000Y55820000D02*
X22860000Y55820000D01*
D15*
X35185000Y57015000D02*
X35185000Y56015000D01*
X29585000Y57015000D02*
X29585000Y56015000D01*
X33885000Y54515000D02*
X30885000Y54515000D01*
X30885000Y58515000D02*
X33885000Y58515000D01*
X33585000Y56515000D02*
G75*
G03X33585000Y56515000I-1200000J0D01*
G01*
D10*
X10625000Y38100000D02*
X10625000Y34240000D01*
X10625000Y34240000D02*
X10870000Y34240000D01*
X10625000Y38100000D02*
X10625000Y41960000D01*
X10625000Y41960000D02*
X10870000Y41960000D01*
X28745000Y38100000D02*
X28745000Y34240000D01*
X28745000Y34240000D02*
X28500000Y34240000D01*
X28745000Y38100000D02*
X28745000Y41960000D01*
X28745000Y41960000D02*
X28500000Y41960000D01*
X28500000Y41960000D02*
X28500000Y43775000D01*
X41835000Y56256422D02*
X41835000Y56773578D01*
X43255000Y56256422D02*
X43255000Y56773578D01*
X55585000Y51165000D02*
X55585000Y49165000D01*
X55585000Y49165000D02*
X59435000Y49165000D01*
X55585000Y51165000D02*
X59435000Y51165000D01*
X45010000Y56256422D02*
X45010000Y56773578D01*
X46430000Y56256422D02*
X46430000Y56773578D01*
X54480000Y37005000D02*
X54480000Y43005000D01*
X56685000Y37005000D02*
X56685000Y43005000D01*
X56685000Y37005000D02*
X59625000Y37005000D01*
X56685000Y43005000D02*
X59625000Y43005000D01*
X59625000Y37005000D02*
X59625000Y33845000D01*
X59625000Y43005000D02*
X59625000Y46165000D01*
X59625000Y33845000D02*
X57065000Y33845000D01*
X59625000Y46165000D02*
X57065000Y46165000D01*
X57065000Y33845000D02*
X57065000Y37005000D01*
X57065000Y46165000D02*
X57065000Y43005000D01*
X57065000Y37005000D02*
X54480000Y37005000D01*
X57065000Y43005000D02*
X54480000Y43005000D01*
D16*
X55680000Y36205000D02*
G75*
G03X55680000Y36205000I-200000J0D01*
G01*
D10*
X66100000Y45780000D02*
X63440000Y45780000D01*
X66100000Y33020000D02*
X66100000Y45780000D01*
X63440000Y33020000D02*
X63440000Y45780000D01*
X66100000Y33020000D02*
X63440000Y33020000D01*
X66100000Y31750000D02*
X66100000Y30420000D01*
X66100000Y30420000D02*
X64770000Y30420000D01*
X59180000Y54935000D02*
X59180000Y55865000D01*
X59180000Y58095000D02*
X59180000Y57165000D01*
X59180000Y58095000D02*
X57020000Y58095000D01*
X59180000Y54935000D02*
X57720000Y54935000D01*
X54735000Y54935000D02*
X54735000Y55865000D01*
X54735000Y58095000D02*
X54735000Y57165000D01*
X54735000Y58095000D02*
X52575000Y58095000D01*
X54735000Y54935000D02*
X53275000Y54935000D01*
X50290000Y54935000D02*
X48830000Y54935000D01*
X50290000Y58095000D02*
X48130000Y58095000D01*
X50290000Y58095000D02*
X50290000Y57165000D01*
X50290000Y54935000D02*
X50290000Y55865000D01*
X34127221Y38860000D02*
X34452779Y38860000D01*
X34127221Y39880000D02*
X34452779Y39880000D01*
X51165000Y49465000D02*
G75*
G02X50465000Y48765000I-700000J0D01*
G01*
X49865000Y48765000D02*
G75*
G02X49165000Y49465000I0J700000D01*
G01*
X49165000Y50865000D02*
G75*
G02X49865000Y51565000I700000J0D01*
G01*
X50465000Y51565000D02*
G75*
G02X51165000Y50865000I0J-700000D01*
G01*
X49865000Y51565000D02*
X50465000Y51565000D01*
X49165000Y49465000D02*
X49165000Y50865000D01*
X50465000Y48765000D02*
X49865000Y48765000D01*
X51165000Y50865000D02*
X51165000Y49465000D01*
X54340000Y49465000D02*
G75*
G02X53640000Y48765000I-700000J0D01*
G01*
X53040000Y48765000D02*
G75*
G02X52340000Y49465000I0J700000D01*
G01*
X52340000Y50865000D02*
G75*
G02X53040000Y51565000I700000J0D01*
G01*
X53640000Y51565000D02*
G75*
G02X54340000Y50865000I0J-700000D01*
G01*
X53040000Y51565000D02*
X53640000Y51565000D01*
X52340000Y49465000D02*
X52340000Y50865000D01*
X53640000Y48765000D02*
X53040000Y48765000D01*
X54340000Y50865000D02*
X54340000Y49465000D01*
X38860000Y56352221D02*
X38860000Y56677779D01*
X39880000Y56352221D02*
X39880000Y56677779D01*
X63440000Y17720000D02*
X66100000Y17720000D01*
X63440000Y20320000D02*
X63440000Y17720000D01*
X66100000Y20320000D02*
X66100000Y17720000D01*
X63440000Y20320000D02*
X66100000Y20320000D01*
X63440000Y21590000D02*
X63440000Y22920000D01*
X63440000Y22920000D02*
X64770000Y22920000D01*
D15*
X10678333Y51077858D02*
X10645000Y51030239D01*
X10545000Y50982620D01*
X10478333Y50982620D01*
X10378333Y51030239D01*
X10311666Y51125477D01*
X10278333Y51220715D01*
X10245000Y51411191D01*
X10245000Y51554048D01*
X10278333Y51744524D01*
X10311666Y51839762D01*
X10378333Y51935000D01*
X10478333Y51982620D01*
X10545000Y51982620D01*
X10645000Y51935000D01*
X10678333Y51887381D01*
X10911666Y51982620D02*
X11345000Y51982620D01*
X11111666Y51601667D01*
X11211666Y51601667D01*
X11278333Y51554048D01*
X11311666Y51506429D01*
X11345000Y51411191D01*
X11345000Y51173096D01*
X11311666Y51077858D01*
X11278333Y51030239D01*
X11211666Y50982620D01*
X11011666Y50982620D01*
X10945000Y51030239D01*
X10911666Y51077858D01*
X43281666Y34202620D02*
X43281666Y33393096D01*
X43315000Y33297858D01*
X43348333Y33250239D01*
X43415000Y33202620D01*
X43548333Y33202620D01*
X43615000Y33250239D01*
X43648333Y33297858D01*
X43681666Y33393096D01*
X43681666Y34202620D01*
X44381666Y33202620D02*
X43981666Y33202620D01*
X44181666Y33202620D02*
X44181666Y34202620D01*
X44115000Y34059762D01*
X44048333Y33964524D01*
X43981666Y33916905D01*
X46238333Y51077858D02*
X46205000Y51030239D01*
X46105000Y50982620D01*
X46038333Y50982620D01*
X45938333Y51030239D01*
X45871666Y51125477D01*
X45838333Y51220715D01*
X45805000Y51411191D01*
X45805000Y51554048D01*
X45838333Y51744524D01*
X45871666Y51839762D01*
X45938333Y51935000D01*
X46038333Y51982620D01*
X46105000Y51982620D01*
X46205000Y51935000D01*
X46238333Y51887381D01*
X46905000Y50982620D02*
X46505000Y50982620D01*
X46705000Y50982620D02*
X46705000Y51982620D01*
X46638333Y51839762D01*
X46571666Y51744524D01*
X46505000Y51696905D01*
X42745000Y45902620D02*
X42345000Y45902620D01*
X42545000Y45902620D02*
X42545000Y46902620D01*
X42478333Y46759762D01*
X42411666Y46664524D01*
X42345000Y46616905D01*
X39170000Y46807381D02*
X39203333Y46855000D01*
X39270000Y46902620D01*
X39436666Y46902620D01*
X39503333Y46855000D01*
X39536666Y46807381D01*
X39570000Y46712143D01*
X39570000Y46616905D01*
X39536666Y46474048D01*
X39136666Y45902620D01*
X39570000Y45902620D01*
X36328333Y46569286D02*
X36328333Y45902620D01*
X36161666Y46950239D02*
X35995000Y46235953D01*
X36428333Y46235953D01*
X32953333Y46474048D02*
X32886666Y46521667D01*
X32853333Y46569286D01*
X32820000Y46664524D01*
X32820000Y46712143D01*
X32853333Y46807381D01*
X32886666Y46855000D01*
X32953333Y46902620D01*
X33086666Y46902620D01*
X33153333Y46855000D01*
X33186666Y46807381D01*
X33220000Y46712143D01*
X33220000Y46664524D01*
X33186666Y46569286D01*
X33153333Y46521667D01*
X33086666Y46474048D01*
X32953333Y46474048D01*
X32886666Y46426429D01*
X32853333Y46378810D01*
X32820000Y46283572D01*
X32820000Y46093096D01*
X32853333Y45997858D01*
X32886666Y45950239D01*
X32953333Y45902620D01*
X33086666Y45902620D01*
X33153333Y45950239D01*
X33186666Y45997858D01*
X33220000Y46093096D01*
X33220000Y46283572D01*
X33186666Y46378810D01*
X33153333Y46426429D01*
X33086666Y46474048D01*
X22158333Y50887381D02*
X22091666Y50935000D01*
X22025000Y51030239D01*
X21925000Y51173096D01*
X21858333Y51220715D01*
X21791666Y51220715D01*
X21825000Y50982620D02*
X21758333Y51030239D01*
X21691666Y51125477D01*
X21658333Y51315953D01*
X21658333Y51649286D01*
X21691666Y51839762D01*
X21758333Y51935000D01*
X21825000Y51982620D01*
X21958333Y51982620D01*
X22025000Y51935000D01*
X22091666Y51839762D01*
X22125000Y51649286D01*
X22125000Y51315953D01*
X22091666Y51125477D01*
X22025000Y51030239D01*
X21958333Y50982620D01*
X21825000Y50982620D01*
X22391666Y51887381D02*
X22425000Y51935000D01*
X22491666Y51982620D01*
X22658333Y51982620D01*
X22725000Y51935000D01*
X22758333Y51887381D01*
X22791666Y51792143D01*
X22791666Y51696905D01*
X22758333Y51554048D01*
X22358333Y50982620D01*
X22791666Y50982620D01*
X14538333Y50887381D02*
X14471666Y50935000D01*
X14405000Y51030239D01*
X14305000Y51173096D01*
X14238333Y51220715D01*
X14171666Y51220715D01*
X14205000Y50982620D02*
X14138333Y51030239D01*
X14071666Y51125477D01*
X14038333Y51315953D01*
X14038333Y51649286D01*
X14071666Y51839762D01*
X14138333Y51935000D01*
X14205000Y51982620D01*
X14338333Y51982620D01*
X14405000Y51935000D01*
X14471666Y51839762D01*
X14505000Y51649286D01*
X14505000Y51315953D01*
X14471666Y51125477D01*
X14405000Y51030239D01*
X14338333Y50982620D01*
X14205000Y50982620D01*
X14738333Y51982620D02*
X15171666Y51982620D01*
X14938333Y51601667D01*
X15038333Y51601667D01*
X15105000Y51554048D01*
X15138333Y51506429D01*
X15171666Y51411191D01*
X15171666Y51173096D01*
X15138333Y51077858D01*
X15105000Y51030239D01*
X15038333Y50982620D01*
X14838333Y50982620D01*
X14771666Y51030239D01*
X14738333Y51077858D01*
X31487500Y36377620D02*
X31254166Y36853810D01*
X31087500Y36377620D02*
X31087500Y37377620D01*
X31354166Y37377620D01*
X31420833Y37330000D01*
X31454166Y37282381D01*
X31487500Y37187143D01*
X31487500Y37044286D01*
X31454166Y36949048D01*
X31420833Y36901429D01*
X31354166Y36853810D01*
X31087500Y36853810D01*
X31754166Y37282381D02*
X31787500Y37330000D01*
X31854166Y37377620D01*
X32020833Y37377620D01*
X32087500Y37330000D01*
X32120833Y37282381D01*
X32154166Y37187143D01*
X32154166Y37091905D01*
X32120833Y36949048D01*
X31720833Y36377620D01*
X32154166Y36377620D01*
X28458333Y50982620D02*
X28225000Y51458810D01*
X28058333Y50982620D02*
X28058333Y51982620D01*
X28325000Y51982620D01*
X28391666Y51935000D01*
X28425000Y51887381D01*
X28458333Y51792143D01*
X28458333Y51649286D01*
X28425000Y51554048D01*
X28391666Y51506429D01*
X28325000Y51458810D01*
X28058333Y51458810D01*
X28691666Y51982620D02*
X29125000Y51982620D01*
X28891666Y51601667D01*
X28991666Y51601667D01*
X29058333Y51554048D01*
X29091666Y51506429D01*
X29125000Y51411191D01*
X29125000Y51173096D01*
X29091666Y51077858D01*
X29058333Y51030239D01*
X28991666Y50982620D01*
X28791666Y50982620D01*
X28725000Y51030239D01*
X28691666Y51077858D01*
X25918333Y50982620D02*
X25685000Y51458810D01*
X25518333Y50982620D02*
X25518333Y51982620D01*
X25785000Y51982620D01*
X25851666Y51935000D01*
X25885000Y51887381D01*
X25918333Y51792143D01*
X25918333Y51649286D01*
X25885000Y51554048D01*
X25851666Y51506429D01*
X25785000Y51458810D01*
X25518333Y51458810D01*
X26518333Y51649286D02*
X26518333Y50982620D01*
X26351666Y52030239D02*
X26185000Y51315953D01*
X26618333Y51315953D01*
X18298333Y50982620D02*
X18065000Y51458810D01*
X17898333Y50982620D02*
X17898333Y51982620D01*
X18165000Y51982620D01*
X18231666Y51935000D01*
X18265000Y51887381D01*
X18298333Y51792143D01*
X18298333Y51649286D01*
X18265000Y51554048D01*
X18231666Y51506429D01*
X18165000Y51458810D01*
X17898333Y51458810D01*
X18931666Y51982620D02*
X18598333Y51982620D01*
X18565000Y51506429D01*
X18598333Y51554048D01*
X18665000Y51601667D01*
X18831666Y51601667D01*
X18898333Y51554048D01*
X18931666Y51506429D01*
X18965000Y51411191D01*
X18965000Y51173096D01*
X18931666Y51077858D01*
X18898333Y51030239D01*
X18831666Y50982620D01*
X18665000Y50982620D01*
X18598333Y51030239D01*
X18565000Y51077858D01*
X21326666Y54205239D02*
X21426666Y54157620D01*
X21593333Y54157620D01*
X21660000Y54205239D01*
X21693333Y54252858D01*
X21726666Y54348096D01*
X21726666Y54443334D01*
X21693333Y54538572D01*
X21660000Y54586191D01*
X21593333Y54633810D01*
X21460000Y54681429D01*
X21393333Y54729048D01*
X21360000Y54776667D01*
X21326666Y54871905D01*
X21326666Y54967143D01*
X21360000Y55062381D01*
X21393333Y55110000D01*
X21460000Y55157620D01*
X21626666Y55157620D01*
X21726666Y55110000D01*
X22026666Y54157620D02*
X22026666Y55157620D01*
X22026666Y54681429D02*
X22426666Y54681429D01*
X22426666Y54157620D02*
X22426666Y55157620D01*
X22726666Y54443334D02*
X23060000Y54443334D01*
X22660000Y54157620D02*
X22893333Y55157620D01*
X23126666Y54157620D01*
X23360000Y54157620D02*
X23360000Y55157620D01*
X23760000Y54157620D02*
X23460000Y54729048D01*
X23760000Y55157620D02*
X23360000Y54586191D01*
X24060000Y54681429D02*
X24293333Y54681429D01*
X24393333Y54157620D02*
X24060000Y54157620D01*
X24060000Y55157620D01*
X24393333Y55157620D01*
X31135000Y59237620D02*
X31135000Y60237620D01*
X31401666Y60237620D01*
X31468333Y60190000D01*
X31501666Y60142381D01*
X31535000Y60047143D01*
X31535000Y59904286D01*
X31501666Y59809048D01*
X31468333Y59761429D01*
X31401666Y59713810D01*
X31135000Y59713810D01*
X31835000Y60237620D02*
X31835000Y59428096D01*
X31868333Y59332858D01*
X31901666Y59285239D01*
X31968333Y59237620D01*
X32101666Y59237620D01*
X32168333Y59285239D01*
X32201666Y59332858D01*
X32235000Y59428096D01*
X32235000Y60237620D01*
X32535000Y59285239D02*
X32635000Y59237620D01*
X32801666Y59237620D01*
X32868333Y59285239D01*
X32901666Y59332858D01*
X32935000Y59428096D01*
X32935000Y59523334D01*
X32901666Y59618572D01*
X32868333Y59666191D01*
X32801666Y59713810D01*
X32668333Y59761429D01*
X32601666Y59809048D01*
X32568333Y59856667D01*
X32535000Y59951905D01*
X32535000Y60047143D01*
X32568333Y60142381D01*
X32601666Y60190000D01*
X32668333Y60237620D01*
X32835000Y60237620D01*
X32935000Y60190000D01*
X33235000Y59237620D02*
X33235000Y60237620D01*
X33235000Y59761429D02*
X33635000Y59761429D01*
X33635000Y59237620D02*
X33635000Y60237620D01*
X19151666Y31662620D02*
X19151666Y30853096D01*
X19185000Y30757858D01*
X19218333Y30710239D01*
X19285000Y30662620D01*
X19418333Y30662620D01*
X19485000Y30710239D01*
X19518333Y30757858D01*
X19551666Y30853096D01*
X19551666Y31662620D01*
X19851666Y31567381D02*
X19885000Y31615000D01*
X19951666Y31662620D01*
X20118333Y31662620D01*
X20185000Y31615000D01*
X20218333Y31567381D01*
X20251666Y31472143D01*
X20251666Y31376905D01*
X20218333Y31234048D01*
X19818333Y30662620D01*
X20251666Y30662620D01*
X42428333Y58697858D02*
X42395000Y58650239D01*
X42295000Y58602620D01*
X42228333Y58602620D01*
X42128333Y58650239D01*
X42061666Y58745477D01*
X42028333Y58840715D01*
X41995000Y59031191D01*
X41995000Y59174048D01*
X42028333Y59364524D01*
X42061666Y59459762D01*
X42128333Y59555000D01*
X42228333Y59602620D01*
X42295000Y59602620D01*
X42395000Y59555000D01*
X42428333Y59507381D01*
X42695000Y59507381D02*
X42728333Y59555000D01*
X42795000Y59602620D01*
X42961666Y59602620D01*
X43028333Y59555000D01*
X43061666Y59507381D01*
X43095000Y59412143D01*
X43095000Y59316905D01*
X43061666Y59174048D01*
X42661666Y58602620D01*
X43095000Y58602620D01*
X56601666Y51617620D02*
X56601666Y52617620D01*
X56768333Y52617620D01*
X56868333Y52570000D01*
X56935000Y52474762D01*
X56968333Y52379524D01*
X57001666Y52189048D01*
X57001666Y52046191D01*
X56968333Y51855715D01*
X56935000Y51760477D01*
X56868333Y51665239D01*
X56768333Y51617620D01*
X56601666Y51617620D01*
X57668333Y51617620D02*
X57268333Y51617620D01*
X57468333Y51617620D02*
X57468333Y52617620D01*
X57401666Y52474762D01*
X57335000Y52379524D01*
X57268333Y52331905D01*
X58335000Y51617620D02*
X57935000Y51617620D01*
X58135000Y51617620D02*
X58135000Y52617620D01*
X58068333Y52474762D01*
X58001666Y52379524D01*
X57935000Y52331905D01*
X58568333Y52617620D02*
X59001666Y52617620D01*
X58768333Y52236667D01*
X58868333Y52236667D01*
X58935000Y52189048D01*
X58968333Y52141429D01*
X59001666Y52046191D01*
X59001666Y51808096D01*
X58968333Y51712858D01*
X58935000Y51665239D01*
X58868333Y51617620D01*
X58668333Y51617620D01*
X58601666Y51665239D01*
X58568333Y51712858D01*
X45486666Y59126429D02*
X45253333Y59126429D01*
X45253333Y58602620D02*
X45253333Y59602620D01*
X45586666Y59602620D01*
X46220000Y58602620D02*
X45820000Y58602620D01*
X46020000Y58602620D02*
X46020000Y59602620D01*
X45953333Y59459762D01*
X45886666Y59364524D01*
X45820000Y59316905D01*
X58353333Y58507381D02*
X58286666Y58555000D01*
X58220000Y58650239D01*
X58120000Y58793096D01*
X58053333Y58840715D01*
X57986666Y58840715D01*
X58020000Y58602620D02*
X57953333Y58650239D01*
X57886666Y58745477D01*
X57853333Y58935953D01*
X57853333Y59269286D01*
X57886666Y59459762D01*
X57953333Y59555000D01*
X58020000Y59602620D01*
X58153333Y59602620D01*
X58220000Y59555000D01*
X58286666Y59459762D01*
X58320000Y59269286D01*
X58320000Y58935953D01*
X58286666Y58745477D01*
X58220000Y58650239D01*
X58153333Y58602620D01*
X58020000Y58602620D01*
X58986666Y58602620D02*
X58586666Y58602620D01*
X58786666Y58602620D02*
X58786666Y59602620D01*
X58720000Y59459762D01*
X58653333Y59364524D01*
X58586666Y59316905D01*
X53908333Y58507381D02*
X53841666Y58555000D01*
X53775000Y58650239D01*
X53675000Y58793096D01*
X53608333Y58840715D01*
X53541666Y58840715D01*
X53575000Y58602620D02*
X53508333Y58650239D01*
X53441666Y58745477D01*
X53408333Y58935953D01*
X53408333Y59269286D01*
X53441666Y59459762D01*
X53508333Y59555000D01*
X53575000Y59602620D01*
X53708333Y59602620D01*
X53775000Y59555000D01*
X53841666Y59459762D01*
X53875000Y59269286D01*
X53875000Y58935953D01*
X53841666Y58745477D01*
X53775000Y58650239D01*
X53708333Y58602620D01*
X53575000Y58602620D01*
X54475000Y59269286D02*
X54475000Y58602620D01*
X54308333Y59650239D02*
X54141666Y58935953D01*
X54575000Y58935953D01*
X49463333Y58507381D02*
X49396666Y58555000D01*
X49330000Y58650239D01*
X49230000Y58793096D01*
X49163333Y58840715D01*
X49096666Y58840715D01*
X49130000Y58602620D02*
X49063333Y58650239D01*
X48996666Y58745477D01*
X48963333Y58935953D01*
X48963333Y59269286D01*
X48996666Y59459762D01*
X49063333Y59555000D01*
X49130000Y59602620D01*
X49263333Y59602620D01*
X49330000Y59555000D01*
X49396666Y59459762D01*
X49430000Y59269286D01*
X49430000Y58935953D01*
X49396666Y58745477D01*
X49330000Y58650239D01*
X49263333Y58602620D01*
X49130000Y58602620D01*
X50063333Y59602620D02*
X49730000Y59602620D01*
X49696666Y59126429D01*
X49730000Y59174048D01*
X49796666Y59221667D01*
X49963333Y59221667D01*
X50030000Y59174048D01*
X50063333Y59126429D01*
X50096666Y59031191D01*
X50096666Y58793096D01*
X50063333Y58697858D01*
X50030000Y58650239D01*
X49963333Y58602620D01*
X49796666Y58602620D01*
X49730000Y58650239D01*
X49696666Y58697858D01*
X31487500Y38917620D02*
X31254166Y39393810D01*
X31087500Y38917620D02*
X31087500Y39917620D01*
X31354166Y39917620D01*
X31420833Y39870000D01*
X31454166Y39822381D01*
X31487500Y39727143D01*
X31487500Y39584286D01*
X31454166Y39489048D01*
X31420833Y39441429D01*
X31354166Y39393810D01*
X31087500Y39393810D01*
X32154166Y38917620D02*
X31754166Y38917620D01*
X31954166Y38917620D02*
X31954166Y39917620D01*
X31887500Y39774762D01*
X31820833Y39679524D01*
X31754166Y39631905D01*
X49581666Y53252620D02*
X49581666Y52538334D01*
X49548333Y52395477D01*
X49481666Y52300239D01*
X49381666Y52252620D01*
X49315000Y52252620D01*
X49915000Y52252620D02*
X49915000Y53252620D01*
X50181666Y53252620D01*
X50248333Y53205000D01*
X50281666Y53157381D01*
X50315000Y53062143D01*
X50315000Y52919286D01*
X50281666Y52824048D01*
X50248333Y52776429D01*
X50181666Y52728810D01*
X49915000Y52728810D01*
X50948333Y53252620D02*
X50615000Y53252620D01*
X50581666Y52776429D01*
X50615000Y52824048D01*
X50681666Y52871667D01*
X50848333Y52871667D01*
X50915000Y52824048D01*
X50948333Y52776429D01*
X50981666Y52681191D01*
X50981666Y52443096D01*
X50948333Y52347858D01*
X50915000Y52300239D01*
X50848333Y52252620D01*
X50681666Y52252620D01*
X50615000Y52300239D01*
X50581666Y52347858D01*
X52756666Y53252620D02*
X52756666Y52538334D01*
X52723333Y52395477D01*
X52656666Y52300239D01*
X52556666Y52252620D01*
X52490000Y52252620D01*
X53090000Y52252620D02*
X53090000Y53252620D01*
X53356666Y53252620D01*
X53423333Y53205000D01*
X53456666Y53157381D01*
X53490000Y53062143D01*
X53490000Y52919286D01*
X53456666Y52824048D01*
X53423333Y52776429D01*
X53356666Y52728810D01*
X53090000Y52728810D01*
X54090000Y53252620D02*
X53956666Y53252620D01*
X53890000Y53205000D01*
X53856666Y53157381D01*
X53790000Y53014524D01*
X53756666Y52824048D01*
X53756666Y52443096D01*
X53790000Y52347858D01*
X53823333Y52300239D01*
X53890000Y52252620D01*
X54023333Y52252620D01*
X54090000Y52300239D01*
X54123333Y52347858D01*
X54156666Y52443096D01*
X54156666Y52681191D01*
X54123333Y52776429D01*
X54090000Y52824048D01*
X54023333Y52871667D01*
X53890000Y52871667D01*
X53823333Y52824048D01*
X53790000Y52776429D01*
X53756666Y52681191D01*
X39253333Y58602620D02*
X39020000Y59078810D01*
X38853333Y58602620D02*
X38853333Y59602620D01*
X39120000Y59602620D01*
X39186666Y59555000D01*
X39220000Y59507381D01*
X39253333Y59412143D01*
X39253333Y59269286D01*
X39220000Y59174048D01*
X39186666Y59126429D01*
X39120000Y59078810D01*
X38853333Y59078810D01*
X39853333Y59602620D02*
X39720000Y59602620D01*
X39653333Y59555000D01*
X39620000Y59507381D01*
X39553333Y59364524D01*
X39520000Y59174048D01*
X39520000Y58793096D01*
X39553333Y58697858D01*
X39586666Y58650239D01*
X39653333Y58602620D01*
X39786666Y58602620D01*
X39853333Y58650239D01*
X39886666Y58697858D01*
X39920000Y58793096D01*
X39920000Y59031191D01*
X39886666Y59126429D01*
X39853333Y59174048D01*
X39786666Y59221667D01*
X39653333Y59221667D01*
X39586666Y59174048D01*
X39553333Y59126429D01*
X39520000Y59031191D01*
M02*
